NotoSerifTamil-SemiCondensedMedium.ufo
<glyph name="exclam" format="2">
  <advance width="324.1758620689655"/>
  <unicode hex="0021"/>
  <outline>
    <contour>
      <point x="138.7816091954023" y="206.74137931034483" type="line"/>
      <point x="184.67011494252876" y="206.74137931034483" type="line"/>
      <point x="224.68505747126437" y="714.0" type="line"/>
      <point x="98.76666666666667" y="714.0" type="line"/>
    </contour>
    <contour>
      <point x="162.13448275862072" y="-7.174712643678161" type="curve" smooth="yes"/>
      <point x="196.22528735632187" y="-7.174712643678161"/>
      <point x="225.67241379310346" y="9.818390804597701"/>
      <point x="225.67241379310346" y="61.834482758620695" type="curve" smooth="yes"/>
      <point x="225.67241379310346" y="114.38275862068966"/>
      <point x="196.22528735632187" y="130.84367816091952"/>
      <point x="162.13448275862072" y="130.84367816091952" type="curve" smooth="yes"/>
      <point x="126.50229885057472" y="130.84367816091952"/>
      <point x="98.59655172413792" y="114.38275862068966"/>
      <point x="98.59655172413792" y="61.834482758620695" type="curve" smooth="yes"/>
      <point x="98.59655172413792" y="9.818390804597701"/>
      <point x="126.50229885057472" y="-7.174712643678161"/>
    </contour>
  </outline>
</glyph>
<glyph name="quotedbl" format="2">
  <advance width="410.09655172413795"/>
  <unicode hex="0022"/>
  <outline>
    <contour>
      <point x="275.583908045977" y="470.34252873563213" type="line"/>
      <point x="324.6609195402299" y="470.34252873563213" type="line"/>
      <point x="353.84022988505745" y="714.0" type="line"/>
      <point x="239.6609195402299" y="714.0" type="line"/>
    </contour>
    <contour>
      <point x="88.8896551724138" y="470.34252873563213" type="line"/>
      <point x="137.70114942528738" y="470.34252873563213" type="line"/>
      <point x="170.43563218390807" y="714.0" type="line"/>
      <point x="55.99080459770116" y="714.0" type="line"/>
    </contour>
  </outline>
</glyph>
<glyph name="numbersign" format="2">
  <advance width="517.7816091954023"/>
  <unicode hex="0023"/>
  <outline>
    <contour>
      <point x="68.59425287356324" y="0.0" type="line"/>
      <point x="129.99770114942532" y="0.0" type="line"/>
      <point x="168.36436781609197" y="203.70229885057472" type="line"/>
      <point x="286.2919540229885" y="203.70229885057472" type="line"/>
      <point x="248.3022988505747" y="0.0" type="line"/>
      <point x="309.7057471264368" y="0.0" type="line"/>
      <point x="347.79655172413794" y="203.70229885057472" type="line"/>
      <point x="466.18735632183905" y="203.70229885057472" type="line"/>
      <point x="466.18735632183905" y="263.0333333333333" type="line"/>
      <point x="359.716091954023" y="263.0333333333333" type="line"/>
      <point x="396.2551724137931" y="456.42528735632186" type="line"/>
      <point x="498.1873563218391" y="456.42528735632186" type="line"/>
      <point x="498.1873563218391" y="516.5632183908045" type="line"/>
      <point x="407.4402298850575" y="516.5632183908045" type="line"/>
      <point x="444.7057471264368" y="714.0" type="line"/>
      <point x="383.0367816091954" y="714.0" type="line"/>
      <point x="345.935632183908" y="516.5632183908045" type="line"/>
      <point x="228.00804597701148" y="516.5632183908045" type="line"/>
      <point x="264.99770114942527" y="714.0" type="line"/>
      <point x="202.59425287356322" y="714.0" type="line"/>
      <point x="166.5034482758621" y="516.5632183908045" type="line"/>
      <point x="51.32873563218391" y="516.5632183908045" type="line"/>
      <point x="51.32873563218391" y="456.42528735632186" type="line"/>
      <point x="154.95172413793105" y="456.42528735632186" type="line"/>
      <point x="118.04482758620689" y="263.0333333333333" type="line"/>
      <point x="19.32873563218391" y="263.0333333333333" type="line"/>
      <point x="19.32873563218391" y="203.70229885057472" type="line"/>
      <point x="106.85977011494253" y="203.70229885057472" type="line"/>
    </contour>
    <contour>
      <point x="180.00804597701148" y="263.0333333333333" type="line"/>
      <point x="216.82298850574713" y="456.42528735632186" type="line"/>
      <point x="335.02643678160916" y="456.42528735632186" type="line"/>
      <point x="298.3126436781609" y="263.0333333333333" type="line"/>
    </contour>
  </outline>
</glyph>
<glyph name="percent" format="2">
  <advance width="832.7459770114941"/>
  <unicode hex="0025"/>
  <outline>
    <contour>
      <point x="219.28505747126437" y="0.0" type="line"/>
      <point x="284.2586206896552" y="0.0" type="line"/>
      <point x="609.9287356321839" y="714.0" type="line"/>
      <point x="545.8540229885057" y="714.0" type="line"/>
    </contour>
    <contour>
      <point x="195.01724137931032" y="280.0" type="curve" smooth="yes"/>
      <point x="300.6172413793103" y="280.0"/>
      <point x="352.3298850574713" y="369.0"/>
      <point x="352.3298850574713" y="503.0" type="curve"/>
      <point x="352.3298850574713" y="637.0"/>
      <point x="300.6172413793103" y="724.0"/>
      <point x="195.916091954023" y="724.0" type="curve" smooth="yes"/>
      <point x="84.5080459770115" y="724.0"/>
      <point x="37.97011494252874" y="637.0"/>
      <point x="37.97011494252874" y="503.0" type="curve" smooth="yes"/>
      <point x="37.97011494252874" y="369.0"/>
      <point x="84.5080459770115" y="280.0"/>
    </contour>
    <contour>
      <point x="195.01724137931032" y="321.64942528735634" type="curve" smooth="yes"/>
      <point x="144.69770114942528" y="321.64942528735634"/>
      <point x="126.61494252873565" y="387.82183908045977"/>
      <point x="126.61494252873565" y="503.0" type="curve"/>
      <point x="126.61494252873565" y="616.1781609195402"/>
      <point x="144.69770114942528" y="681.3505747126437"/>
      <point x="195.916091954023" y="681.3505747126437" type="curve" smooth="yes"/>
      <point x="246.3367816091954" y="681.3505747126437"/>
      <point x="262.6850574712644" y="616.1781609195402"/>
      <point x="262.6850574712644" y="503.0" type="curve" smooth="yes"/>
      <point x="262.6850574712644" y="387.82183908045977"/>
      <point x="246.3367816091954" y="321.64942528735634"/>
    </contour>
    <contour>
      <point x="637.4632183908046" y="-10.0" type="curve" smooth="yes"/>
      <point x="743.164367816092" y="-10.0"/>
      <point x="794.7758620689656" y="79.0"/>
      <point x="794.7758620689656" y="213.0" type="curve" smooth="yes"/>
      <point x="794.7758620689656" y="347.0"/>
      <point x="743.164367816092" y="434.0"/>
      <point x="638.4632183908046" y="434.0" type="curve" smooth="yes"/>
      <point x="527.3206896551724" y="434.0"/>
      <point x="480.51724137931035" y="347.0"/>
      <point x="480.51724137931035" y="213.0" type="curve" smooth="yes"/>
      <point x="480.51724137931035" y="79.0"/>
      <point x="527.3206896551724" y="-10.0"/>
    </contour>
    <contour>
      <point x="637.4632183908046" y="31.649425287356326" type="curve" smooth="yes"/>
      <point x="587.2448275862068" y="31.649425287356326"/>
      <point x="569.1620689655172" y="97.82183908045978"/>
      <point x="569.1620689655172" y="213.0" type="curve" smooth="yes"/>
      <point x="569.1620689655172" y="326.17816091954023"/>
      <point x="587.2448275862068" y="391.35057471264366"/>
      <point x="638.1977011494253" y="391.35057471264366" type="curve" smooth="yes"/>
      <point x="688.7827586206897" y="391.35057471264366"/>
      <point x="705.232183908046" y="326.17816091954023"/>
      <point x="705.232183908046" y="213.0" type="curve" smooth="yes"/>
      <point x="705.232183908046" y="97.82183908045978"/>
      <point x="688.7827586206897" y="31.649425287356326"/>
    </contour>
  </outline>
</glyph>
<glyph name="quotesingle" format="2">
  <advance width="226.6919540229885"/>
  <unicode hex="0027"/>
  <outline>
    <contour>
      <point x="88.8896551724138" y="470.34252873563213" type="line"/>
      <point x="137.70114942528738" y="470.34252873563213" type="line"/>
      <point x="170.43563218390807" y="714.0" type="line"/>
      <point x="55.99080459770116" y="714.0" type="line"/>
    </contour>
  </outline>
</glyph>
<glyph name="parenleft" format="2">
  <advance width="337.45517241379304"/>
  <unicode hex="0028"/>
  <outline>
    <contour>
      <point x="308.28735632183907" y="-130.36436781609194" type="curve"/>
      <point x="308.28735632183907" y="-80.5367816091954" type="line"/>
      <point x="185.53218390804597" y="2.1873563218390806"/>
      <point x="167.6080459770115" y="158.17471264367816"/>
      <point x="167.6080459770115" y="317.17471264367816" type="curve" smooth="yes"/>
      <point x="167.6080459770115" y="476.0"/>
      <point x="185.53218390804597" y="630.7218390804597"/>
      <point x="308.28735632183907" y="713.8126436781608" type="curve"/>
      <point x="308.28735632183907" y="762.3747126436781" type="line"/>
      <point x="125.2367816091954" y="686.3643678160919"/>
      <point x="52.701149425287355" y="551.9850574712643"/>
      <point x="52.701149425287355" y="317.17471264367816" type="curve" smooth="yes"/>
      <point x="52.701149425287355" y="81.46551724137932"/>
      <point x="125.2367816091954" y="-53.721839080459766"/>
    </contour>
  </outline>
</glyph>
<glyph name="parenright" format="2">
  <advance width="337.45517241379304"/>
  <unicode hex="0029"/>
  <outline>
    <contour>
      <point x="29.433333333333334" y="-130.36436781609194" type="line"/>
      <point x="212.58505747126438" y="-53.721839080459766"/>
      <point x="285.0195402298851" y="81.46551724137932"/>
      <point x="285.0195402298851" y="317.17471264367816" type="curve" smooth="yes"/>
      <point x="285.0195402298851" y="551.9850574712643"/>
      <point x="212.58505747126438" y="686.3643678160919"/>
      <point x="29.433333333333334" y="762.3747126436781" type="curve"/>
      <point x="29.433333333333334" y="713.8126436781608" type="line"/>
      <point x="152.18850574712644" y="630.7218390804597"/>
      <point x="170.37816091954022" y="476.0"/>
      <point x="170.37816091954022" y="317.17471264367816" type="curve" smooth="yes"/>
      <point x="170.37816091954022" y="158.17471264367816"/>
      <point x="152.18850574712644" y="2.1873563218390806"/>
      <point x="29.433333333333334" y="-80.5367816091954" type="curve"/>
    </contour>
  </outline>
</glyph>
<glyph name="asterisk" format="2">
  <advance width="457.3103448275862"/>
  <unicode hex="002A"/>
  <outline>
    <contour>
      <point x="184.2057471264368" y="374.00459770114946" type="line"/>
      <point x="271.6563218390804" y="374.00459770114946" type="line"/>
      <point x="243.65977011494255" y="535.5356321839081" type="line"/>
      <point x="383.4229885057472" y="439.8045977011494" type="line"/>
      <point x="418.880459770115" y="519.7379310344827" type="line"/>
      <point x="269.11954022988505" y="567.0896551724138" type="line"/>
      <point x="418.880459770115" y="614.2666666666667" type="line"/>
      <point x="383.4229885057472" y="695.4655172413792" type="line"/>
      <point x="243.65977011494255" y="598.6436781609196" type="line"/>
      <point x="271.83103448275864" y="760.0" type="line"/>
      <point x="184.2057471264368" y="760.0" type="line"/>
      <point x="210.30344827586205" y="597.4689655172414" type="line"/>
      <point x="71.33793103448276" y="697.4655172413792" type="line"/>
      <point x="35.9816091954023" y="615.2666666666667" type="line"/>
      <point x="185.3850574712644" y="567.0896551724138" type="line"/>
      <point x="35.9816091954023" y="518.7379310344827" type="line"/>
      <point x="71.33793103448276" y="438.08045977011494" type="line"/>
      <point x="209.30344827586205" y="536.1781609195402" type="line"/>
    </contour>
  </outline>
</glyph>
<glyph name="plus" format="2">
  <advance width="509.8666666666667"/>
  <unicode hex="002B"/>
  <outline>
    <contour>
      <point x="222.8793103448276" y="143.0" type="line"/>
      <point x="285.72183908045974" y="143.0" type="line"/>
      <point x="285.72183908045974" y="326.81264367816095" type="line"/>
      <point x="453.43908045977014" y="326.81264367816095" type="line"/>
      <point x="453.43908045977014" y="388.18735632183905" type="line"/>
      <point x="285.72183908045974" y="388.18735632183905" type="line"/>
      <point x="285.72183908045974" y="572.0" type="line"/>
      <point x="222.8793103448276" y="572.0" type="line"/>
      <point x="222.8793103448276" y="388.18735632183905" type="line"/>
      <point x="56.42758620689656" y="388.18735632183905" type="line"/>
      <point x="56.42758620689656" y="326.81264367816095" type="line"/>
      <point x="222.8793103448276" y="326.81264367816095" type="line"/>
    </contour>
  </outline>
</glyph>
<glyph name="comma" format="2">
  <advance width="245.66321839080464"/>
  <unicode hex="002C"/>
  <outline>
    <contour>
      <point x="34.1632183908046" y="-154.0" type="line"/>
      <point x="145.96896551724137" y="-119.99885057471263"/>
      <point x="188.14022988505747" y="-45.89540229885057"/>
      <point x="188.14022988505747" y="36.84137931034483" type="curve" smooth="yes"/>
      <point x="188.14022988505747" y="96.48045977011493"/>
      <point x="156.4390804597701" y="130.84367816091952"/>
      <point x="113.53908045977012" y="130.84367816091952" type="curve" smooth="yes"/>
      <point x="78.9" y="130.84367816091952"/>
      <point x="52.33563218390804" y="109.38275862068966"/>
      <point x="52.33563218390804" y="71.28505747126437" type="curve" smooth="yes"/>
      <point x="52.33563218390804" y="7.812643678160919"/>
      <point x="117.87586206896552" y="14.734482758620691"/>
      <point x="117.87586206896552" y="-23.71494252873563" type="curve" smooth="yes"/>
      <point x="117.87586206896552" y="-61.34942528735632"/>
      <point x="90.60689655172415" y="-90.44137931034483"/>
      <point x="34.1632183908046" y="-110.80919540229885" type="curve"/>
    </contour>
  </outline>
</glyph>
<glyph name="hyphen" format="2">
  <advance width="287.2413793103449"/>
  <unicode hex="002D"/>
  <outline>
    <contour>
      <point x="23.267816091954025" y="231.63333333333333" type="line"/>
      <point x="264.0747126436782" y="231.63333333333333" type="line"/>
      <point x="264.0747126436782" y="313.3666666666666" type="line"/>
      <point x="23.267816091954025" y="313.3666666666666" type="line"/>
    </contour>
  </outline>
</glyph>
<glyph name="period" format="2">
  <advance width="245.66321839080464"/>
  <unicode hex="002E"/>
  <outline>
    <contour>
      <point x="122.96436781609196" y="-7.174712643678161" type="curve" smooth="yes"/>
      <point x="157.0551724137931" y="-7.174712643678161"/>
      <point x="186.6034482758621" y="9.818390804597701"/>
      <point x="186.6034482758621" y="61.834482758620695" type="curve" smooth="yes"/>
      <point x="186.6034482758621" y="114.38275862068966"/>
      <point x="157.0551724137931" y="130.84367816091952"/>
      <point x="122.96436781609196" y="130.84367816091952" type="curve" smooth="yes"/>
      <point x="87.33218390804599" y="130.84367816091952"/>
      <point x="59.05977011494254" y="114.38275862068966"/>
      <point x="59.05977011494254" y="61.834482758620695" type="curve" smooth="yes"/>
      <point x="59.05977011494254" y="9.818390804597701"/>
      <point x="87.33218390804599" y="-7.174712643678161"/>
    </contour>
  </outline>
</glyph>
<glyph name="slash" format="2">
  <advance width="266.7080459770115"/>
  <unicode hex="002F"/>
  <outline>
    <contour>
      <point x="0.0" y="-121.0" type="line"/>
      <point x="59.08390804597701" y="-121.0" type="line"/>
      <point x="266.7080459770115" y="760.0" type="line"/>
      <point x="209.26666666666665" y="760.0" type="line"/>
    </contour>
  </outline>
</glyph>
<glyph name="zero" format="2">
  <advance width="517.5160919540231"/>
  <unicode hex="0030"/>
  <outline>
    <contour>
      <point x="259.0747126436782" y="-10.0" type="curve" smooth="yes"/>
      <point x="410.92758620689654" y="-10.0"/>
      <point x="479.0781609195402" y="133.10574712643677"/>
      <point x="479.0781609195402" y="358.0" type="curve" smooth="yes"/>
      <point x="479.0781609195402" y="584.5264367816092"/>
      <point x="411.82528735632184" y="724.0"/>
      <point x="260.0747126436782" y="724.0" type="curve" smooth="yes"/>
      <point x="98.7816091954023" y="724.0"/>
      <point x="37.97011494252874" y="582.6298850574713"/>
      <point x="37.97011494252874" y="359.0" type="curve" smooth="yes"/>
      <point x="37.97011494252874" y="131.84137931034482"/>
      <point x="99.67931034482758" y="-10.0"/>
    </contour>
    <contour>
      <point x="259.0747126436782" y="45.46666666666667" type="curve" smooth="yes"/>
      <point x="175.94252873563218" y="45.46666666666667"/>
      <point x="150.15977011494255" y="160.72988505747128"/>
      <point x="150.15977011494255" y="358.0" type="curve" smooth="yes"/>
      <point x="150.15977011494255" y="555.2701149425287"/>
      <point x="175.94252873563218" y="668.5333333333333"/>
      <point x="260.0747126436782" y="668.5333333333333" type="curve" smooth="yes"/>
      <point x="342.10574712643677" y="668.5333333333333"/>
      <point x="367.6218390804598" y="555.2701149425287"/>
      <point x="367.6218390804598" y="358.0" type="curve" smooth="yes"/>
      <point x="367.6218390804598" y="160.72988505747128"/>
      <point x="342.10574712643677" y="45.46666666666667"/>
    </contour>
  </outline>
</glyph>
<glyph name="one" format="2">
  <advance width="517.5160919540231"/>
  <unicode hex="0031"/>
  <outline>
    <contour>
      <point x="89.13218390804599" y="0.0" type="line"/>
      <point x="449.17126436781615" y="0.0" type="line"/>
      <point x="449.17126436781615" y="44.364367816091956" type="line"/>
      <point x="399.06896551724134" y="44.364367816091956" type="line" smooth="yes"/>
      <point x="356.83103448275864" y="44.364367816091956"/>
      <point x="328.99655172413793" y="56.98620689655173"/>
      <point x="328.99655172413793" y="114.63563218390804" type="curve" smooth="yes"/>
      <point x="328.99655172413793" y="718.0" type="line"/>
      <point x="255.96551724137933" y="718.0" type="line"/>
      <point x="191.2632183908046" y="666.5689655172414" type="line" smooth="yes"/>
      <point x="130.09310344827585" y="617.6701149425287"/>
      <point x="90.38965517241378" y="600.0367816091954"/>
      <point x="53.32298850574713" y="590.0367816091954" type="curve"/>
      <point x="53.32298850574713" y="555.1206896551724"/>
      <point x="74.13448275862069" y="532.2896551724139"/>
      <point x="102.02758620689656" y="532.2896551724139" type="curve" smooth="yes"/>
      <point x="138.92988505747127" y="532.2896551724139"/>
      <point x="174.8310344827586" y="573.6827586206897"/>
      <point x="221.53218390804597" y="633.9505747126436" type="curve"/>
      <point x="221.53218390804597" y="114.63563218390804" type="line" smooth="yes"/>
      <point x="221.53218390804597" y="54.08390804597701"/>
      <point x="192.07011494252873" y="44.364367816091956"/>
      <point x="151.63448275862072" y="44.364367816091956" type="curve" smooth="yes"/>
      <point x="89.13218390804599" y="44.364367816091956" type="line"/>
    </contour>
  </outline>
</glyph>
<glyph name="two" format="2">
  <advance width="517.5160919540231"/>
  <unicode hex="0032"/>
  <outline>
    <contour>
      <point x="42.26206896551724" y="0.0" type="line"/>
      <point x="456.71264367816093" y="0.0" type="line"/>
      <point x="461.08045977011494" y="181.19655172413792" type="line"/>
      <point x="415.99655172413793" y="181.19655172413792" type="line"/>
      <point x="410.9942528735632" y="159.64827586206897" type="line" smooth="yes"/>
      <point x="400.9011494252874" y="116.84137931034482"/>
      <point x="382.9011494252873" y="86.46781609195403"/>
      <point x="333.4022988505747" y="86.46781609195403" type="curve" smooth="yes"/>
      <point x="119.85517241379311" y="86.46781609195403" type="line"/>
      <point x="263.38505747126436" y="251.51494252873565" type="line" smooth="yes"/>
      <point x="377.3333333333333" y="377.34597701149426"/>
      <point x="438.54597701149424" y="454.767816091954"/>
      <point x="438.54597701149424" y="555.8724137931034" type="curve" smooth="yes"/>
      <point x="438.54597701149424" y="657.4241379310345"/>
      <point x="365.4850574712644" y="724.0"/>
      <point x="240.61264367816094" y="724.0" type="curve" smooth="yes"/>
      <point x="114.66091954022988" y="724.0"/>
      <point x="50.43333333333333" y="664.6747126436782"/>
      <point x="50.43333333333333" y="590.9505747126437" type="curve" smooth="yes"/>
      <point x="50.43333333333333" y="535.232183908046"/>
      <point x="91.82758620689656" y="518.2908045977011"/>
      <point x="142.6712643678161" y="518.2908045977011" type="curve"/>
      <point x="142.6712643678161" y="605.0367816091954"/>
      <point x="162.31724137931033" y="671.635632183908"/>
      <point x="240.61264367816094" y="671.635632183908" type="curve" smooth="yes"/>
      <point x="299.38505747126436" y="671.635632183908"/>
      <point x="328.73448275862063" y="624.8195402298851"/>
      <point x="328.73448275862063" y="547.5172413793103" type="curve" smooth="yes"/>
      <point x="328.73448275862063" y="451.35747126436786"/>
      <point x="296.1367816091954" y="383.8873563218391"/>
      <point x="193.48850574712642" y="260.38850574712643" type="curve" smooth="yes"/>
      <point x="42.26206896551724" y="78.06436781609196" type="line"/>
    </contour>
  </outline>
</glyph>
<glyph name="three" format="2">
  <advance width="517.5160919540231"/>
  <unicode hex="0033"/>
  <outline>
    <contour>
      <point x="228.5367816091954" y="-10.0" type="curve" smooth="yes"/>
      <point x="344.67241379310343" y="-10.0"/>
      <point x="468.8574712643678" y="43.0"/>
      <point x="468.8574712643678" y="201.9218390804598" type="curve" smooth="yes"/>
      <point x="468.8574712643678" y="328.0057471264368"/>
      <point x="374.0620689655172" y="369.6402298850575"/>
      <point x="301.3781609195402" y="380.00114942528734" type="curve"/>
      <point x="383.97011494252877" y="403.46436781609196"/>
      <point x="445.5896551724138" y="472.10114942528736"/>
      <point x="445.5896551724138" y="562.1011494252873" type="curve" smooth="yes"/>
      <point x="445.5896551724138" y="665.4586206896552"/>
      <point x="366.4436781609195" y="724.0"/>
      <point x="246.4609195402299" y="724.0" type="curve" smooth="yes"/>
      <point x="120.50919540229884" y="724.0"/>
      <point x="55.84137931034483" y="665.6701149425287"/>
      <point x="55.84137931034483" y="591.4885057471264" type="curve" smooth="yes"/>
      <point x="55.84137931034483" y="540.2965517241379"/>
      <point x="94.38965517241378" y="522.9781609195402"/>
      <point x="146.75977011494254" y="522.9781609195402" type="curve"/>
      <point x="146.75977011494254" y="601.8034482758621"/>
      <point x="166.15057471264367" y="671.635632183908"/>
      <point x="242.91954022988503" y="671.635632183908" type="curve" smooth="yes"/>
      <point x="306.25402298850577" y="671.635632183908"/>
      <point x="334.77701149425286" y="626.0862068965517"/>
      <point x="334.77701149425286" y="549.2735632183908" type="curve" smooth="yes"/>
      <point x="334.77701149425286" y="455.63563218390806"/>
      <point x="282.8827586206897" y="396.2781609195402"/>
      <point x="201.83218390804598" y="396.2781609195402" type="curve"/>
      <point x="159.70689655172416" y="396.2781609195402" type="line"/>
      <point x="159.70689655172416" y="343.81149425287356" type="line"/>
      <point x="200.46321839080457" y="343.81149425287356" type="line" smooth="yes"/>
      <point x="300.85862068965514" y="343.81149425287356"/>
      <point x="357.3103448275862" y="288.1793103448276"/>
      <point x="357.3103448275862" y="202.9218390804598" type="curve" smooth="yes"/>
      <point x="357.3103448275862" y="86.72873563218391"/>
      <point x="296.2471264367816" y="47.275862068965516"/>
      <point x="227.20344827586206" y="47.275862068965516" type="curve" smooth="yes"/>
      <point x="154.97241379310347" y="47.275862068965516"/>
      <point x="110.90344827586206" y="97.77586206896551"/>
      <point x="110.90344827586206" y="171.14252873563217" type="curve"/>
      <point x="72.9977011494253" y="171.14252873563217"/>
      <point x="45.2735632183908" y="146.416091954023"/>
      <point x="45.2735632183908" y="104.05172413793102" type="curve" smooth="yes"/>
      <point x="45.2735632183908" y="42.810344827586206"/>
      <point x="100.29770114942528" y="-10.0"/>
    </contour>
  </outline>
</glyph>
<glyph name="four" format="2">
  <advance width="517.5160919540231"/>
  <unicode hex="0034"/>
  <outline>
    <contour>
      <point x="188.42758620689654" y="0.0" type="line"/>
      <point x="482.8137931034483" y="0.0" type="line"/>
      <point x="482.8137931034483" y="44.364367816091956" type="line"/>
      <point x="470.8126436781609" y="44.364367816091956" type="line" smooth="yes"/>
      <point x="428.7459770114943" y="44.364367816091956"/>
      <point x="394.5781609195402" y="53.364367816091956"/>
      <point x="394.5781609195402" y="116.36436781609197" type="curve" smooth="yes"/>
      <point x="394.5781609195402" y="193.91149425287358" type="line"/>
      <point x="502.6045977011495" y="193.91149425287358" type="line"/>
      <point x="502.6045977011495" y="252.0" type="line"/>
      <point x="394.5781609195402" y="252.0" type="line"/>
      <point x="394.5781609195402" y="714.0" type="line"/>
      <point x="291.5494252873563" y="714.0" type="line"/>
      <point x="14.632183908045976" y="239.08850574712642" type="line"/>
      <point x="14.632183908045976" y="193.91149425287358" type="line"/>
      <point x="290.29770114942534" y="193.91149425287358" type="line"/>
      <point x="290.29770114942534" y="116.36436781609197" type="line" smooth="yes"/>
      <point x="290.29770114942534" y="53.364367816091956"/>
      <point x="256.39540229885057" y="44.364367816091956"/>
      <point x="214.0632183908046" y="44.364367816091956" type="curve" smooth="yes"/>
      <point x="188.42758620689654" y="44.364367816091956" type="line"/>
    </contour>
    <contour>
      <point x="81.75632183908046" y="252.0" type="line"/>
      <point x="215.89540229885057" y="483.8896551724138" type="line" smooth="yes"/>
      <point x="236.76436781609195" y="520.8379310344827"/>
      <point x="283.72873563218394" y="607.2931034482758"/>
      <point x="296.564367816092" y="637.9379310344827" type="curve"/>
      <point x="291.93103448275866" y="575.9379310344827"/>
      <point x="290.29770114942534" y="494.416091954023"/>
      <point x="290.29770114942534" y="436.416091954023" type="curve" smooth="yes"/>
      <point x="290.29770114942534" y="252.0" type="line"/>
    </contour>
  </outline>
</glyph>
<glyph name="five" format="2">
  <advance width="517.5160919540231"/>
  <unicode hex="0035"/>
  <outline>
    <contour>
      <point x="226.18275862068967" y="-10.0" type="curve" smooth="yes"/>
      <point x="357.37011494252874" y="-10.0"/>
      <point x="456.1908045977012" y="74.25402298850574"/>
      <point x="456.1908045977012" y="218.4505747126437" type="curve" smooth="yes"/>
      <point x="456.1908045977012" y="359.63563218390806"/>
      <point x="364.03563218390804" y="430.2781609195402"/>
      <point x="235.17126436781612" y="430.2781609195402" type="curve" smooth="yes"/>
      <point x="189.19080459770115" y="430.2781609195402"/>
      <point x="149.83563218390805" y="421.7287356321839"/>
      <point x="129.76206896551722" y="413.8206896551724" type="curve"/>
      <point x="147.40344827586208" y="626.8080459770115" type="line"/>
      <point x="330.5988505747127" y="626.8080459770115" type="line" smooth="yes"/>
      <point x="366.5781609195402" y="626.8080459770115"/>
      <point x="371.94827586206895" y="614.1643678160921"/>
      <point x="378.0298850574713" y="583.6390804597701" type="curve" smooth="yes"/>
      <point x="383.2977011494252" y="555.532183908046" type="line"/>
      <point x="427.8298850574713" y="555.532183908046" type="line"/>
      <point x="423.5632183908046" y="713.1747126436782" type="line"/>
      <point x="101.4735632183908" y="713.1747126436782" type="line"/>
      <point x="71.10459770114942" y="361.9126436781609" type="line"/>
      <point x="98.22758620689655" y="351.283908045977" type="line"/>
      <point x="123.14022988505747" y="361.99770114942527"/>
      <point x="153.64252873563217" y="373.81149425287356"/>
      <point x="209.88850574712646" y="373.81149425287356" type="curve" smooth="yes"/>
      <point x="292.30574712643676" y="373.81149425287356"/>
      <point x="344.5528735632184" y="322.2735632183908"/>
      <point x="344.5528735632184" y="218.4505747126437" type="curve" smooth="yes"/>
      <point x="344.5528735632184" y="90.55632183908047"/>
      <point x="289.4862068965518" y="49.10114942528736"/>
      <point x="218.25977011494254" y="49.10114942528736" type="curve" smooth="yes"/>
      <point x="143.11609195402298" y="49.10114942528736"/>
      <point x="109.68850574712643" y="101.09885057471266"/>
      <point x="109.68850574712643" y="159.0977011494253" type="curve"/>
      <point x="69.14022988505747" y="159.0977011494253"/>
      <point x="45.96896551724138" y="135.8229885057471"/>
      <point x="45.96896551724138" y="97.01034482758621" type="curve" smooth="yes"/>
      <point x="45.96896551724138" y="48.357471264367824"/>
      <point x="88.32758620689654" y="-10.0"/>
    </contour>
  </outline>
</glyph>
<glyph name="six" format="2">
  <advance width="517.5160919540231"/>
  <unicode hex="0036"/>
  <outline>
    <contour>
      <point x="271.34137931034485" y="-10.0" type="curve" smooth="yes"/>
      <point x="402.12068965517244" y="-10.0"/>
      <point x="475.45632183908043" y="88.0"/>
      <point x="475.45632183908043" y="229.4505747126437" type="curve" smooth="yes"/>
      <point x="475.45632183908043" y="357.63563218390806"/>
      <point x="402.12068965517244" y="434.63563218390806"/>
      <point x="290.5241379310345" y="434.63563218390806" type="curve" smooth="yes"/>
      <point x="228.46436781609196" y="434.63563218390806"/>
      <point x="187.61954022988505" y="410.1908045977012"/>
      <point x="159.17011494252876" y="385.635632183908" type="curve"/>
      <point x="165.08045977011494" y="573.6206896551724"/>
      <point x="210.18275862068967" y="673.635632183908"/>
      <point x="295.4" y="673.635632183908" type="curve" smooth="yes"/>
      <point x="352.16781609195397" y="673.635632183908"/>
      <point x="373.4114942528736" y="620.0563218390805"/>
      <point x="373.4114942528736" y="554.2609195402299" type="curve"/>
      <point x="429.8103448275862" y="554.2609195402299"/>
      <point x="456.6218390804598" y="578.6919540229885"/>
      <point x="456.6218390804598" y="617.7218390804597" type="curve" smooth="yes"/>
      <point x="456.6218390804598" y="672.5494252873563"/>
      <point x="406.60344827586204" y="724.0"/>
      <point x="298.17356321839077" y="724.0" type="curve" smooth="yes"/>
      <point x="130.30114942528738" y="724.0"/>
      <point x="51.326436781609196" y="561.8344827586207"/>
      <point x="51.326436781609196" y="346.91954022988506" type="curve" smooth="yes"/>
      <point x="51.326436781609196" y="97.0"/>
      <point x="143.4712643678161" y="-10.0"/>
    </contour>
    <contour>
      <point x="273.9747126436782" y="46.1" type="curve" smooth="yes"/>
      <point x="205.57586206896553" y="46.1"/>
      <point x="160.17011494252876" y="131.1425287356322"/>
      <point x="158.44597701149425" y="327.1402298850575" type="curve"/>
      <point x="180.46206896551723" y="352.45862068965516"/>
      <point x="220.24597701149426" y="381.9770114942529"/>
      <point x="266.9724137931035" y="381.9770114942529" type="curve" smooth="yes"/>
      <point x="331.82988505747124" y="381.9770114942529"/>
      <point x="367.9034482758621" y="332.36436781609194"/>
      <point x="367.9034482758621" y="219.4505747126437" type="curve" smooth="yes"/>
      <point x="367.9034482758621" y="99.00574712643679"/>
      <point x="333.932183908046" y="46.1"/>
    </contour>
  </outline>
</glyph>
<glyph name="seven" format="2">
  <advance width="517.5160919540231"/>
  <unicode hex="0037"/>
  <outline>
    <contour>
      <point x="164.45402298850576" y="0.0" type="line"/>
      <point x="238.25517241379313" y="0.0" type="line"/>
      <point x="475.84137931034485" y="679.8965517241379" type="line"/>
      <point x="475.84137931034485" y="713.1747126436782" type="line"/>
      <point x="54.37471264367816" y="713.1747126436782" type="line"/>
      <point x="49.37471264367816" y="525.9827586206897" type="line"/>
      <point x="95.63218390804599" y="525.9827586206897" type="line"/>
      <point x="100.08275862068966" y="574.9839080459769" type="line" smooth="yes"/>
      <point x="103.35862068965518" y="609.6149425287356"/>
      <point x="119.7183908045977" y="626.9827586206897"/>
      <point x="153.2528735632184" y="626.9827586206897" type="curve" smooth="yes"/>
      <point x="395.84597701149426" y="626.9827586206897" type="line"/>
    </contour>
  </outline>
</glyph>
<glyph name="eight" format="2">
  <advance width="517.5160919540231"/>
  <unicode hex="0038"/>
  <outline>
    <contour>
      <point x="253.44022988505748" y="-10.0" type="curve" smooth="yes"/>
      <point x="393.2103448275862" y="-10.0"/>
      <point x="480.08965517241376" y="62.864367816091956"/>
      <point x="480.08965517241376" y="186.2885057471264" type="curve" smooth="yes"/>
      <point x="480.08965517241376" y="278.5367816091954"/>
      <point x="423.53563218390804" y="334.41034482758624"/>
      <point x="327.82068965517243" y="382.8390804597702" type="curve"/>
      <point x="403.2402298850575" y="421.8965517241379"/>
      <point x="452.12413793103445" y="465.9103448275862"/>
      <point x="452.12413793103445" y="553.777011494253" type="curve" smooth="yes"/>
      <point x="452.12413793103445" y="652.548275862069"/>
      <point x="384.95402298850576" y="724.0"/>
      <point x="263.44252873563215" y="724.0" type="curve" smooth="yes"/>
      <point x="117.87931034482757" y="724.0"/>
      <point x="58.959770114942536" y="639.7482758620689"/>
      <point x="58.959770114942536" y="545.2724137931035" type="curve" smooth="yes"/>
      <point x="58.959770114942536" y="460.3862068965517"/>
      <point x="106.61954022988505" y="406.14597701149427"/>
      <point x="177.85632183908046" y="363.35517241379307" type="curve"/>
      <point x="97.97701149425288" y="323.5091954022989"/>
      <point x="38.05862068965517" y="273.9793103448276"/>
      <point x="38.05862068965517" y="177.32413793103447" type="curve" smooth="yes"/>
      <point x="38.05862068965517" y="73.18620689655172"/>
      <point x="108.75172413793103" y="-10.0"/>
    </contour>
    <contour>
      <point x="257.44137931034487" y="39.729885057471265" type="curve" smooth="yes"/>
      <point x="181.7574712643678" y="39.729885057471265"/>
      <point x="139.23218390804598" y="92.60114942528736"/>
      <point x="139.23218390804598" y="176.29540229885058" type="curve" smooth="yes"/>
      <point x="139.23218390804598" y="249.81494252873563"/>
      <point x="172.91149425287355" y="302.19425287356324"/>
      <point x="226.05287356321836" y="335.4850574712644" type="curve"/>
      <point x="335.9574712643678" y="281.3988505747127"/>
      <point x="379.0597701149425" y="236.69655172413792"/>
      <point x="379.0597701149425" y="168.6896551724138" type="curve" smooth="yes"/>
      <point x="379.0597701149425" y="91.16206896551725"/>
      <point x="330.64022988505747" y="39.729885057471265"/>
    </contour>
    <contour>
      <point x="279.0758620689656" y="408.00114942528734" type="curve"/>
      <point x="202.6758620689655" y="446.82183908045977"/>
      <point x="161.0448275862069" y="484.1402298850575"/>
      <point x="161.0448275862069" y="557.5758620689655" type="curve" smooth="yes"/>
      <point x="161.0448275862069" y="625.3988505747126"/>
      <point x="195.48275862068965" y="673.6367816091954"/>
      <point x="258.90919540229885" y="673.6367816091954" type="curve" smooth="yes"/>
      <point x="329.1425287356322" y="673.6367816091954"/>
      <point x="357.8229885057471" y="614.7758620689656"/>
      <point x="357.8229885057471" y="554.2091954022989" type="curve" smooth="yes"/>
      <point x="357.8229885057471" y="484.54137931034484"/>
      <point x="338.3816091954023" y="442.7206896551724"/>
    </contour>
  </outline>
</glyph>
<glyph name="nine" format="2">
  <advance width="517.5160919540231"/>
  <unicode hex="0039"/>
  <outline>
    <contour>
      <point x="210.27241379310345" y="-10.825287356321839" type="curve"/>
      <point x="393.2091954022989" y="-10.825287356321839"/>
      <point x="466.4551724137931" y="167.3896551724138"/>
      <point x="466.4551724137931" y="388.0" type="curve"/>
      <point x="466.4551724137931" y="624.5045977011495"/>
      <point x="372.22643678160915" y="724.0"/>
      <point x="244.26666666666668" y="724.0" type="curve" smooth="yes"/>
      <point x="116.95057471264369" y="724.0"/>
      <point x="42.05977011494253" y="623.6344827586207"/>
      <point x="42.05977011494253" y="481.0" type="curve" smooth="yes"/>
      <point x="42.05977011494253" y="346.99885057471266"/>
      <point x="117.29425287356322" y="276.99770114942527"/>
      <point x="224.15517241379314" y="276.99770114942527" type="curve" smooth="yes"/>
      <point x="288.68275862068964" y="276.99770114942527"/>
      <point x="333.7919540229885" y="309.58965517241376"/>
      <point x="359.9804597701149" y="343.7586206896551" type="curve"/>
      <point x="353.6126436781609" y="143.91379310344826"/>
      <point x="309.38965517241377" y="45.91379310344828"/>
      <point x="214.1712643678161" y="45.91379310344828" type="curve" smooth="yes"/>
      <point x="152.57126436781607" y="45.91379310344828"/>
      <point x="121.71609195402299" y="85.67241379310346"/>
      <point x="104.80574712643678" y="131.86666666666667" type="curve"/>
      <point x="83.33793103448276" y="125.68275862068965"/>
      <point x="69.86781609195403" y="105.98275862068967"/>
      <point x="69.86781609195403" y="79.98045977011495" type="curve" smooth="yes"/>
      <point x="69.86781609195403" y="34.87931034482758"/>
      <point x="104.29540229885056" y="-10.825287356321839"/>
    </contour>
    <contour>
      <point x="251.54367816091957" y="335.9172413793104" type="curve" smooth="yes"/>
      <point x="183.7770114942529" y="336.71379310344827"/>
      <point x="150.23563218390805" y="384.45747126436777"/>
      <point x="150.23563218390805" y="488.0" type="curve" smooth="yes"/>
      <point x="150.23563218390805" y="604.3540229885058"/>
      <point x="185.1344827586207" y="667.6241379310345"/>
      <point x="247.08505747126432" y="667.6241379310345" type="curve" smooth="yes"/>
      <point x="315.02643678160916" y="667.6241379310345"/>
      <point x="358.3471264367816" y="591.2252873563218"/>
      <point x="360.9701149425287" y="408.95862068965516" type="curve"/>
      <point x="343.55632183908045" y="372.1471264367816"/>
      <point x="307.21379310344827" y="336.71379310344827"/>
    </contour>
  </outline>
</glyph>
<glyph name="colon" format="2">
  <advance width="267.57471264367814"/>
  <unicode hex="003A"/>
  <outline>
    <contour>
      <point x="134.14482758620687" y="401.2528735632184" type="curve" smooth="yes"/>
      <point x="168.23563218390805" y="401.2528735632184"/>
      <point x="197.783908045977" y="418.08160919540234"/>
      <point x="197.783908045977" y="469.99655172413793" type="curve" smooth="yes"/>
      <point x="197.783908045977" y="522.6459770114942"/>
      <point x="168.23563218390805" y="538.7402298850575"/>
      <point x="134.14482758620687" y="538.7402298850575" type="curve" smooth="yes"/>
      <point x="98.51264367816091" y="538.7402298850575"/>
      <point x="70.60689655172413" y="522.6459770114942"/>
      <point x="70.60689655172413" y="469.99655172413793" type="curve" smooth="yes"/>
      <point x="70.60689655172413" y="418.08160919540234"/>
      <point x="98.51264367816091" y="401.2528735632184"/>
    </contour>
    <contour>
      <point x="134.14482758620687" y="-7.174712643678161" type="curve" smooth="yes"/>
      <point x="168.23563218390805" y="-7.174712643678161"/>
      <point x="197.783908045977" y="9.818390804597701"/>
      <point x="197.783908045977" y="61.834482758620695" type="curve" smooth="yes"/>
      <point x="197.783908045977" y="114.38275862068966"/>
      <point x="168.23563218390805" y="130.84367816091952"/>
      <point x="134.14482758620687" y="130.84367816091952" type="curve" smooth="yes"/>
      <point x="98.51264367816091" y="130.84367816091952"/>
      <point x="70.60689655172413" y="114.38275862068966"/>
      <point x="70.60689655172413" y="61.834482758620695" type="curve" smooth="yes"/>
      <point x="70.60689655172413" y="9.818390804597701"/>
      <point x="98.51264367816091" y="-7.174712643678161"/>
    </contour>
  </outline>
</glyph>
<glyph name="semicolon" format="2">
  <advance width="267.57471264367814"/>
  <unicode hex="003B"/>
  <outline>
    <contour>
      <point x="46.42873563218391" y="-154.0" type="line"/>
      <point x="158.5" y="-119.99885057471263"/>
      <point x="200.67126436781612" y="-45.89540229885057"/>
      <point x="200.67126436781612" y="36.84137931034483" type="curve" smooth="yes"/>
      <point x="200.67126436781612" y="96.48045977011493"/>
      <point x="169.07126436781613" y="130.84367816091952"/>
      <point x="125.80459770114943" y="130.84367816091952" type="curve" smooth="yes"/>
      <point x="91.53218390804598" y="130.84367816091952"/>
      <point x="64.96781609195403" y="109.38275862068966"/>
      <point x="64.96781609195403" y="71.28505747126437" type="curve" smooth="yes"/>
      <point x="64.96781609195403" y="7.812643678160919"/>
      <point x="130.7735632183908" y="14.734482758620691"/>
      <point x="130.7735632183908" y="-23.71494252873563" type="curve" smooth="yes"/>
      <point x="130.7735632183908" y="-61.716091954022986"/>
      <point x="103.50459770114942" y="-90.44137931034483"/>
      <point x="46.42873563218391" y="-110.80919540229885" type="curve"/>
    </contour>
    <contour>
      <point x="134.14482758620687" y="401.2528735632184" type="curve" smooth="yes"/>
      <point x="168.60229885057473" y="401.2528735632184"/>
      <point x="197.783908045977" y="418.08160919540234"/>
      <point x="197.783908045977" y="469.99655172413793" type="curve" smooth="yes"/>
      <point x="197.783908045977" y="522.6459770114942"/>
      <point x="168.60229885057473" y="538.7402298850575"/>
      <point x="134.14482758620687" y="538.7402298850575" type="curve" smooth="yes"/>
      <point x="98.51264367816091" y="538.7402298850575"/>
      <point x="70.60689655172413" y="522.6459770114942"/>
      <point x="70.60689655172413" y="469.99655172413793" type="curve" smooth="yes"/>
      <point x="70.60689655172413" y="418.08160919540234"/>
      <point x="98.51264367816091" y="401.2528735632184"/>
    </contour>
  </outline>
</glyph>
<glyph name="less" format="2">
  <advance width="509.8666666666667"/>
  <unicode hex="003C"/>
  <outline>
    <contour>
      <point x="453.43908045977014" y="108.81264367816091" type="line"/>
      <point x="453.43908045977014" y="178.55402298850575" type="line"/>
      <point x="146.85402298850573" y="357.0" type="line"/>
      <point x="453.43908045977014" y="537.7114942528735" type="line"/>
      <point x="453.43908045977014" y="607.1873563218392" type="line"/>
      <point x="56.42758620689656" y="375.7264367816092" type="line"/>
      <point x="56.42758620689656" y="339.2735632183908" type="line"/>
    </contour>
  </outline>
</glyph>
<glyph name="equal" format="2">
  <advance width="509.8666666666667"/>
  <unicode hex="003D"/>
  <outline>
    <contour>
      <point x="55.875862068965525" y="422.76666666666665" type="line"/>
      <point x="453.9908045977012" y="422.76666666666665" type="line"/>
      <point x="453.9908045977012" y="484.232183908046" type="line"/>
      <point x="55.875862068965525" y="484.232183908046" type="line"/>
    </contour>
    <contour>
      <point x="55.875862068965525" y="229.76781609195402" type="line"/>
      <point x="453.9908045977012" y="229.76781609195402" type="line"/>
      <point x="453.9908045977012" y="291.23333333333335" type="line"/>
      <point x="55.875862068965525" y="291.23333333333335" type="line"/>
    </contour>
  </outline>
</glyph>
<glyph name="greater" format="2">
  <advance width="509.8666666666667"/>
  <unicode hex="003E"/>
  <outline>
    <contour>
      <point x="56.42758620689656" y="108.81264367816091" type="line"/>
      <point x="453.43908045977014" y="339.2735632183908" type="line"/>
      <point x="453.43908045977014" y="375.7264367816092" type="line"/>
      <point x="56.42758620689656" y="607.1873563218392" type="line"/>
      <point x="56.42758620689656" y="537.7114942528735" type="line"/>
      <point x="362.64597701149427" y="357.0" type="line"/>
      <point x="56.42758620689656" y="178.55402298850575" type="line"/>
    </contour>
  </outline>
</glyph>
<glyph name="question" format="2">
  <advance width="480.919540229885"/>
  <unicode hex="003F"/>
  <outline>
    <contour>
      <point x="189.55172413793105" y="209.86436781609194" type="line"/>
      <point x="241.92873563218393" y="209.86436781609194" type="line"/>
      <point x="251.46666666666667" y="318.17356321839077" type="line"/>
      <point x="369.14942528735634" y="369.8091954022988"/>
      <point x="430.68735632183905" y="433.99885057471266"/>
      <point x="430.68735632183905" y="543.5379310344829" type="curve" smooth="yes"/>
      <point x="430.68735632183905" y="657.7229885057473"/>
      <point x="344.1862068965517" y="724.0"/>
      <point x="221.1793103448276" y="724.0" type="curve" smooth="yes"/>
      <point x="97.11379310344827" y="724.0"/>
      <point x="38.34827586206897" y="674.1356321839081"/>
      <point x="38.34827586206897" y="610.7954022988506" type="curve" smooth="yes"/>
      <point x="38.34827586206897" y="566.0850574712643"/>
      <point x="76.82068965517242" y="546.0091954022989"/>
      <point x="132.1896551724138" y="546.0091954022989" type="curve"/>
      <point x="132.1896551724138" y="617.3758620689655"/>
      <point x="156.58275862068967" y="672.635632183908"/>
      <point x="226.0816091954023" y="672.635632183908" type="curve" smooth="yes"/>
      <point x="290.1218390804598" y="672.635632183908"/>
      <point x="318.5770114942529" y="623.8241379310346"/>
      <point x="318.5770114942529" y="555.1034482758621" type="curve" smooth="yes"/>
      <point x="318.5770114942529" y="473.116091954023"/>
      <point x="287.06666666666666" y="397.2758620689655"/>
      <point x="180.38045977011492" y="350.28620689655173" type="curve"/>
    </contour>
    <contour>
      <point x="214.55632183908045" y="-7.174712643678161" type="curve" smooth="yes"/>
      <point x="249.17816091954026" y="-7.174712643678161"/>
      <point x="278.72643678160915" y="9.818390804597701"/>
      <point x="278.72643678160915" y="61.834482758620695" type="curve" smooth="yes"/>
      <point x="278.72643678160915" y="114.38275862068966"/>
      <point x="249.17816091954026" y="130.84367816091952"/>
      <point x="214.55632183908045" y="130.84367816091952" type="curve" smooth="yes"/>
      <point x="179.18965517241378" y="130.84367816091952"/>
      <point x="151.18275862068967" y="114.38275862068966"/>
      <point x="151.18275862068967" y="61.834482758620695" type="curve" smooth="yes"/>
      <point x="151.18275862068967" y="9.818390804597701"/>
      <point x="179.18965517241378" y="-7.174712643678161"/>
    </contour>
  </outline>
</glyph>
<glyph name="bracketleft" format="2">
  <advance width="350.72183908045974"/>
  <unicode hex="005B"/>
  <outline>
    <contour>
      <point x="92.5022988505747" y="-128.0" type="line"/>
      <point x="316.5540229885058" y="-128.0" type="line"/>
      <point x="316.5540229885058" y="-83.63563218390803" type="line"/>
      <point x="276.7528735632184" y="-83.63563218390803" type="line" smooth="yes"/>
      <point x="235.21724137931037" y="-83.63563218390803"/>
      <point x="200.78390804597703" y="-74.63563218390803"/>
      <point x="200.78390804597703" y="-11.635632183908045" type="curve" smooth="yes"/>
      <point x="200.78390804597703" y="643.635632183908" type="line" smooth="yes"/>
      <point x="200.78390804597703" y="706.635632183908"/>
      <point x="235.21724137931037" y="715.635632183908"/>
      <point x="276.7528735632184" y="715.635632183908" type="curve" smooth="yes"/>
      <point x="316.5540229885058" y="715.635632183908" type="line"/>
      <point x="316.5540229885058" y="760.0" type="line"/>
      <point x="92.5022988505747" y="760.0" type="line"/>
    </contour>
  </outline>
</glyph>
<glyph name="backslash" format="2">
  <advance width="266.7080459770115"/>
  <unicode hex="005C"/>
  <outline>
    <contour>
      <point x="207.99080459770116" y="-121.0" type="line"/>
      <point x="266.7080459770115" y="-121.0" type="line"/>
      <point x="58.08390804597701" y="760.0" type="line"/>
      <point x="0.0" y="760.0" type="line"/>
    </contour>
  </outline>
</glyph>
<glyph name="bracketright" format="2">
  <advance width="350.72183908045974"/>
  <unicode hex="005D"/>
  <outline>
    <contour>
      <point x="34.43333333333334" y="-128.0" type="line"/>
      <point x="258.21954022988507" y="-128.0" type="line"/>
      <point x="258.21954022988507" y="760.0" type="line"/>
      <point x="34.43333333333334" y="760.0" type="line"/>
      <point x="34.43333333333334" y="715.635632183908" type="line"/>
      <point x="73.96896551724137" y="715.635632183908" type="line" smooth="yes"/>
      <point x="115.77011494252874" y="715.635632183908"/>
      <point x="149.93793103448274" y="706.635632183908"/>
      <point x="149.93793103448274" y="643.635632183908" type="curve" smooth="yes"/>
      <point x="149.93793103448274" y="-11.635632183908045" type="line" smooth="yes"/>
      <point x="149.93793103448274" y="-74.63563218390803"/>
      <point x="115.77011494252874" y="-83.63563218390803"/>
      <point x="73.96896551724137" y="-83.63563218390803" type="curve" smooth="yes"/>
      <point x="34.43333333333334" y="-83.63563218390803" type="line"/>
    </contour>
  </outline>
</glyph>
<glyph name="asciicircum" format="2">
  <advance width="509.8666666666667"/>
  <unicode hex="005E"/>
  <outline>
    <contour>
      <point x="41.61724137931034" y="265.36436781609194" type="line"/>
      <point x="107.04942528735633" y="265.36436781609194" type="line"/>
      <point x="253.43333333333334" y="618.3471264367815" type="line"/>
      <point x="401.5517241379311" y="265.36436781609194" type="line"/>
      <point x="467.2494252873563" y="265.36436781609194" type="line"/>
      <point x="271.33563218390805" y="714.0" type="line"/>
      <point x="236.5310344827586" y="714.0" type="line"/>
    </contour>
  </outline>
</glyph>
<glyph name="underscore" format="2">
  <advance width="424.54597701149424"/>
  <unicode hex="005F"/>
  <outline>
    <contour>
      <point x="-4.73448275862069" y="-142.0" type="line"/>
      <point x="429.17931034482757" y="-142.0" type="line"/>
      <point x="429.17931034482757" y="-83.0" type="line"/>
      <point x="-4.73448275862069" y="-83.0" type="line"/>
    </contour>
  </outline>
</glyph>
<glyph name="braceleft" format="2">
  <advance width="400.56896551724145"/>
  <unicode hex="007B"/>
  <outline>
    <contour>
      <point x="290.5195402298851" y="-127.2735632183908" type="curve" smooth="yes"/>
      <point x="360.8781609195402" y="-127.2735632183908" type="line"/>
      <point x="360.8781609195402" y="-82.083908045977" type="line"/>
      <point x="330.32988505747124" y="-82.083908045977" type="line" smooth="yes"/>
      <point x="276.4459770114942" y="-82.083908045977"/>
      <point x="257.8252873563218" y="-45.635632183908044"/>
      <point x="257.8252873563218" y="21.18735632183908" type="curve" smooth="yes"/>
      <point x="257.8252873563218" y="193.63563218390803" type="line" smooth="yes"/>
      <point x="257.8252873563218" y="258.5494252873563"/>
      <point x="225.66781609195402" y="302.36206896551727"/>
      <point x="155.59770114942526" y="316.5494252873563" type="curve"/>
      <point x="155.59770114942526" y="319.2781609195402" type="line"/>
      <point x="225.0264367816092" y="332.36436781609194"/>
      <point x="257.8252873563218" y="376.63563218390806"/>
      <point x="257.8252873563218" y="440.82528735632184" type="curve" smooth="yes"/>
      <point x="257.8252873563218" y="611.5494252873563" type="line" smooth="yes"/>
      <point x="257.8252873563218" y="679.3620689655172"/>
      <point x="276.4459770114942" y="714.9114942528736"/>
      <point x="330.32988505747124" y="714.9114942528736" type="curve" smooth="yes"/>
      <point x="360.8781609195402" y="714.9114942528736" type="line"/>
      <point x="360.8781609195402" y="760.0" type="line"/>
      <point x="290.5195402298851" y="760.0" type="line" smooth="yes"/>
      <point x="197.62298850574714" y="760.0"/>
      <point x="148.37701149425286" y="707.8252873563218"/>
      <point x="148.37701149425286" y="616.2735632183908" type="curve" smooth="yes"/>
      <point x="148.37701149425286" y="442.82528735632184" type="line" smooth="yes"/>
      <point x="148.37701149425286" y="363.2781609195402"/>
      <point x="100.85057471264368" y="342.36436781609194"/>
      <point x="39.690804597701145" y="340.36436781609194" type="curve"/>
      <point x="39.690804597701145" y="294.36206896551727" type="line"/>
      <point x="100.85057471264368" y="291.36206896551727"/>
      <point x="148.37701149425286" y="271.5494252873563"/>
      <point x="148.37701149425286" y="190.63563218390803" type="curve" smooth="yes"/>
      <point x="148.37701149425286" y="17.728735632183906" type="line" smooth="yes"/>
      <point x="148.37701149425286" y="-71.36436781609196"/>
      <point x="197.62298850574714" y="-127.2735632183908"/>
    </contour>
  </outline>
</glyph>
<glyph name="bar" format="2">
  <advance width="517.5160919540231"/>
  <unicode hex="007C"/>
  <outline>
    <contour>
      <point x="228.35402298850576" y="-240.0" type="line"/>
      <point x="288.1620689655172" y="-240.0" type="line"/>
      <point x="288.1620689655172" y="760.0" type="line"/>
      <point x="228.35402298850576" y="760.0" type="line"/>
    </contour>
  </outline>
</glyph>
<glyph name="braceright" format="2">
  <advance width="400.56896551724145"/>
  <unicode hex="007D"/>
  <outline>
    <contour>
      <point x="39.690804597701145" y="-127.2735632183908" type="line"/>
      <point x="110.31494252873563" y="-127.2735632183908" type="line" smooth="yes"/>
      <point x="203.21149425287354" y="-127.2735632183908"/>
      <point x="252.1919540229885" y="-71.36436781609196"/>
      <point x="252.1919540229885" y="17.728735632183906" type="curve" smooth="yes"/>
      <point x="252.1919540229885" y="190.63563218390803" type="line" smooth="yes"/>
      <point x="252.1919540229885" y="271.5494252873563"/>
      <point x="300.451724137931" y="291.36206896551727"/>
      <point x="360.8781609195402" y="294.36206896551727" type="curve"/>
      <point x="360.8781609195402" y="340.36436781609194" type="line"/>
      <point x="300.451724137931" y="342.36436781609194"/>
      <point x="252.1919540229885" y="363.2781609195402"/>
      <point x="252.1919540229885" y="442.82528735632184" type="curve" smooth="yes"/>
      <point x="252.1919540229885" y="616.2735632183908" type="line" smooth="yes"/>
      <point x="252.1919540229885" y="707.8252873563218"/>
      <point x="203.21149425287354" y="760.0"/>
      <point x="110.31494252873563" y="760.0" type="curve" smooth="yes"/>
      <point x="39.690804597701145" y="760.0" type="line"/>
      <point x="39.690804597701145" y="714.9114942528736" type="line"/>
      <point x="70.50459770114942" y="714.9114942528736" type="line" smooth="yes"/>
      <point x="124.65402298850576" y="714.9114942528736"/>
      <point x="142.7436781609195" y="679.3620689655172"/>
      <point x="142.7436781609195" y="611.5494252873563" type="curve" smooth="yes"/>
      <point x="142.7436781609195" y="440.82528735632184" type="line" smooth="yes"/>
      <point x="142.7436781609195" y="376.63563218390806"/>
      <point x="175.8080459770115" y="332.36436781609194"/>
      <point x="245.60344827586204" y="319.2781609195402" type="curve"/>
      <point x="245.60344827586204" y="316.5494252873563" type="line"/>
      <point x="174.63563218390806" y="302.36206896551727"/>
      <point x="142.7436781609195" y="258.5494252873563"/>
      <point x="142.7436781609195" y="193.63563218390803" type="curve" smooth="yes"/>
      <point x="142.7436781609195" y="21.18735632183908" type="line" smooth="yes"/>
      <point x="142.7436781609195" y="-45.635632183908044"/>
      <point x="124.65402298850576" y="-82.083908045977"/>
      <point x="70.50459770114942" y="-82.083908045977" type="curve" smooth="yes"/>
      <point x="39.690804597701145" y="-82.083908045977" type="line"/>
    </contour>
  </outline>
</glyph>
<glyph name="asciitilde" format="2">
  <advance width="509.8666666666667"/>
  <unicode hex="007E"/>
  <outline>
    <contour>
      <point x="42.6896551724138" y="267.53678160919543" type="curve"/>
      <point x="103.04827586206898" y="267.53678160919543" type="line"/>
      <point x="108.59540229885057" y="347.36321839080455"/>
      <point x="124.85517241379308" y="384.53563218390804"/>
      <point x="160.99540229885056" y="384.53563218390804" type="curve" smooth="yes"/>
      <point x="186.20459770114942" y="384.53563218390804"/>
      <point x="204.25632183908044" y="365.8528735632184"/>
      <point x="237.548275862069" y="331.6195402298851" type="curve" smooth="yes"/>
      <point x="280.9367816091954" y="285.92413793103447"/>
      <point x="311.67356321839077" y="267.53678160919543"/>
      <point x="351.7413793103448" y="267.53678160919543" type="curve" smooth="yes"/>
      <point x="438.4206896551724" y="267.53678160919543"/>
      <point x="461.3793103448276" y="364.08160919540234"/>
      <point x="467.5425287356322" y="445.7287356321839" type="curve"/>
      <point x="406.18390804597703" y="445.7287356321839" type="line"/>
      <point x="399.7367816091954" y="368.15977011494255"/>
      <point x="384.93563218390807" y="328.8310344827586"/>
      <point x="350.85172413793106" y="328.8310344827586" type="curve" smooth="yes"/>
      <point x="326.55057471264365" y="328.8310344827586"/>
      <point x="307.35057471264366" y="349.3137931034483"/>
      <point x="276.6114942528735" y="379.45287356321836" type="curve" smooth="yes"/>
      <point x="231.43793103448277" y="423.0252873563218"/>
      <point x="202.86091954022987" y="445.7287356321839"/>
      <point x="159.54597701149427" y="445.7287356321839" type="curve" smooth="yes"/>
      <point x="69.94827586206895" y="445.7287356321839"/>
      <point x="47.695402298850574" y="351.9126436781609"/>
    </contour>
  </outline>
</glyph>
<glyph name="twosuperior" format="2">
  <advance width="370.21149425287354"/>
  <unicode hex="00B2"/>
  <outline>
    <contour>
      <point x="35.752873563218394" y="387.0" type="line"/>
      <point x="323.4609195402299" y="387.0" type="line"/>
      <point x="326.37011494252874" y="514.2586206896551" type="line"/>
      <point x="295.74022988505743" y="514.2586206896551" type="line"/>
      <point x="291.4643678160919" y="491.6034482758621" type="line"/>
      <point x="287.4643678160919" y="470.064367816092"/>
      <point x="279.1873563218391" y="452.70919540229886"/>
      <point x="251.48045977011492" y="452.70919540229886" type="curve"/>
      <point x="107.24827586206897" y="452.70919540229886" type="line"/>
      <point x="195.17241379310343" y="533.4287356321839" type="line"/>
      <point x="284.5068965517242" y="609.9333333333334"/>
      <point x="314.3586206896552" y="649.9045977011494"/>
      <point x="314.3586206896552" y="714.4057471264367" type="curve" smooth="yes"/>
      <point x="314.3586206896552" y="783.9620689655172"/>
      <point x="266.0735632183908" y="824.7344827586206"/>
      <point x="175.06781609195403" y="824.7344827586206" type="curve" smooth="yes"/>
      <point x="87.44597701149426" y="824.7344827586206"/>
      <point x="43.08275862068965" y="787.5333333333333"/>
      <point x="43.08275862068965" y="740.0643678160919" type="curve" smooth="yes"/>
      <point x="43.08275862068965" y="706.0942528735632"/>
      <point x="70.03908045977012" y="694.4862068965517"/>
      <point x="113.28390804597703" y="694.4862068965517" type="curve"/>
      <point x="113.28390804597703" y="745.0126436781609"/>
      <point x="127.65402298850576" y="784.9482758620691"/>
      <point x="172.4632183908046" y="784.9482758620691" type="curve" smooth="yes"/>
      <point x="210.71724137931034" y="784.9482758620691"/>
      <point x="226.62298850574714" y="754.9425287356322"/>
      <point x="226.62298850574714" y="709.8908045977012" type="curve" smooth="yes"/>
      <point x="226.62298850574714" y="652.2804597701149"/>
      <point x="204.3965517241379" y="603.0229885057471"/>
      <point x="147.87241379310345" y="548.0114942528736" type="curve" smooth="yes"/>
      <point x="35.752873563218394" y="438.67701149425284" type="line"/>
    </contour>
  </outline>
</glyph>
<glyph name="threesuperior" format="2">
  <advance width="370.21149425287354"/>
  <unicode hex="00B3"/>
  <outline>
    <contour>
      <point x="160.9977011494253" y="380.0" type="curve" smooth="yes"/>
      <point x="244.5333333333333" y="380.0"/>
      <point x="328.57931034482755" y="417.4379310344828"/>
      <point x="328.57931034482755" y="510.00114942528734" type="curve" smooth="yes"/>
      <point x="328.57931034482755" y="579.9022988505748"/>
      <point x="273.62068965517244" y="603.0908045977012"/>
      <point x="220.82183908045977" y="612.0" type="curve"/>
      <point x="220.82183908045977" y="616.2666666666667" type="line"/>
      <point x="272.5540229885058" y="631.9"/>
      <point x="312.9448275862069" y="665.9"/>
      <point x="312.9448275862069" y="724.2666666666667" type="curve" smooth="yes"/>
      <point x="312.9448275862069" y="786.2666666666667"/>
      <point x="260.8379310344827" y="823.7344827586206"/>
      <point x="174.03218390804597" y="823.7344827586206" type="curve" smooth="yes"/>
      <point x="86.0712643678161" y="823.7344827586206"/>
      <point x="41.09425287356322" y="784.9367816091954"/>
      <point x="41.09425287356322" y="738.3931034482758" type="curve" smooth="yes"/>
      <point x="41.09425287356322" y="704.9229885057472"/>
      <point x="67.1735632183908" y="695.7218390804597"/>
      <point x="110.38620689655173" y="695.7218390804597" type="curve"/>
      <point x="110.38620689655173" y="743.7195402298852"/>
      <point x="122.99080459770114" y="784.1505747126438"/>
      <point x="170.61034482758623" y="784.1505747126438" type="curve" smooth="yes"/>
      <point x="208.11149425287357" y="784.1505747126438"/>
      <point x="224.48505747126438" y="760.7931034482759"/>
      <point x="224.48505747126438" y="716.3563218390806" type="curve" smooth="yes"/>
      <point x="224.48505747126438" y="663.6425287356321"/>
      <point x="192.1379310344828" y="630.1954022988505"/>
      <point x="143.44022988505748" y="630.1954022988505" type="curve" smooth="yes"/>
      <point x="111.80574712643678" y="630.1954022988505" type="line"/>
      <point x="111.80574712643678" y="588.9689655172415" type="line"/>
      <point x="142.8080459770115" y="588.9689655172415" type="line" smooth="yes"/>
      <point x="210.73793103448278" y="588.9689655172415"/>
      <point x="239.7080459770115" y="559.1540229885059"/>
      <point x="239.7080459770115" y="511.2770114942528" type="curve" smooth="yes"/>
      <point x="239.7080459770115" y="449.0149425287356"/>
      <point x="206.5873563218391" y="424.49310344827586"/>
      <point x="157.92528735632183" y="424.49310344827586" type="curve" smooth="yes"/>
      <point x="103.97586206896553" y="424.49310344827586"/>
      <point x="80.64942528735632" y="466.3137931034483"/>
      <point x="80.64942528735632" y="510.6080459770115" type="curve"/>
      <point x="49.80689655172414" y="510.6080459770115"/>
      <point x="32.219540229885055" y="492.0816091954023"/>
      <point x="32.219540229885055" y="462.40459770114944" type="curve" smooth="yes"/>
      <point x="32.219540229885055" y="413.40459770114944"/>
      <point x="75.65402298850574" y="380.0"/>
    </contour>
  </outline>
</glyph>
<glyph name="multiply" format="2">
  <advance width="509.8666666666667"/>
  <unicode hex="00D7"/>
  <outline>
    <contour>
      <point x="106.98850574712644" y="152.82183908045977" type="line"/>
      <point x="255.3310344827586" y="313.26206896551724" type="line"/>
      <point x="403.64597701149427" y="153.0241379310345" type="line"/>
      <point x="448.0172413793103" y="194.46206896551723" type="line"/>
      <point x="297.135632183908" y="358.10114942528736" type="line"/>
      <point x="448.0172413793103" y="521.3735632183908" type="line"/>
      <point x="403.37011494252874" y="563.4448275862069" type="line"/>
      <point x="255.3310344827586" y="403.38045977011495" type="line"/>
      <point x="107.3551724137931" y="563.2793103448276" type="line"/>
      <point x="62.44252873563219" y="521.8413793103449" type="line"/>
      <point x="213.61724137931034" y="358.7344827586207" type="line"/>
      <point x="62.44252873563219" y="194.62758620689655" type="line"/>
    </contour>
  </outline>
</glyph>
<glyph name="divide" format="2">
  <advance width="509.8666666666667"/>
  <unicode hex="00F7"/>
  <outline>
    <contour>
      <point x="56.42758620689656" y="326.81264367816095" type="line"/>
      <point x="453.43908045977014" y="326.81264367816095" type="line"/>
      <point x="453.43908045977014" y="388.18735632183905" type="line"/>
      <point x="56.42758620689656" y="388.18735632183905" type="line"/>
    </contour>
    <contour>
      <point x="255.43333333333334" y="111.81264367816091" type="curve" smooth="yes"/>
      <point x="282.69310344827585" y="111.81264367816091"/>
      <point x="304.87931034482756" y="126.36436781609196"/>
      <point x="304.87931034482756" y="168.0" type="curve" smooth="yes"/>
      <point x="304.87931034482756" y="210.63563218390803"/>
      <point x="282.69310344827585" y="224.18735632183908"/>
      <point x="255.43333333333334" y="224.18735632183908" type="curve" smooth="yes"/>
      <point x="227.07241379310346" y="224.18735632183908"/>
      <point x="205.6206896551724" y="210.63563218390803"/>
      <point x="205.6206896551724" y="168.0" type="curve" smooth="yes"/>
      <point x="205.6206896551724" y="126.36436781609196"/>
      <point x="227.07241379310346" y="111.81264367816091"/>
    </contour>
    <contour>
      <point x="255.43333333333334" y="490.81264367816095" type="curve" smooth="yes"/>
      <point x="282.69310344827585" y="490.81264367816095"/>
      <point x="304.87931034482756" y="505.36436781609194"/>
      <point x="304.87931034482756" y="547.0" type="curve" smooth="yes"/>
      <point x="304.87931034482756" y="589.6356321839081"/>
      <point x="282.69310344827585" y="603.1873563218392"/>
      <point x="255.43333333333334" y="603.1873563218392" type="curve" smooth="yes"/>
      <point x="227.07241379310346" y="603.1873563218392"/>
      <point x="205.6206896551724" y="589.6356321839081"/>
      <point x="205.6206896551724" y="547.0" type="curve" smooth="yes"/>
      <point x="205.6206896551724" y="505.36436781609194"/>
      <point x="227.07241379310346" y="490.81264367816095"/>
    </contour>
  </outline>
</glyph>
<glyph name="udatta-deva" format="2">
  <unicode hex="0951"/>
  <anchor x="0.0" y="556.6850574712644" name="_vedic"/>
  <outline>
    <contour>
      <point x="-29.04367816091954" y="919.0011494252874" type="line"/>
      <point x="29.04367816091954" y="919.0011494252874" type="line"/>
      <point x="29.04367816091954" y="1116.355172413793" type="line"/>
      <point x="-29.04367816091954" y="1116.355172413793" type="line"/>
    </contour>
  </outline>
</glyph>
<glyph name="anudatta-deva" format="2">
  <unicode hex="0952"/>
  <anchor x="0.0" y="0.0" name="_bottom"/>
  <outline>
    <contour>
      <point x="-204.33333333333331" y="-548.9586206896552" type="line"/>
      <point x="204.33333333333331" y="-548.9586206896552" type="line"/>
      <point x="204.33333333333331" y="-476.1471264367816" type="line"/>
      <point x="-204.33333333333331" y="-476.1471264367816" type="line"/>
    </contour>
  </outline>
</glyph>
<glyph name="danda-deva" format="2">
  <advance width="294.43793103448274"/>
  <unicode hex="0964"/>
  <outline>
    <contour>
      <point x="91.7896551724138" y="0.0" type="line"/>
      <point x="202.5471264367816" y="0.0" type="line"/>
      <point x="202.5471264367816" y="556.6850574712644" type="line"/>
      <point x="91.7896551724138" y="556.6850574712644" type="line"/>
    </contour>
  </outline>
</glyph>
<glyph name="dbldanda-deva" format="2">
  <advance width="531.9195402298851"/>
  <unicode hex="0965"/>
  <outline>
    <contour>
      <point x="329.3724137931034" y="0.0" type="line"/>
      <point x="440.12988505747126" y="0.0" type="line"/>
      <point x="440.12988505747126" y="556.6850574712644" type="line"/>
      <point x="329.3724137931034" y="556.6850574712644" type="line"/>
    </contour>
    <contour>
      <point x="91.7896551724138" y="0.0" type="line"/>
      <point x="202.5471264367816" y="0.0" type="line"/>
      <point x="202.5471264367816" y="556.6850574712644" type="line"/>
      <point x="91.7896551724138" y="556.6850574712644" type="line"/>
    </contour>
  </outline>
</glyph>
<glyph name="anusvara-tamil" format="2">
  <unicode hex="0B82"/>
  <note>
uni0B82
</note>
  <anchor x="0.0" y="556.6850574712644" name="_top"/>
  <outline>
    <contour>
      <point x="0.0" y="630.2229885057471" type="curve" smooth="yes"/>
      <point x="69.01839080459769" y="630.2229885057471"/>
      <point x="120.9367816091954" y="678.7747126436782"/>
      <point x="120.9367816091954" y="748.5827586206896" type="curve" smooth="yes"/>
      <point x="120.9367816091954" y="818.583908045977"/>
      <point x="69.01839080459769" y="867.3"/>
      <point x="0.0" y="867.3" type="curve" smooth="yes"/>
      <point x="-69.01839080459769" y="867.3"/>
      <point x="-120.9367816091954" y="818.583908045977"/>
      <point x="-120.9367816091954" y="748.5827586206896" type="curve" smooth="yes"/>
      <point x="-120.9367816091954" y="678.7747126436782"/>
      <point x="-69.01839080459769" y="630.2229885057471"/>
    </contour>
    <contour>
      <point x="0.0" y="689.8597701149424" type="curve" smooth="yes"/>
      <point x="-33.01149425287356" y="689.8597701149424"/>
      <point x="-57.209195402298846" y="714.2218390804597"/>
      <point x="-57.209195402298846" y="748.5827586206896" type="curve" smooth="yes"/>
      <point x="-57.209195402298846" y="783.2275862068966"/>
      <point x="-33.01149425287356" y="807.5896551724137"/>
      <point x="0.0" y="807.5896551724137" type="curve" smooth="yes"/>
      <point x="33.01149425287356" y="807.5896551724137"/>
      <point x="57.209195402298846" y="783.2275862068966"/>
      <point x="57.209195402298846" y="748.5827586206896" type="curve" smooth="yes"/>
      <point x="57.209195402298846" y="714.2218390804597"/>
      <point x="33.01149425287356" y="689.8597701149424"/>
    </contour>
  </outline>
</glyph>
<glyph name="visarga-tamil" format="2">
  <advance width="832.6482758620689"/>
  <unicode hex="0B83"/>
  <note>
uni0B83
</note>
  <outline>
    <contour>
      <point x="617.032183908046" y="-1.0758620689655176" type="curve" smooth="yes"/>
      <point x="711.3068965517242" y="-1.0758620689655176"/>
      <point x="778.8735632183908" y="73.31724137931035"/>
      <point x="778.8735632183908" y="184.9264367816092" type="curve" smooth="yes"/>
      <point x="778.8735632183908" y="295.71034482758625"/>
      <point x="711.5724137931034" y="369.92873563218393"/>
      <point x="617.4999999999999" y="369.92873563218393" type="curve" smooth="yes"/>
      <point x="522.9172413793103" y="369.92873563218393"/>
      <point x="460.8287356321839" y="293.35632183908046"/>
      <point x="460.8287356321839" y="184.62298850574712" type="curve" smooth="yes"/>
      <point x="460.8287356321839" y="75.46896551724139"/>
      <point x="522.3482758620689" y="-1.0758620689655176"/>
    </contour>
    <contour>
      <point x="210.26436781609195" y="-1.0758620689655176" type="curve" smooth="yes"/>
      <point x="304.5390804597701" y="-1.0758620689655176"/>
      <point x="371.82988505747124" y="73.31724137931035"/>
      <point x="371.82988505747124" y="184.9264367816092" type="curve" smooth="yes"/>
      <point x="371.82988505747124" y="295.71034482758625"/>
      <point x="304.70344827586206" y="369.92873563218393"/>
      <point x="210.63103448275862" y="369.92873563218393" type="curve" smooth="yes"/>
      <point x="116.13908045977011" y="369.92873563218393"/>
      <point x="54.50919540229884" y="293.35632183908046"/>
      <point x="54.50919540229884" y="184.62298850574712" type="curve" smooth="yes"/>
      <point x="54.50919540229884" y="75.46896551724139"/>
      <point x="115.57011494252873" y="-1.0758620689655176"/>
    </contour>
    <contour>
      <point x="414.9057471264368" y="417.95862068965516" type="curve" smooth="yes"/>
      <point x="509.18045977011496" y="417.95862068965516"/>
      <point x="576.5724137931035" y="492.32643678160923"/>
      <point x="576.5724137931035" y="603.0620689655171" type="curve" smooth="yes"/>
      <point x="576.5724137931035" y="714.5701149425287"/>
      <point x="509.44597701149434" y="788.0643678160919"/>
      <point x="415.3735632183908" y="788.0643678160919" type="curve" smooth="yes"/>
      <point x="321.0563218390805" y="788.0643678160919"/>
      <point x="258.7931034482758" y="712.216091954023"/>
      <point x="258.7931034482758" y="602.8597701149424" type="curve" smooth="yes"/>
      <point x="258.7931034482758" y="493.7057471264368"/>
      <point x="320.4873563218391" y="417.95862068965516"/>
    </contour>
    <contour>
      <point x="196.44252873563218" y="51.82758620689655" type="curve" smooth="yes"/>
      <point x="141.1448275862069" y="51.82758620689655"/>
      <point x="105.97701149425288" y="103.85402298850573"/>
      <point x="105.97701149425288" y="184.9264367816092" type="curve" smooth="yes"/>
      <point x="105.97701149425288" y="264.632183908046"/>
      <point x="141.24597701149426" y="316.7597701149425"/>
      <point x="196.64482758620687" y="316.7597701149425" type="curve" smooth="yes"/>
      <point x="255.1793103448276" y="316.7597701149425"/>
      <point x="288.0597701149425" y="270.6747126436781"/>
      <point x="288.0597701149425" y="184.9264367816092" type="curve" smooth="yes"/>
      <point x="288.0597701149425" y="97.61839080459771"/>
      <point x="255.1793103448276" y="51.82758620689655"/>
    </contour>
    <contour>
      <point x="401.35977011494253" y="470.40344827586205" type="curve" smooth="yes"/>
      <point x="345.8873563218391" y="470.40344827586205"/>
      <point x="310.89425287356323" y="522.3563218390805"/>
      <point x="310.89425287356323" y="603.0620689655171" type="curve" smooth="yes"/>
      <point x="310.89425287356323" y="683.0333333333333"/>
      <point x="345.8873563218391" y="735.1609195402299"/>
      <point x="401.4609195402299" y="735.1609195402299" type="curve" smooth="yes"/>
      <point x="460.09655172413795" y="735.1609195402299"/>
      <point x="492.3436781609195" y="689.2689655172414"/>
      <point x="492.3436781609195" y="603.0620689655171" type="curve" smooth="yes"/>
      <point x="492.3436781609195" y="516.4781609195403"/>
      <point x="459.9954022988506" y="470.40344827586205"/>
    </contour>
    <contour>
      <point x="603.4862068965517" y="51.82758620689655" type="curve" smooth="yes"/>
      <point x="548.1885057471264" y="51.82758620689655"/>
      <point x="512.6540229885057" y="103.85402298850573"/>
      <point x="512.6540229885057" y="184.9264367816092" type="curve" smooth="yes"/>
      <point x="512.6540229885057" y="264.632183908046"/>
      <point x="548.1885057471264" y="316.7597701149425"/>
      <point x="603.587356321839" y="316.7597701149425" type="curve" smooth="yes"/>
      <point x="662.2229885057471" y="316.7597701149425"/>
      <point x="694.9287356321839" y="270.6747126436781"/>
      <point x="694.9287356321839" y="184.9264367816092" type="curve" smooth="yes"/>
      <point x="694.9287356321839" y="97.61839080459771"/>
      <point x="662.1218390804598" y="51.82758620689655"/>
    </contour>
  </outline>
</glyph>
<glyph name="a-tamil" format="2">
  <advance width="1215.9781609195404"/>
  <unicode hex="0B85"/>
  <note>
uni0B85
</note>
  <anchor x="585.4620689655172" y="0.0" name="bottom"/>
  <anchor x="416.6701149425288" y="-128.8873563218391" name="nukta"/>
  <anchor x="592.9413793103448" y="556.6850574712644" name="top"/>
  <anchor x="593.5735632183907" y="556.6850574712644" name="vedic"/>
  <outline>
    <contour>
      <point x="1019.1574712643678" y="-200.48850574712642" type="line"/>
      <point x="1129.0413793103448" y="-200.48850574712642" type="line"/>
      <point x="1129.0413793103448" y="556.6850574712644" type="line"/>
      <point x="1019.1574712643678" y="556.6850574712644" type="line"/>
      <point x="1019.1574712643678" y="169.24367816091953" type="line"/>
      <point x="118.13793103448276" y="169.24367816091953" type="line" smooth="yes"/>
      <point x="62.9367816091954" y="169.24367816091953"/>
      <point x="34.71149425287356" y="139.54252873563217"/>
      <point x="34.71149425287356" y="94.016091954023" type="curve" smooth="yes"/>
      <point x="34.71149425287356" y="-4.901149425287358"/>
      <point x="181.9712643678161" y="-128.8873563218391"/>
      <point x="416.6701149425288" y="-128.8873563218391" type="curve" smooth="yes"/>
      <point x="703.8402298850575" y="-128.8873563218391"/>
      <point x="888.3977011494253" y="12.181609195402297"/>
      <point x="888.3977011494253" y="246.64367816091954" type="curve" smooth="yes"/>
      <point x="888.3977011494253" y="438.86436781609194"/>
      <point x="757.5448275862069" y="561.6850574712644"/>
      <point x="584.3183908045977" y="561.6850574712644" type="curve" smooth="yes"/>
      <point x="457.7011494252873" y="561.6850574712644"/>
      <point x="369.5206896551724" y="492.8183908045977"/>
      <point x="369.5206896551724" y="382.9954022988506" type="curve" smooth="yes"/>
      <point x="369.5206896551724" y="302.06206896551726"/>
      <point x="430.9505747126437" y="240.2873563218391"/>
      <point x="518.8735632183908" y="240.2873563218391" type="curve" smooth="yes"/>
      <point x="603.9850574712644" y="240.2873563218391"/>
      <point x="661.4402298850574" y="293.20459770114945"/>
      <point x="661.4402298850574" y="374.0206896551724" type="curve" smooth="yes"/>
      <point x="661.4402298850574" y="449.07586206896553"/>
      <point x="599.8390804597701" y="513.3954022988506"/>
      <point x="532.3057471264368" y="519.7632183908046" type="curve"/>
      <point x="480.48850574712645" y="515.8068965517241" type="line"/>
      <point x="533.3563218390805" y="499.52183908045976"/>
      <point x="570.9172413793104" y="441.54712643678164"/>
      <point x="570.9172413793104" y="385.7977011494253" type="curve" smooth="yes"/>
      <point x="570.9172413793104" y="337.69885057471265"/>
      <point x="546.7758620689655" y="301.39540229885057"/>
      <point x="499.92643678160925" y="301.39540229885057" type="curve" smooth="yes"/>
      <point x="460.8873563218391" y="301.39540229885057"/>
      <point x="428.1850574712643" y="328.04597701149424"/>
      <point x="428.1850574712643" y="383.1494252873563" type="curve" smooth="yes"/>
      <point x="428.1850574712643" y="457.29425287356327"/>
      <point x="485.5528735632183" y="505.47816091954024"/>
      <point x="571.1034482758622" y="505.47816091954024" type="curve" smooth="yes"/>
      <point x="679.4781609195403" y="505.47816091954024"/>
      <point x="778.9551724137931" y="414.64827586206894"/>
      <point x="778.9551724137931" y="253.07126436781607" type="curve" smooth="yes"/>
      <point x="778.9551724137931" y="46.259770114942526"/>
      <point x="628.4183908045977" y="-72.68045977011494"/>
      <point x="409.7344827586207" y="-72.68045977011494" type="curve" smooth="yes"/>
      <point x="222.248275862069" y="-72.68045977011494"/>
      <point x="95.33448275862068" y="21.38620689655172"/>
      <point x="95.33448275862068" y="86.58620689655173" type="curve" smooth="yes"/>
      <point x="95.33448275862068" y="103.0367816091954"/>
      <point x="102.62068965517241" y="113.31264367816091"/>
      <point x="126.68735632183909" y="113.31264367816091" type="curve" smooth="yes"/>
      <point x="1019.1574712643678" y="113.31264367816091" type="line"/>
    </contour>
  </outline>
</glyph>
<glyph name="aa-tamil" format="2">
  <advance width="1386.5505747126438"/>
  <unicode hex="0B86"/>
  <note>
uni0B86
</note>
  <anchor x="677.8724137931034" y="0.0" name="bottom"/>
  <anchor x="416.6701149425288" y="-128.8873563218391" name="nukta"/>
  <anchor x="685.6356321839081" y="556.6850574712644" name="top"/>
  <anchor x="685.7183908045978" y="556.6850574712644" name="vedic"/>
  <outline>
    <contour>
      <point x="965.0999999999999" y="-433.4022988505747" type="curve" smooth="yes"/>
      <point x="1166.6103448275862" y="-433.4022988505747"/>
      <point x="1361.126436781609" y="-312.00344827586207"/>
      <point x="1361.126436781609" y="-104.5735632183908" type="curve" smooth="yes"/>
      <point x="1361.126436781609" y="-4.683908045977011"/>
      <point x="1315.8781609195403" y="55.65747126436782"/>
      <point x="1236.3482758620692" y="55.65747126436782" type="curve" smooth="yes"/>
      <point x="1155.5045977011494" y="55.65747126436782"/>
      <point x="1103.5793103448277" y="-9.268965517241377"/>
      <point x="1096.7333333333333" y="-106.42873563218392" type="curve"/>
      <point x="1123.355172413793" y="-116.08850574712643" type="line"/>
      <point x="1122.9885057471265" y="-60.744827586206895"/>
      <point x="1158.4528735632184" y="-31.03103448275862"/>
      <point x="1193.1333333333332" y="-31.03103448275862" type="curve" smooth="yes"/>
      <point x="1233.9344827586206" y="-31.03103448275862"/>
      <point x="1256.1735632183907" y="-60.18045977011495"/>
      <point x="1256.1735632183907" y="-113.04022988505747" type="curve" smooth="yes"/>
      <point x="1255.806896551724" y="-276.68965517241384"/>
      <point x="1099.0241379310344" y="-377.57241379310346"/>
      <point x="952.9965517241379" y="-377.57241379310346" type="curve" smooth="yes"/>
      <point x="868.1563218390804" y="-377.57241379310346"/>
      <point x="779.183908045977" y="-349.81724137931036"/>
      <point x="779.183908045977" y="-277.91954022988506" type="curve" smooth="yes"/>
      <point x="779.183908045977" y="-230.45747126436783"/>
      <point x="816.5413793103448" y="-199.1551724137931"/>
      <point x="878.6632183908046" y="-189.6712643678161" type="curve"/>
      <point x="865.222988505747" y="-134.94252873563218" type="line"/>
      <point x="774.2804597701149" y="-152.31724137931036"/>
      <point x="720.7850574712644" y="-201.0494252873563"/>
      <point x="720.7850574712644" y="-273.29655172413794" type="curve" smooth="yes"/>
      <point x="720.7850574712644" y="-382.17011494252876"/>
      <point x="834.9126436781609" y="-433.4022988505747"/>
    </contour>
    <component base="a-tamil"/>
  </outline>
</glyph>
<glyph name="i-tamil" format="2">
  <advance width="946.209195402299"/>
  <unicode hex="0B87"/>
  <note>
uni0B87
</note>
  <anchor x="457.05632183908045" y="0.0" name="bottom"/>
  <anchor x="455.05632183908045" y="-267.48275862068965" name="nukta"/>
  <anchor x="469.8436781609196" y="831.4252873563219" name="top"/>
  <anchor x="463.05632183908045" y="556.6850574712644" name="vedic"/>
  <outline>
    <contour>
      <point x="220.38045977011495" y="-303.61149425287357" type="curve" smooth="yes"/>
      <point x="503.5666666666667" y="-303.61149425287357"/>
      <point x="724.0494252873564" y="-47.675862068965515"/>
      <point x="724.0494252873564" y="237.39080459770116" type="curve" smooth="yes"/>
      <point x="724.0494252873564" y="435.9747126436781"/>
      <point x="618.0839080459771" y="561.6850574712644"/>
      <point x="450.67011494252876" y="561.6850574712644" type="curve" smooth="yes"/>
      <point x="332.19425287356324" y="561.6850574712644"/>
      <point x="243.01034482758618" y="495.5425287356322"/>
      <point x="243.01034482758618" y="381.66896551724136" type="curve" smooth="yes"/>
      <point x="243.01034482758618" y="298.0873563218391"/>
      <point x="306.9172413793103" y="242.75862068965517"/>
      <point x="381.7" y="242.75862068965517" type="curve" smooth="yes"/>
      <point x="466.083908045977" y="242.75862068965517"/>
      <point x="520.1551724137931" y="295.1034482758621"/>
      <point x="520.1551724137931" y="373.2919540229885" type="curve" smooth="yes"/>
      <point x="520.1551724137931" y="439.5494252873563"/>
      <point x="471.216091954023" y="504.29655172413794"/>
      <point x="385.56896551724134" y="519.9609195402298" type="curve"/>
      <point x="335.1218390804598" y="514.3816091954023" type="line"/>
      <point x="391.4862068965517" y="498.64597701149427"/>
      <point x="430.0804597701149" y="442.79540229885055"/>
      <point x="430.0804597701149" y="384.84597701149426" type="curve" smooth="yes"/>
      <point x="430.0804597701149" y="336.69885057471265"/>
      <point x="407.6735632183908" y="302.9862068965517"/>
      <point x="363.8620689655172" y="302.9862068965517" type="curve" smooth="yes"/>
      <point x="325.632183908046" y="302.9862068965517"/>
      <point x="300.10229885057475" y="334.09195402298855"/>
      <point x="300.10229885057475" y="381.59999999999997" type="curve" smooth="yes"/>
      <point x="300.10229885057475" y="456.5701149425288"/>
      <point x="353.7620689655173" y="505.6528735632184"/>
      <point x="435.69195402298857" y="505.6528735632184" type="curve" smooth="yes"/>
      <point x="558.4770114942529" y="505.6528735632184"/>
      <point x="614.9103448275862" y="399.75402298850577"/>
      <point x="614.9103448275862" y="255.7471264367816" type="curve" smooth="yes"/>
      <point x="614.9103448275862" y="-8.478160919540231"/>
      <point x="482.8563218390804" y="-247.30344827586208"/>
      <point x="230.07356321839083" y="-247.30344827586208" type="curve" smooth="yes"/>
      <point x="157.38620689655173" y="-247.30344827586208"/>
      <point x="109.91034482758621" y="-214.00689655172414"/>
      <point x="109.91034482758621" y="-151.4919540229885" type="curve" smooth="yes"/>
      <point x="109.91034482758621" y="-21.935632183908048"/>
      <point x="293.17011494252876" y="54.26896551724138"/>
      <point x="446.8965517241379" y="54.26896551724138" type="curve" smooth="yes"/>
      <point x="600.9068965517241" y="54.26896551724138"/>
      <point x="793.0241379310345" y="-10.012643678160922"/>
      <point x="793.0241379310345" y="-143.81494252873563" type="curve" smooth="yes"/>
      <point x="793.0241379310345" y="-219.28620689655173"/>
      <point x="731.9701149425289" y="-247.30344827586208"/>
      <point x="653.8919540229886" y="-247.30344827586208" type="curve" smooth="yes"/>
      <point x="411.0735632183908" y="-247.30344827586208"/>
      <point x="129.75632183908047" y="72.32298850574713"/>
      <point x="129.75632183908047" y="375.0931034482759" type="curve" smooth="yes"/>
      <point x="129.75632183908047" y="632.5528735632184"/>
      <point x="288.8494252873563" y="733.4701149425288"/>
      <point x="469.22873563218394" y="733.4701149425288" type="curve" smooth="yes"/>
      <point x="703.8977011494252" y="733.4701149425288"/>
      <point x="829.3597701149424" y="577.0816091954023"/>
      <point x="829.3597701149424" y="330.28045977011493" type="curve" smooth="yes"/>
      <point x="829.3597701149424" y="90.05517241379312" type="line"/>
      <point x="889.3678160919541" y="90.05517241379312" type="line"/>
      <point x="889.3678160919541" y="332.432183908046" type="line" smooth="yes"/>
      <point x="889.3678160919541" y="664.667816091954"/>
      <point x="737.3586206896551" y="831.4252873563219"/>
      <point x="469.8436781609196" y="831.4252873563219" type="curve" smooth="yes"/>
      <point x="233.80344827586205" y="831.4252873563219"/>
      <point x="61.93333333333333" y="667.0091954022988"/>
      <point x="61.93333333333333" y="413.8195402298851" type="curve" smooth="yes"/>
      <point x="61.93333333333333" y="53.49080459770114"/>
      <point x="370.8218390804597" y="-303.4367816091954"/>
      <point x="680.7379310344827" y="-303.4367816091954" type="curve" smooth="yes"/>
      <point x="782.4011494252875" y="-303.4367816091954"/>
      <point x="860.948275862069" y="-253.16666666666666"/>
      <point x="860.948275862069" y="-158.58735632183905" type="curve" smooth="yes"/>
      <point x="860.948275862069" y="22.665517241379312"/>
      <point x="638.9425287356321" y="109.17241379310344"/>
      <point x="446.9701149425287" y="109.17241379310344" type="curve" smooth="yes"/>
      <point x="252.1735632183908" y="109.17241379310344"/>
      <point x="43.57356321839081" y="19.324137931034482"/>
      <point x="43.57356321839081" y="-151.78505747126437" type="curve" smooth="yes"/>
      <point x="43.57356321839081" y="-248.94827586206895"/>
      <point x="117.10689655172413" y="-303.61149425287357"/>
    </contour>
  </outline>
</glyph>
<glyph name="ii-tamil" format="2">
  <advance width="738.1517241379311"/>
  <unicode hex="0B88"/>
  <note>
uni0B88
</note>
  <anchor x="382.46896551724143" y="0.0" name="bottom"/>
  <anchor x="382.73448275862074" y="0.0" name="nukta"/>
  <anchor x="384.5701149425288" y="556.6850574712644" name="top"/>
  <anchor x="385.01034482758627" y="556.6850574712644" name="vedic"/>
  <outline>
    <contour>
      <point x="87.05632183908045" y="0.0" type="line"/>
      <point x="148.44022988505748" y="0.0" type="line"/>
      <point x="148.44022988505748" y="500.8551724137931" type="line"/>
      <point x="395.2816091954023" y="500.8551724137931" type="line"/>
      <point x="395.2816091954023" y="0.0" type="line"/>
      <point x="506.5908045977011" y="0.0" type="line"/>
      <point x="506.5908045977011" y="500.8551724137931" type="line"/>
      <point x="690.5149425287357" y="500.8551724137931" type="line"/>
      <point x="690.5149425287357" y="556.6850574712644" type="line"/>
      <point x="87.05632183908045" y="556.6850574712644" type="line"/>
    </contour>
    <contour>
      <point x="271.4942528735632" y="207.05172413793102" type="curve" smooth="yes"/>
      <point x="304.5298850574713" y="207.05172413793102"/>
      <point x="330.77586206896547" y="233.72758620689655"/>
      <point x="330.77586206896547" y="265.12068965517244" type="curve" smooth="yes"/>
      <point x="330.77586206896547" y="295.88045977011495"/>
      <point x="304.63103448275865" y="322.29080459770114"/>
      <point x="271.59540229885056" y="322.29080459770114" type="curve" smooth="yes"/>
      <point x="238.19310344827588" y="322.29080459770114"/>
      <point x="212.04827586206898" y="295.88045977011495"/>
      <point x="212.04827586206898" y="265.12068965517244" type="curve" smooth="yes"/>
      <point x="212.04827586206898" y="233.72758620689655"/>
      <point x="238.19310344827588" y="207.05172413793102"/>
    </contour>
    <contour>
      <point x="629.4701149425289" y="207.05172413793102" type="curve" smooth="yes"/>
      <point x="663.1390804597702" y="207.05172413793102"/>
      <point x="688.7517241379311" y="233.72758620689655"/>
      <point x="688.7517241379311" y="265.12068965517244" type="curve" smooth="yes"/>
      <point x="688.7517241379311" y="295.88045977011495"/>
      <point x="663.2402298850576" y="322.29080459770114"/>
      <point x="629.5712643678162" y="322.29080459770114" type="curve" smooth="yes"/>
      <point x="596.1689655172414" y="322.29080459770114"/>
      <point x="570.4827586206898" y="295.88045977011495"/>
      <point x="570.4827586206898" y="265.12068965517244" type="curve" smooth="yes"/>
      <point x="570.4827586206898" y="233.72758620689655"/>
      <point x="596.1689655172414" y="207.05172413793102"/>
    </contour>
  </outline>
</glyph>
<glyph name="u-tamil" format="2">
  <advance width="924.1678160919541"/>
  <unicode hex="0B89"/>
  <note>
uni0B89
</note>
  <anchor x="487.2758620689656" y="0.0" name="bottom"/>
  <anchor x="487.5413793103449" y="0.0" name="nukta"/>
  <anchor x="490.35862068965514" y="556.6850574712644" name="top"/>
  <anchor x="490.2758620689656" y="556.6850574712644" name="vedic"/>
  <outline>
    <contour>
      <point x="143.24022988505746" y="0.0" type="curve" smooth="yes"/>
      <point x="907.5942528735633" y="0.0" type="line"/>
      <point x="907.5942528735633" y="55.93103448275862" type="line"/>
      <point x="139.48390804597702" y="55.93103448275862" type="line" smooth="yes"/>
      <point x="120.12528735632183" y="55.93103448275862"/>
      <point x="102.13908045977011" y="70.65517241379311"/>
      <point x="102.13908045977011" y="94.47816091954023" type="curve" smooth="yes"/>
      <point x="102.13908045977011" y="119.2"/>
      <point x="120.02413793103449" y="133.7494252873563"/>
      <point x="139.48390804597702" y="133.7494252873563" type="curve" smooth="yes"/>
      <point x="361.95402298850576" y="133.7494252873563" type="line" smooth="yes"/>
      <point x="506.8310344827586" y="133.7494252873563"/>
      <point x="614.9011494252873" y="198.89655172413794"/>
      <point x="614.9011494252873" y="336.02758620689656" type="curve" smooth="yes"/>
      <point x="614.9011494252873" y="483.3264367816092"/>
      <point x="497.67356321839077" y="561.6850574712644"/>
      <point x="346.4172413793103" y="561.6850574712644" type="curve" smooth="yes"/>
      <point x="210.38620689655176" y="561.6850574712644"/>
      <point x="123.32068965517242" y="491.4540229885057"/>
      <point x="123.32068965517242" y="383.1551724137931" type="curve" smooth="yes"/>
      <point x="123.32068965517242" y="302.13103448275865"/>
      <point x="182.80919540229883" y="244.77471264367816"/>
      <point x="266.6057471264368" y="244.77471264367816" type="curve" smooth="yes"/>
      <point x="351.06781609195406" y="244.77471264367816"/>
      <point x="407.0770114942529" y="294.7816091954023"/>
      <point x="407.0770114942529" y="373.5275862068965" type="curve" smooth="yes"/>
      <point x="407.0770114942529" y="447.94022988505753"/>
      <point x="348.3758620689655" y="512.1655172413793"/>
      <point x="280.60114942528736" y="519.5609195402299" type="curve"/>
      <point x="230.24597701149426" y="516.1103448275862" type="line"/>
      <point x="284.2758620689655" y="498.2988505747127"/>
      <point x="317.7770114942529" y="439.4080459770115"/>
      <point x="317.7770114942529" y="385.05632183908045" type="curve" smooth="yes"/>
      <point x="317.7770114942529" y="336.94022988505753"/>
      <point x="294.5333333333333" y="303.7310344827586"/>
      <point x="250.39425287356323" y="303.7310344827586" type="curve" smooth="yes"/>
      <point x="210.96666666666667" y="303.7310344827586"/>
      <point x="181.5264367816092" y="330.45862068965516"/>
      <point x="181.5264367816092" y="382.6563218390804" type="curve" smooth="yes"/>
      <point x="181.5264367816092" y="456.7551724137931"/>
      <point x="238.3862068965517" y="505.68045977011496"/>
      <point x="326.75172413793103" y="505.68045977011496" type="curve" smooth="yes"/>
      <point x="425.4126436781609" y="505.68045977011496"/>
      <point x="505.7528735632183" y="448.0298850574713"/>
      <point x="505.7528735632183" y="348.37471264367815" type="curve" smooth="yes"/>
      <point x="505.7528735632183" y="242.97931034482758"/>
      <point x="446.5908045977012" y="188.30344827586208"/>
      <point x="345.6908045977012" y="188.30344827586208" type="curve" smooth="yes"/>
      <point x="143.24022988505746" y="188.30344827586208" type="line" smooth="yes"/>
      <point x="84.39885057471264" y="188.30344827586208"/>
      <point x="44.40804597701149" y="154.82758620689654"/>
      <point x="44.40804597701149" y="94.47816091954023" type="curve" smooth="yes"/>
      <point x="44.40804597701149" y="34.9264367816092"/>
      <point x="84.5" y="0.0"/>
    </contour>
  </outline>
</glyph>
<glyph name="uu-tamil" format="2">
  <advance width="1594.2666666666667"/>
  <unicode hex="0B8A"/>
  <note>
uni0B8A
</note>
  <anchor x="824.3770114942529" y="0.0" name="bottom"/>
  <anchor x="824.8356321839082" y="0.0" name="nukta"/>
  <anchor x="827.532183908046" y="556.6850574712644" name="top"/>
  <anchor x="827.3770114942529" y="556.6850574712644" name="vedic"/>
  <outline>
    <contour>
      <point x="141.44482758620688" y="0.0" type="curve" smooth="yes"/>
      <point x="1562.1" y="0.0" type="line"/>
      <point x="1562.1" y="55.93103448275862" type="line"/>
      <point x="137.68850574712644" y="55.93103448275862" type="line" smooth="yes"/>
      <point x="117.96321839080458" y="55.93103448275862"/>
      <point x="102.13908045977011" y="70.65517241379311"/>
      <point x="102.13908045977011" y="94.47816091954023" type="curve" smooth="yes"/>
      <point x="102.13908045977011" y="119.2"/>
      <point x="117.96321839080458" y="133.7494252873563"/>
      <point x="137.68850574712644" y="133.7494252873563" type="curve" smooth="yes"/>
      <point x="361.95402298850576" y="133.7494252873563" type="line" smooth="yes"/>
      <point x="506.8310344827586" y="133.7494252873563"/>
      <point x="614.9011494252873" y="198.89655172413794"/>
      <point x="614.9011494252873" y="336.02758620689656" type="curve" smooth="yes"/>
      <point x="614.9011494252873" y="483.3264367816092"/>
      <point x="497.67356321839077" y="561.6850574712644"/>
      <point x="346.4172413793103" y="561.6850574712644" type="curve" smooth="yes"/>
      <point x="210.38620689655176" y="561.6850574712644"/>
      <point x="123.32068965517242" y="491.4540229885057"/>
      <point x="123.32068965517242" y="383.1551724137931" type="curve" smooth="yes"/>
      <point x="123.32068965517242" y="302.13103448275865"/>
      <point x="182.80919540229883" y="244.77471264367816"/>
      <point x="266.6057471264368" y="244.77471264367816" type="curve" smooth="yes"/>
      <point x="351.06781609195406" y="244.77471264367816"/>
      <point x="407.0770114942529" y="294.7816091954023"/>
      <point x="407.0770114942529" y="373.5275862068965" type="curve" smooth="yes"/>
      <point x="407.0770114942529" y="447.94022988505753"/>
      <point x="348.3758620689655" y="512.1655172413793"/>
      <point x="280.60114942528736" y="519.5609195402299" type="curve"/>
      <point x="230.24597701149426" y="516.1103448275862" type="line"/>
      <point x="284.2758620689655" y="498.2988505747127"/>
      <point x="317.7770114942529" y="439.4080459770115"/>
      <point x="317.7770114942529" y="385.05632183908045" type="curve" smooth="yes"/>
      <point x="317.7770114942529" y="336.94022988505753"/>
      <point x="294.5333333333333" y="303.7310344827586"/>
      <point x="250.39425287356323" y="303.7310344827586" type="curve" smooth="yes"/>
      <point x="210.96666666666667" y="303.7310344827586"/>
      <point x="181.5264367816092" y="330.45862068965516"/>
      <point x="181.5264367816092" y="382.6563218390804" type="curve" smooth="yes"/>
      <point x="181.5264367816092" y="456.7551724137931"/>
      <point x="238.3862068965517" y="505.68045977011496"/>
      <point x="326.75172413793103" y="505.68045977011496" type="curve" smooth="yes"/>
      <point x="425.4126436781609" y="505.68045977011496"/>
      <point x="505.7528735632183" y="448.0298850574713"/>
      <point x="505.7528735632183" y="348.37471264367815" type="curve" smooth="yes"/>
      <point x="505.7528735632183" y="242.97931034482758"/>
      <point x="446.5908045977012" y="188.30344827586208"/>
      <point x="345.6908045977012" y="188.30344827586208" type="curve" smooth="yes"/>
      <point x="141.44482758620688" y="188.30344827586208" type="line" smooth="yes"/>
      <point x="82.5022988505747" y="188.30344827586208"/>
      <point x="44.40804597701149" y="154.82758620689654"/>
      <point x="44.40804597701149" y="94.47816091954023" type="curve" smooth="yes"/>
      <point x="44.40804597701149" y="34.9264367816092"/>
      <point x="82.60344827586206" y="0.0"/>
    </contour>
    <contour>
      <point x="874.2080459770115" y="107.68045977011494" type="curve" smooth="yes"/>
      <point x="968.6367816091954" y="107.68045977011494"/>
      <point x="1024.916091954023" y="166.58045977011494"/>
      <point x="1024.916091954023" y="246.45977011494253" type="curve" smooth="yes"/>
      <point x="1024.916091954023" y="338.4344827586207"/>
      <point x="965.4160919540229" y="390.98390804597705"/>
      <point x="887.3149425287356" y="390.98390804597705" type="curve" smooth="yes"/>
      <point x="812.9747126436781" y="390.98390804597705"/>
      <point x="751.8264367816092" y="330.99310344827586"/>
      <point x="741.6459770114943" y="244.11954022988508" type="curve"/>
      <point x="761.255172413793" y="206.77471264367816" type="line"/>
      <point x="770.7850574712645" y="271.67816091954023"/>
      <point x="812.7816091954023" y="327.92873563218393"/>
      <point x="863.9344827586208" y="327.92873563218393" type="curve" smooth="yes"/>
      <point x="903.2298850574713" y="327.92873563218393"/>
      <point x="932.3770114942529" y="300.62413793103445"/>
      <point x="932.3770114942529" y="249.7816091954023" type="curve" smooth="yes"/>
      <point x="932.3770114942529" y="200.22298850574714"/>
      <point x="905.2034482758621" y="163.33793103448278"/>
      <point x="855.7770114942529" y="163.33793103448278" type="curve" smooth="yes"/>
      <point x="796.4402298850575" y="163.33793103448278"/>
      <point x="751.764367816092" y="212.6344827586207"/>
      <point x="751.764367816092" y="323.35862068965514" type="curve" smooth="yes"/>
      <point x="751.764367816092" y="431.71379310344827"/>
      <point x="825.9540229885057" y="505.8551724137931"/>
      <point x="923.7448275862068" y="505.8551724137931" type="curve" smooth="yes"/>
      <point x="1033.7275862068966" y="505.8551724137931"/>
      <point x="1107.8632183908046" y="425.3287356321839"/>
      <point x="1108.4781609195402" y="307.6390804597701" type="curve"/>
      <point x="1157.2333333333333" y="307.6390804597701" type="line"/>
      <point x="1155.8643678160918" y="464.767816091954"/>
      <point x="1064.5114942528735" y="561.6850574712644"/>
      <point x="923.1701149425287" y="561.6850574712644" type="curve" smooth="yes"/>
      <point x="786.3701149425287" y="561.6850574712644"/>
      <point x="692.9494252873562" y="460.8689655172414"/>
      <point x="692.9494252873562" y="321.7080459770115" type="curve" smooth="yes"/>
      <point x="692.9494252873562" y="187.97931034482758"/>
      <point x="768.6712643678161" y="107.68045977011494"/>
    </contour>
    <contour>
      <point x="1108.4781609195402" y="111.05517241379312" type="line"/>
      <point x="1211.0000000000002" y="111.05517241379312" type="line"/>
      <point x="1211.0000000000002" y="502.7080459770115" type="line"/>
      <point x="1365.8310344827585" y="502.7080459770115" type="line"/>
      <point x="1365.8310344827585" y="111.05517241379312" type="line"/>
      <point x="1468.16091954023" y="111.05517241379312" type="line"/>
      <point x="1468.16091954023" y="502.7080459770115" type="line"/>
      <point x="1562.1" y="502.7080459770115" type="line"/>
      <point x="1562.1" y="556.6850574712644" type="line"/>
      <point x="1122.5172413793105" y="556.6850574712644" type="line"/>
      <point x="1122.8206896551726" y="377.94252873563215" type="line"/>
      <point x="1108.4781609195402" y="374.74252873563216" type="line"/>
    </contour>
  </outline>
</glyph>
<glyph name="e-tamil" format="2">
  <advance width="868.5574712643679"/>
  <unicode hex="0B8E"/>
  <note>
uni0B8E
</note>
  <anchor x="460.6126436781609" y="0.0" name="bottom"/>
  <anchor x="461.51149425287355" y="0.0" name="nukta"/>
  <anchor x="462.5206896551724" y="556.6850574712644" name="top"/>
  <anchor x="463.6126436781609" y="556.6850574712644" name="vedic"/>
  <outline>
    <contour>
      <point x="258.7758620689655" y="-5.0" type="curve" smooth="yes"/>
      <point x="364.5252873563218" y="-5.0"/>
      <point x="431.38045977011495" y="60.14252873563218"/>
      <point x="431.38045977011495" y="153.69425287356322" type="curve" smooth="yes"/>
      <point x="431.38045977011495" y="245.08620689655172"/>
      <point x="375.5137931034483" y="308.51724137931035"/>
      <point x="284.4045977011494" y="308.51724137931035" type="curve" smooth="yes"/>
      <point x="186.6034482758621" y="308.51724137931035"/>
      <point x="118.67816091954025" y="228.84367816091952"/>
      <point x="112.36206896551724" y="118.09540229885057" type="curve"/>
      <point x="144.81034482758622" y="92.85977011494253" type="line"/>
      <point x="148.46321839080457" y="181.01839080459771"/>
      <point x="190.61264367816094" y="237.2965517241379"/>
      <point x="248.54137931034484" y="237.2965517241379" type="curve" smooth="yes"/>
      <point x="305.50574712643675" y="237.2965517241379"/>
      <point x="330.39885057471264" y="192.73103448275862"/>
      <point x="330.39885057471264" y="148.4551724137931" type="curve" smooth="yes"/>
      <point x="330.39885057471264" y="94.95402298850576"/>
      <point x="299.7068965517242" y="52.51264367816092"/>
      <point x="238.60114942528736" y="52.51264367816092" type="curve" smooth="yes"/>
      <point x="166.32298850574713" y="52.51264367816092"/>
      <point x="110.67816091954023" y="124.24942528735632"/>
      <point x="110.67816091954023" y="252.8425287356322" type="curve" smooth="yes"/>
      <point x="110.67816091954023" y="409.85172413793106"/>
      <point x="214.35977011494253" y="500.8551724137931"/>
      <point x="381.2540229885057" y="500.8551724137931" type="curve" smooth="yes"/>
      <point x="588.3482758620689" y="500.8551724137931" type="line"/>
      <point x="588.3482758620689" y="0.0" type="line"/>
      <point x="698.5080459770115" y="0.0" type="line"/>
      <point x="698.5080459770115" y="500.8551724137931" type="line"/>
      <point x="848.9459770114943" y="500.8551724137931" type="line"/>
      <point x="848.9459770114943" y="556.6850574712644" type="line"/>
      <point x="376.92068965517245" y="556.6850574712644" type="line" smooth="yes"/>
      <point x="184.75402298850574" y="556.6850574712644"/>
      <point x="52.52528735632184" y="445.2885057471264"/>
      <point x="52.52528735632184" y="254.1183908045977" type="curve" smooth="yes"/>
      <point x="52.52528735632184" y="90.42988505747127"/>
      <point x="141.46781609195403" y="-5.0"/>
    </contour>
  </outline>
</glyph>
<glyph name="ee-tamil" format="2">
  <advance width="868.5574712643679"/>
  <unicode hex="0B8F"/>
  <note>
uni0B8F
</note>
  <anchor x="460.6126436781609" y="0.0" name="bottom"/>
  <anchor x="461.51149425287355" y="-189.55632183908045" name="nukta"/>
  <anchor x="463.8781609195402" y="556.6850574712644" name="top"/>
  <anchor x="463.6126436781609" y="556.6850574712644" name="vedic"/>
  <outline>
    <contour>
      <point x="455.0367816091954" y="-235.40689655172415" type="line"/>
      <point x="698.5080459770115" y="22.824137931034482" type="line"/>
      <point x="698.5080459770115" y="500.8551724137931" type="line"/>
      <point x="848.9459770114943" y="500.8551724137931" type="line"/>
      <point x="848.9459770114943" y="556.6850574712644" type="line"/>
      <point x="374.6275862068965" y="556.6850574712644" type="line" smooth="yes"/>
      <point x="182.46091954022987" y="556.6850574712644"/>
      <point x="52.52528735632184" y="445.2885057471264"/>
      <point x="52.52528735632184" y="254.1183908045977" type="curve" smooth="yes"/>
      <point x="52.52528735632184" y="90.42988505747127"/>
      <point x="141.46781609195403" y="-4.541379310344827"/>
      <point x="258.7758620689655" y="-4.541379310344827" type="curve" smooth="yes"/>
      <point x="364.5252873563218" y="-4.541379310344827"/>
      <point x="431.38045977011495" y="60.60114942528735"/>
      <point x="431.38045977011495" y="153.69425287356322" type="curve" smooth="yes"/>
      <point x="431.38045977011495" y="245.08620689655172"/>
      <point x="375.5137931034483" y="308.9758620689655"/>
      <point x="284.4045977011494" y="308.9758620689655" type="curve" smooth="yes"/>
      <point x="186.6034482758621" y="308.9758620689655"/>
      <point x="118.67816091954025" y="228.84367816091952"/>
      <point x="112.36206896551724" y="118.55402298850574" type="curve"/>
      <point x="144.81034482758622" y="93.3183908045977" type="line"/>
      <point x="148.46321839080457" y="181.47701149425288"/>
      <point x="190.81494252873566" y="237.2965517241379"/>
      <point x="248.6425287356322" y="237.2965517241379" type="curve" smooth="yes"/>
      <point x="305.6068965517241" y="237.2965517241379"/>
      <point x="330.39885057471264" y="193.18965517241378"/>
      <point x="330.39885057471264" y="148.4551724137931" type="curve" smooth="yes"/>
      <point x="330.39885057471264" y="95.41264367816093"/>
      <point x="299.7068965517242" y="52.51264367816092"/>
      <point x="238.70229885057472" y="52.51264367816092" type="curve" smooth="yes"/>
      <point x="166.52528735632185" y="52.51264367816092"/>
      <point x="110.77931034482759" y="123.3758620689655"/>
      <point x="110.77931034482759" y="252.8425287356322" type="curve" smooth="yes"/>
      <point x="110.77931034482759" y="409.85172413793106"/>
      <point x="214.35977011494253" y="500.8551724137931"/>
      <point x="381.2540229885057" y="500.8551724137931" type="curve" smooth="yes"/>
      <point x="588.3482758620689" y="500.8551724137931" type="line"/>
      <point x="588.3482758620689" y="-5.212643678160921" type="line"/>
      <point x="411.88850574712643" y="-194.07816091954024" type="line"/>
    </contour>
  </outline>
</glyph>
<glyph name="ai-tamil" format="2">
  <advance width="928.4632183908046"/>
  <unicode hex="0B90"/>
  <note>
uni0B90
</note>
  <anchor x="468.3666666666666" y="0.0" name="bottom"/>
  <anchor x="462.9747126436782" y="-302.71264367816093" name="nukta"/>
  <anchor x="478.93908045977014" y="556.6850574712644" name="top"/>
  <anchor x="476.8597701149426" y="556.6850574712644" name="vedic"/>
  <outline>
    <contour>
      <point x="279.50344827586207" y="-302.71264367816093" type="curve" smooth="yes"/>
      <point x="380.6022988505747" y="-302.71264367816093"/>
      <point x="458.0586206896552" y="-260.4735632183908"/>
      <point x="480.2781609195403" y="-178.91034482758621" type="curve"/>
      <point x="499.96436781609196" y="-246.48965517241382"/>
      <point x="566.2333333333333" y="-302.71264367816093"/>
      <point x="669.1758620689656" y="-302.71264367816093" type="curve" smooth="yes"/>
      <point x="792.1275862068966" y="-302.71264367816093"/>
      <point x="876.5712643678162" y="-236.99425287356323"/>
      <point x="876.5712643678162" y="-104.24022988505749" type="curve" smooth="yes"/>
      <point x="876.5712643678162" y="-40.286206896551725"/>
      <point x="852.3206896551724" y="15.570114942528736"/>
      <point x="809.5356321839081" y="73.59885057471266" type="curve"/>
      <point x="764.6609195402299" y="42.74367816091954" type="line"/>
      <point x="800.6298850574713" y="-4.920689655172414"/>
      <point x="817.7011494252873" y="-50.10114942528736"/>
      <point x="817.7011494252873" y="-97.183908045977" type="curve" smooth="yes"/>
      <point x="817.7011494252873" y="-196.8586206896552"/>
      <point x="759.4574712643679" y="-241.10574712643677"/>
      <point x="669.1126436781609" y="-241.10574712643677" type="curve" smooth="yes"/>
      <point x="582.216091954023" y="-241.10574712643677"/>
      <point x="536.9931034482759" y="-172.92183908045976"/>
      <point x="536.9931034482759" y="-77.17241379310346" type="curve" smooth="yes"/>
      <point x="536.9931034482759" y="-38.16781609195402" type="line"/>
      <point x="429.53678160919543" y="-38.16781609195402" type="line"/>
      <point x="429.53678160919543" y="-89.84827586206896" type="line" smooth="yes"/>
      <point x="429.53678160919543" y="-194.28045977011493"/>
      <point x="378.5402298850575" y="-245.6528735632184"/>
      <point x="293.2310344827586" y="-245.6528735632184" type="curve" smooth="yes"/>
      <point x="214.4241379310345" y="-245.6528735632184"/>
      <point x="162.87586206896552" y="-203.5471264367816"/>
      <point x="162.87586206896552" y="-118.62758620689655" type="curve" smooth="yes"/>
      <point x="162.87586206896552" y="33.37931034482759"/>
      <point x="294.35862068965514" y="63.5471264367816"/>
      <point x="500.7310344827586" y="77.33103448275861" type="curve" smooth="yes"/>
      <point x="697.1919540229885" y="91.10689655172413"/>
      <point x="873.9114942528736" y="141.53333333333333"/>
      <point x="873.9114942528736" y="342.55632183908045" type="curve" smooth="yes"/>
      <point x="873.9114942528736" y="503.648275862069"/>
      <point x="777.5264367816093" y="561.8597701149424"/>
      <point x="667.0022988505748" y="561.8597701149424" type="curve" smooth="yes"/>
      <point x="580.7931034482759" y="561.8597701149424"/>
      <point x="513.7666666666667" y="521.2241379310345"/>
      <point x="487.17816091954023" y="440.3275862068965" type="curve"/>
      <point x="455.45977011494256" y="521.396551724138"/>
      <point x="374.9712643678161" y="561.8597701149424"/>
      <point x="285.7862068965517" y="561.8597701149424" type="curve" smooth="yes"/>
      <point x="153.57471264367817" y="561.8597701149424"/>
      <point x="56.53563218390804" y="479.4758620689655"/>
      <point x="56.53563218390804" y="349.4229885057471" type="curve" smooth="yes"/>
      <point x="56.53563218390804" y="238.04597701149427"/>
      <point x="123.25402298850575" y="156.32183908045977"/>
      <point x="218.16666666666666" y="156.32183908045977" type="curve" smooth="yes"/>
      <point x="300.9666666666667" y="156.32183908045977"/>
      <point x="358.1218390804598" y="203.5471264367816"/>
      <point x="358.1218390804598" y="278.42758620689654" type="curve" smooth="yes"/>
      <point x="358.1218390804598" y="361.4505747126437"/>
      <point x="308.43678160919535" y="411.5494252873563"/>
      <point x="236.26206896551722" y="411.5494252873563" type="curve" smooth="yes"/>
      <point x="178.18620689655174" y="411.5494252873563"/>
      <point x="110.27931034482759" y="375.51724137931035"/>
      <point x="100.92068965517241" y="255.56321839080462" type="curve"/>
      <point x="127.54367816091955" y="223.31954022988506" type="line"/>
      <point x="133.74597701149426" y="319.4712643678161"/>
      <point x="173.56436781609196" y="349.75172413793103"/>
      <point x="210.00919540229887" y="349.75172413793103" type="curve" smooth="yes"/>
      <point x="246.57126436781607" y="349.75172413793103"/>
      <point x="268.33563218390805" y="323.0367816091954"/>
      <point x="268.33563218390805" y="280.59999999999997" type="curve" smooth="yes"/>
      <point x="268.33563218390805" y="238.5712643678161"/>
      <point x="244.8080459770115" y="212.73103448275862"/>
      <point x="206.90459770114944" y="212.73103448275862" type="curve" smooth="yes"/>
      <point x="159.03218390804597" y="212.73103448275862"/>
      <point x="115.31149425287356" y="248.60919540229884"/>
      <point x="115.31149425287356" y="345.4988505747126" type="curve" smooth="yes"/>
      <point x="115.31149425287356" y="450.1977011494253"/>
      <point x="188.67356321839083" y="505.55172413793105"/>
      <point x="272.4114942528736" y="505.55172413793105" type="curve" smooth="yes"/>
      <point x="366.56781609195406" y="505.55172413793105"/>
      <point x="429.53678160919543" y="453.3712643678161"/>
      <point x="429.53678160919543" y="343.4172413793104" type="curve" smooth="yes"/>
      <point x="429.53678160919543" y="214.9448275862069" type="line"/>
      <point x="536.9931034482759" y="214.9448275862069" type="line"/>
      <point x="536.9931034482759" y="366.2632183908046" type="line" smooth="yes"/>
      <point x="536.9931034482759" y="448.46436781609196"/>
      <point x="578.4517241379311" y="505.4505747126437"/>
      <point x="650.5000000000001" y="505.4505747126437" type="curve" smooth="yes"/>
      <point x="729.2091954022989" y="505.4505747126437"/>
      <point x="763.5609195402299" y="447.7310344827586"/>
      <point x="763.5609195402299" y="354.68045977011496" type="curve" smooth="yes"/>
      <point x="763.5609195402299" y="188.93563218390804"/>
      <point x="652.2356321839081" y="133.7057471264368"/>
      <point x="425.0632183908046" y="118.79310344827586" type="curve" smooth="yes"/>
      <point x="210.95862068965516" y="105.14827586206897"/>
      <point x="52.52528735632184" y="63.37011494252873"/>
      <point x="52.52528735632184" y="-106.95862068965518" type="curve" smooth="yes"/>
      <point x="52.52528735632184" y="-231.78620689655173"/>
      <point x="146.8367816091954" y="-302.71264367816093"/>
    </contour>
  </outline>
</glyph>
<glyph name="o-tamil" format="2">
  <advance width="942.0563218390804"/>
  <unicode hex="0B92"/>
  <note>
uni0B92
</note>
  <anchor x="480.04252873563223" y="0.0" name="bottom"/>
  <anchor x="478.04252873563223" y="-335.0" name="nukta"/>
  <anchor x="473.04252873563223" y="556.6850574712644" name="top"/>
  <anchor x="473.04252873563223" y="556.6850574712644" name="vedic"/>
  <outline>
    <contour>
      <point x="352.18390804597703" y="-330.82298850574716" type="curve" smooth="yes"/>
      <point x="552.9655172413792" y="-330.82298850574716"/>
      <point x="561.7586206896551" y="-144.4586206896552"/>
      <point x="721.6494252873564" y="-144.4586206896552" type="curve" smooth="yes"/>
      <point x="763.2287356321839" y="-144.4586206896552" type="line"/>
      <point x="763.2287356321839" y="-88.21379310344827" type="line"/>
      <point x="712.2988505747126" y="-88.21379310344827" type="line" smooth="yes"/>
      <point x="566.1758620689656" y="-88.21379310344827"/>
      <point x="472.12643678160924" y="57.5632183908046"/>
      <point x="573.3206896551725" y="205.68850574712647" type="curve"/>
      <point x="578.8620689655173" y="202.22988505747128" type="line"/>
      <point x="545.3701149425286" y="105.31149425287356"/>
      <point x="578.4678160919541" y="-4.898850574712644"/>
      <point x="708.228735632184" y="-4.898850574712644" type="curve" smooth="yes"/>
      <point x="811.1275862068966" y="-4.898850574712644"/>
      <point x="890.164367816092" y="74.68045977011494"/>
      <point x="890.164367816092" y="198.5448275862069" type="curve" smooth="yes"/>
      <point x="890.164367816092" y="421.5597701149426"/>
      <point x="694.7298850574712" y="561.6850574712644"/>
      <point x="453.0206896551724" y="561.6850574712644" type="curve" smooth="yes"/>
      <point x="237.43678160919538" y="561.6850574712644"/>
      <point x="52.52528735632184" y="434.17931034482757"/>
      <point x="52.52528735632184" y="233.58620689655172" type="curve" smooth="yes"/>
      <point x="52.52528735632184" y="82.87701149425288"/>
      <point x="142.3850574712644" y="-5.0"/>
      <point x="257.90229885057477" y="-5.0" type="curve" smooth="yes"/>
      <point x="362.9528735632184" y="-5.0"/>
      <point x="429.6333333333333" y="60.60114942528735"/>
      <point x="429.6333333333333" y="153.69425287356322" type="curve" smooth="yes"/>
      <point x="429.6333333333333" y="245.08620689655172"/>
      <point x="373.76666666666665" y="308.9758620689655"/>
      <point x="283.5310344827586" y="308.9758620689655" type="curve" smooth="yes"/>
      <point x="185.72988505747128" y="308.9758620689655"/>
      <point x="116.93103448275862" y="228.1448275862069"/>
      <point x="110.7896551724138" y="116.80689655172414" type="curve"/>
      <point x="143.0632183908046" y="91.5712643678161" type="line"/>
      <point x="146.45057471264371" y="180.60344827586206"/>
      <point x="189.73908045977012" y="237.2965517241379"/>
      <point x="247.66781609195402" y="237.2965517241379" type="curve" smooth="yes"/>
      <point x="303.93333333333334" y="237.2965517241379"/>
      <point x="328.65172413793107" y="193.18965517241378"/>
      <point x="328.65172413793107" y="148.4551724137931" type="curve" smooth="yes"/>
      <point x="328.65172413793107" y="95.41264367816093"/>
      <point x="297.95977011494256" y="52.51264367816092"/>
      <point x="237.72758620689652" y="52.51264367816092" type="curve" smooth="yes"/>
      <point x="166.7816091954023" y="52.51264367816092"/>
      <point x="110.67816091954023" y="115.4919540229885"/>
      <point x="110.67816091954023" y="232.30229885057472" type="curve" smooth="yes"/>
      <point x="110.67816091954023" y="402.14482758620693"/>
      <point x="274.69770114942526" y="506.8758620689655"/>
      <point x="452.3574712643678" y="506.8758620689655" type="curve" smooth="yes"/>
      <point x="643.7413793103448" y="506.8758620689655"/>
      <point x="782.944827586207" y="397.95402298850576"/>
      <point x="782.944827586207" y="212.37011494252874" type="curve" smooth="yes"/>
      <point x="782.944827586207" y="120.78390804597701"/>
      <point x="748.2229885057471" y="53.0183908045977"/>
      <point x="685.5896551724138" y="53.0183908045977" type="curve" smooth="yes"/>
      <point x="603.8988505747126" y="53.0183908045977"/>
      <point x="596.2459770114943" y="163.06781609195403"/>
      <point x="651.1344827586206" y="260.4057471264367" type="curve"/>
      <point x="589.9390804597703" y="299.2298850574712" type="line"/>
      <point x="426.716091954023" y="137.1873563218391"/>
      <point x="465.21954022988507" y="-47.610344827586204"/>
      <point x="594.3770114942529" y="-109.8919540229885" type="curve"/>
      <point x="594.3770114942529" y="-114.8919540229885" type="line"/>
      <point x="467.25172413793103" y="-130.09425287356322"/>
      <point x="448.767816091954" y="-264.23333333333335"/>
      <point x="324.92528735632186" y="-264.23333333333335" type="curve" smooth="yes"/>
      <point x="275.6574712643678" y="-264.23333333333335"/>
      <point x="240.1885057471264" y="-234.75862068965517"/>
      <point x="240.1885057471264" y="-185.48275862068965" type="curve" smooth="yes"/>
      <point x="240.1885057471264" y="-149.2241379310345"/>
      <point x="256.74252873563216" y="-124.08965517241379"/>
      <point x="292.28965517241386" y="-96.1551724137931" type="curve"/>
      <point x="253.69540229885055" y="-56.07701149425287" type="line"/>
      <point x="205.5034482758621" y="-95.6448275862069"/>
      <point x="183.20459770114942" y="-132.4241379310345"/>
      <point x="183.20459770114942" y="-183.4344827586207" type="curve" smooth="yes"/>
      <point x="183.20459770114942" y="-271.52643678160916"/>
      <point x="254.18045977011494" y="-330.82298850574716"/>
    </contour>
  </outline>
</glyph>
<glyph name="oo-tamil" format="2">
  <advance width="942.0563218390804"/>
  <unicode hex="0B93"/>
  <note>
uni0B93
</note>
  <anchor x="465.5666666666667" y="0.0" name="bottom"/>
  <anchor x="463.5666666666667" y="-308.47586206896557" name="nukta"/>
  <anchor x="458.5666666666667" y="556.6850574712644" name="top"/>
  <anchor x="458.5666666666667" y="556.6850574712644" name="vedic"/>
  <outline>
    <contour>
      <point x="331.9701149425287" y="-344.68390804597703" type="curve" smooth="yes"/>
      <point x="552.1448275862068" y="-344.68390804597703"/>
      <point x="561.4528735632184" y="-144.4586206896552"/>
      <point x="712.3022988505746" y="-144.4586206896552" type="curve" smooth="yes"/>
      <point x="752.5459770114943" y="-144.4586206896552" type="line"/>
      <point x="752.5459770114943" y="-88.21379310344827" type="line"/>
      <point x="709.7436781609196" y="-88.21379310344827" type="line" smooth="yes"/>
      <point x="562.7471264367816" y="-88.21379310344827"/>
      <point x="472.11954022988505" y="59.485057471264376"/>
      <point x="570.8747126436782" y="205.68850574712647" type="curve"/>
      <point x="576.5908045977012" y="202.05517241379312" type="line"/>
      <point x="543.7977011494252" y="105.13678160919541"/>
      <point x="578.4678160919541" y="-4.898850574712644"/>
      <point x="708.228735632184" y="-4.898850574712644" type="curve" smooth="yes"/>
      <point x="811.1275862068966" y="-4.898850574712644"/>
      <point x="890.164367816092" y="74.68045977011494"/>
      <point x="890.164367816092" y="198.5448275862069" type="curve" smooth="yes"/>
      <point x="890.164367816092" y="421.5597701149426"/>
      <point x="694.7298850574712" y="561.6850574712644"/>
      <point x="453.0206896551724" y="561.6850574712644" type="curve" smooth="yes"/>
      <point x="237.43678160919538" y="561.6850574712644"/>
      <point x="52.52528735632184" y="434.17931034482757"/>
      <point x="52.52528735632184" y="233.58620689655172" type="curve" smooth="yes"/>
      <point x="52.52528735632184" y="82.87701149425288"/>
      <point x="142.3850574712644" y="-5.0"/>
      <point x="257.90229885057477" y="-5.0" type="curve" smooth="yes"/>
      <point x="362.9528735632184" y="-5.0"/>
      <point x="429.6333333333333" y="60.60114942528735"/>
      <point x="429.6333333333333" y="153.69425287356322" type="curve" smooth="yes"/>
      <point x="429.6333333333333" y="245.08620689655172"/>
      <point x="373.76666666666665" y="308.9758620689655"/>
      <point x="283.5310344827586" y="308.9758620689655" type="curve" smooth="yes"/>
      <point x="185.72988505747128" y="308.9758620689655"/>
      <point x="116.93103448275862" y="228.1448275862069"/>
      <point x="110.7896551724138" y="116.80689655172414" type="curve"/>
      <point x="143.0632183908046" y="91.5712643678161" type="line"/>
      <point x="146.45057471264371" y="180.60344827586206"/>
      <point x="189.73908045977012" y="237.2965517241379"/>
      <point x="247.66781609195402" y="237.2965517241379" type="curve" smooth="yes"/>
      <point x="303.93333333333334" y="237.2965517241379"/>
      <point x="328.65172413793107" y="193.18965517241378"/>
      <point x="328.65172413793107" y="148.4551724137931" type="curve" smooth="yes"/>
      <point x="328.65172413793107" y="95.41264367816093"/>
      <point x="297.95977011494256" y="52.51264367816092"/>
      <point x="237.72758620689652" y="52.51264367816092" type="curve" smooth="yes"/>
      <point x="166.7816091954023" y="52.51264367816092"/>
      <point x="110.67816091954023" y="115.4919540229885"/>
      <point x="110.67816091954023" y="232.30229885057472" type="curve" smooth="yes"/>
      <point x="110.67816091954023" y="402.14482758620693"/>
      <point x="274.69770114942526" y="506.8758620689655"/>
      <point x="452.3574712643678" y="506.8758620689655" type="curve" smooth="yes"/>
      <point x="643.7413793103448" y="506.8758620689655"/>
      <point x="782.944827586207" y="397.95402298850576"/>
      <point x="782.944827586207" y="212.37011494252874" type="curve" smooth="yes"/>
      <point x="782.944827586207" y="120.78390804597701"/>
      <point x="748.2229885057471" y="53.0183908045977"/>
      <point x="685.5896551724138" y="53.0183908045977" type="curve" smooth="yes"/>
      <point x="603.8988505747126" y="53.0183908045977"/>
      <point x="593.6252873563219" y="163.06781609195403"/>
      <point x="648.6885057471264" y="260.4057471264367" type="curve"/>
      <point x="587.4931034482759" y="299.2298850574712" type="line"/>
      <point x="423.11379310344824" y="136.48850574712642"/>
      <point x="462.38045977011495" y="-47.95977011494253"/>
      <point x="592.4114942528736" y="-110.24137931034483" type="curve"/>
      <point x="592.4114942528736" y="-115.24137931034483" type="line"/>
      <point x="464.5218390804598" y="-131.51379310344825"/>
      <point x="446.5988505747127" y="-279.98390804597705"/>
      <point x="302.27126436781606" y="-279.98390804597705" type="curve" smooth="yes"/>
      <point x="241.11724137931037" y="-279.98390804597705"/>
      <point x="210.75632183908047" y="-245.57816091954024"/>
      <point x="210.75632183908047" y="-201.83908045977012" type="curve" smooth="yes"/>
      <point x="210.75632183908047" y="-162.85172413793103"/>
      <point x="243.71379310344827" y="-137.18620689655174"/>
      <point x="278.6643678160919" y="-137.18620689655174" type="curve" smooth="yes"/>
      <point x="314.6896551724138" y="-137.18620689655174"/>
      <point x="344.04942528735637" y="-155.59425287356322"/>
      <point x="356.832183908046" y="-195.09310344827585" type="curve"/>
      <point x="389.2931034482759" y="-180.54597701149424"/>
      <point x="411.40804597701145" y="-152.95632183908046"/>
      <point x="411.40804597701145" y="-125.82988505747126" type="curve" smooth="yes"/>
      <point x="411.40804597701145" y="-80.87011494252874"/>
      <point x="366.33563218390805" y="-55.91149425287356"/>
      <point x="314.6379310344828" y="-55.91149425287356" type="curve" smooth="yes"/>
      <point x="236.2241379310345" y="-55.91149425287356"/>
      <point x="155.57471264367817" y="-106.18505747126437"/>
      <point x="155.57471264367817" y="-197.48965517241382" type="curve" smooth="yes"/>
      <point x="155.57471264367817" y="-289.81839080459775"/>
      <point x="233.12183908045975" y="-344.68390804597703"/>
    </contour>
  </outline>
</glyph>
<glyph name="au-tamil" format="2">
  <advance width="2085.28275862069"/>
  <unicode hex="0B94"/>
  <note>
uni0B94
</note>
  <anchor x="1065.5666666666666" y="0.0" name="bottom"/>
  <anchor x="1148.2333333333333" y="0.0" name="nukta"/>
  <anchor x="1058.6678160919541" y="556.6850574712644" name="top"/>
  <anchor x="1058.6678160919541" y="556.6850574712644" name="vedic"/>
  <outline>
    <contour>
      <point x="1175.8942528735631" y="-4.541379310344827" type="curve" smooth="yes"/>
      <point x="1280.8183908045978" y="-4.541379310344827"/>
      <point x="1348.3241379310346" y="60.60114942528735"/>
      <point x="1348.3241379310346" y="153.69425287356322" type="curve" smooth="yes"/>
      <point x="1348.3241379310346" y="245.08620689655172"/>
      <point x="1291.9988505747126" y="308.9758620689655"/>
      <point x="1200.7988505747128" y="308.9758620689655" type="curve" smooth="yes"/>
      <point x="1103.7218390804599" y="308.9758620689655"/>
      <point x="1035.7965517241378" y="228.84367816091952"/>
      <point x="1029.2149425287355" y="118.55402298850574" type="curve"/>
      <point x="1061.562068965517" y="93.3183908045977" type="line"/>
      <point x="1065.2149425287355" y="181.47701149425288"/>
      <point x="1107.7310344827586" y="237.2965517241379"/>
      <point x="1164.935632183908" y="237.2965517241379" type="curve" smooth="yes"/>
      <point x="1222.2574712643677" y="237.2965517241379"/>
      <point x="1247.1505747126437" y="193.18965517241378"/>
      <point x="1247.1505747126437" y="148.4551724137931" type="curve" smooth="yes"/>
      <point x="1247.1505747126437" y="95.41264367816093"/>
      <point x="1216.7241379310344" y="52.51264367816092"/>
      <point x="1155.719540229885" y="52.51264367816092" type="curve" smooth="yes"/>
      <point x="1082.7172413793103" y="52.51264367816092"/>
      <point x="1027.796551724138" y="124.24942528735632"/>
      <point x="1027.796551724138" y="252.8425287356322" type="curve" smooth="yes"/>
      <point x="1027.796551724138" y="410.98160919540226"/>
      <point x="1123.8241379310346" y="505.1471264367816"/>
      <point x="1271.5850574712645" y="505.1471264367816" type="curve" smooth="yes"/>
      <point x="1407.5712643678162" y="505.1471264367816"/>
      <point x="1504.66091954023" y="426.93448275862073"/>
      <point x="1504.66091954023" y="280.31839080459775" type="curve"/>
      <point x="1561.151724137931" y="286.76321839080464" type="line"/>
      <point x="1550.7160919540229" y="471.1183908045977"/>
      <point x="1430.6471264367817" y="561.6850574712644"/>
      <point x="1267.8574712643679" y="561.6850574712644" type="curve" smooth="yes"/>
      <point x="1091.8057471264367" y="561.6850574712644"/>
      <point x="969.1850574712644" y="447.58160919540234"/>
      <point x="969.1850574712644" y="254.1183908045977" type="curve" smooth="yes"/>
      <point x="969.1850574712644" y="90.42988505747127"/>
      <point x="1058.4850574712643" y="-4.541379310344827"/>
    </contour>
    <contour>
      <point x="1504.9264367816095" y="0.0" type="line"/>
      <point x="1614.3620689655172" y="0.0" type="line"/>
      <point x="1614.3620689655172" y="500.8551724137931" type="line"/>
      <point x="1805.6149425287358" y="500.8551724137931" type="line"/>
      <point x="1805.6149425287358" y="0.0" type="line"/>
      <point x="1915.1425287356324" y="0.0" type="line"/>
      <point x="1915.1425287356324" y="500.8551724137931" type="line"/>
      <point x="2065.671264367816" y="500.8551724137931" type="line"/>
      <point x="2065.671264367816" y="556.6850574712644" type="line"/>
      <point x="1520.6540229885059" y="556.6850574712644" type="line"/>
      <point x="1520.6540229885059" y="378.4022988505747" type="line"/>
      <point x="1504.9264367816095" y="378.21149425287354" type="line"/>
    </contour>
    <component base="o-tamil"/>
  </outline>
</glyph>
<glyph name="nga-tamil" format="2">
  <advance width="951.3057471264369"/>
  <unicode hex="0B99"/>
  <note>
uni0B99
</note>
  <anchor x="474.7850574712644" y="0.0" name="bottom"/>
  <anchor x="526.9218390804597" y="556.6850574712644" name="imatra"/>
  <anchor x="474.6563218390804" y="0.0" name="nukta"/>
  <anchor x="475.9172413793103" y="556.6850574712644" name="top"/>
  <anchor x="475.06091954022986" y="556.6850574712644" name="vedic"/>
  <outline>
    <contour>
      <point x="87.05632183908045" y="0.0" type="line"/>
      <point x="148.4816091954023" y="0.0" type="line"/>
      <point x="148.4816091954023" y="500.8551724137931" type="line"/>
      <point x="292.17931034482757" y="500.8551724137931" type="line"/>
      <point x="292.17931034482757" y="191.2183908045977" type="line"/>
      <point x="397.6908045977012" y="191.2183908045977" type="line"/>
      <point x="397.6908045977012" y="228.69080459770112" type="line" smooth="yes"/>
      <point x="397.6908045977012" y="276.08045977011494"/>
      <point x="425.58965517241376" y="307.4701149425287"/>
      <point x="465.94597701149434" y="307.4701149425287" type="curve" smooth="yes"/>
      <point x="509.5574712643678" y="307.4701149425287"/>
      <point x="540.5011494252874" y="272.0977011494253"/>
      <point x="540.5011494252874" y="208.85977011494253" type="curve" smooth="yes"/>
      <point x="540.5011494252874" y="100.00919540229886"/>
      <point x="461.73333333333335" y="55.93103448275862"/>
      <point x="394.648275862069" y="55.93103448275862" type="curve" smooth="yes"/>
      <point x="292.17931034482757" y="55.93103448275862" type="line"/>
      <point x="292.17931034482757" y="0.0" type="line"/>
      <point x="864.3689655172413" y="0.0" type="line"/>
      <point x="864.3689655172413" y="556.6850574712644" type="line"/>
      <point x="753.2448275862068" y="556.6850574712644" type="line"/>
      <point x="753.2448275862068" y="55.93103448275862" type="line"/>
      <point x="518.1666666666666" y="55.93103448275862" type="line"/>
      <point x="581.5517241379312" y="73.00229885057472"/>
      <point x="645.8218390804598" y="133.95632183908046"/>
      <point x="645.8218390804598" y="227.83908045977012" type="curve" smooth="yes"/>
      <point x="645.8218390804598" y="318.93103448275855"/>
      <point x="588.3195402298851" y="380.71034482758625"/>
      <point x="507.1091954022989" y="380.71034482758625" type="curve" smooth="yes"/>
      <point x="447.5298850574713" y="380.71034482758625"/>
      <point x="411.95517241379304" y="345.9977011494253"/>
      <point x="399.77586206896547" y="319.69310344827585" type="curve"/>
      <point x="399.77586206896547" y="500.8551724137931" type="line"/>
      <point x="551.5022988505747" y="500.8551724137931" type="line"/>
      <point x="551.5022988505747" y="556.6850574712644" type="line"/>
      <point x="87.05632183908045" y="556.6850574712644" type="line"/>
    </contour>
  </outline>
</glyph>
<glyph name="tta-tamil" format="2">
  <advance width="837.0586206896552"/>
  <unicode hex="0B9F"/>
  <note>
uni0B9F
</note>
  <anchor x="442.86781609195407" y="0.0" name="bottom"/>
  <anchor x="442.86781609195407" y="0.0" name="nukta"/>
  <anchor x="480.24827586206897" y="556.6850574712644" name="top"/>
  <anchor x="454.8252873563219" y="556.6850574712644" name="vedic"/>
  <outline>
    <contour>
      <point x="87.05632183908045" y="0.0" type="line"/>
      <point x="822.7965517241379" y="0.0" type="line"/>
      <point x="822.7965517241379" y="55.93103448275862" type="line"/>
      <point x="197.45632183908046" y="55.93103448275862" type="line"/>
      <point x="197.45632183908046" y="556.6850574712644" type="line"/>
      <point x="87.05632183908045" y="556.6850574712644" type="line"/>
    </contour>
  </outline>
</glyph>
<glyph name="ta-tamil" format="2">
  <advance width="797.3735632183908"/>
  <unicode hex="0BA4"/>
  <note>
uni0BA4
</note>
  <anchor x="395.38850574712643" y="0.0" name="bottom"/>
  <anchor x="556.0034482758621" y="556.6850574712644" name="imatra"/>
  <anchor x="413.9172413793104" y="-138.29885057471265" name="nukta"/>
  <anchor x="416.5770114942528" y="556.6850574712644" name="top"/>
  <anchor x="400.81609195402297" y="556.6850574712644" name="vedic"/>
  <outline>
    <contour>
      <point x="156.64827586206897" y="-250.8287356321839" type="curve"/>
      <point x="156.64827586206897" y="-177.40459770114944"/>
      <point x="176.09310344827585" y="-133.30459770114945"/>
      <point x="268.71724137931034" y="-133.30459770114945" type="curve" smooth="yes"/>
      <point x="417.3528735632184" y="-133.30459770114945" type="line" smooth="yes"/>
      <point x="634.3183908045978" y="-133.30459770114945"/>
      <point x="745.2885057471265" y="-54.98275862068966"/>
      <point x="745.2885057471265" y="102.99425287356323" type="curve" smooth="yes"/>
      <point x="745.2885057471265" y="241.3586206896552"/>
      <point x="645.4241379310345" y="320.4850574712644"/>
      <point x="504.9873563218391" y="320.4850574712644" type="curve" smooth="yes"/>
      <point x="486.3402298850575" y="320.4850574712644" type="line"/>
      <point x="486.3402298850575" y="500.75402298850577" type="line"/>
      <point x="638.6356321839081" y="500.75402298850577" type="line"/>
      <point x="638.6356321839081" y="556.6850574712644" type="line"/>
      <point x="177.583908045977" y="556.6850574712644" type="line"/>
      <point x="177.583908045977" y="291.7011494252873" type="line"/>
      <point x="238.61839080459765" y="291.7011494252873" type="line"/>
      <point x="238.61839080459765" y="500.75402298850577" type="line"/>
      <point x="375.62873563218386" y="500.75402298850577" type="line"/>
      <point x="375.62873563218386" y="320.65977011494255" type="line"/>
      <point x="226.06551724137933" y="320.65977011494255" type="line" smooth="yes"/>
      <point x="122.52183908045976" y="320.65977011494255"/>
      <point x="56.02988505747126" y="257.71034482758625"/>
      <point x="56.02988505747126" y="164.20689655172413" type="curve" smooth="yes"/>
      <point x="56.02988505747126" y="61.845977011494256"/>
      <point x="136.3137931034483" y="-4.0"/>
      <point x="256.7701149425287" y="-4.0" type="curve" smooth="yes"/>
      <point x="405.1034482758621" y="-4.0"/>
      <point x="486.3402298850575" y="76.87931034482759"/>
      <point x="486.3402298850575" y="204.91954022988506" type="curve" smooth="yes"/>
      <point x="486.3402298850575" y="264.0298850574713" type="line"/>
      <point x="503.81149425287356" y="264.0298850574713" type="line" smooth="yes"/>
      <point x="584.4758620689655" y="264.0298850574713"/>
      <point x="637.2183908045977" y="203.79195402298848"/>
      <point x="637.2183908045977" y="105.93908045977011" type="curve" smooth="yes"/>
      <point x="637.2183908045977" y="-16.53448275862069"/>
      <point x="555.4988505747126" y="-83.73218390804598"/>
      <point x="388.2402298850575" y="-83.73218390804598" type="curve" smooth="yes"/>
      <point x="227.2344827586207" y="-83.73218390804598" type="line" smooth="yes"/>
      <point x="139.83908045977012" y="-83.73218390804598"/>
      <point x="60.831034482758625" y="-101.00114942528735"/>
      <point x="60.831034482758625" y="-175.96436781609196" type="curve" smooth="yes"/>
      <point x="60.831034482758625" y="-227.99885057471263"/>
      <point x="96.63333333333333" y="-250.8287356321839"/>
    </contour>
    <contour>
      <point x="244.4310344827586" y="52.61379310344827" type="curve" smooth="yes"/>
      <point x="168.42183908045976" y="52.61379310344827"/>
      <point x="119.11954022988508" y="90.80000000000001"/>
      <point x="119.11954022988508" y="162.3816091954023" type="curve" smooth="yes"/>
      <point x="119.11954022988508" y="223.85517241379313"/>
      <point x="157.11379310344827" y="264.7287356321839"/>
      <point x="234.26896551724138" y="264.7287356321839" type="curve" smooth="yes"/>
      <point x="375.62873563218386" y="264.7287356321839" type="line"/>
      <point x="375.62873563218386" y="193.99310344827586" type="line" smooth="yes"/>
      <point x="375.62873563218386" y="94.74022988505746"/>
      <point x="317.4241379310345" y="52.61379310344827"/>
    </contour>
  </outline>
</glyph>
<glyph name="nnna-tamil" format="2">
  <advance width="1247.4206896551723"/>
  <unicode hex="0BA9"/>
  <note>
uni0BA9
</note>
  <anchor x="616.783908045977" y="0.0" name="bottom"/>
  <anchor x="1093.8137931034485" y="556.6850574712644" name="imatra"/>
  <anchor x="616.9862068965517" y="0.0" name="nukta"/>
  <anchor x="645.390804597701" y="556.6850574712644" name="top"/>
  <anchor x="641.5827586206896" y="556.6850574712644" name="vedic"/>
  <outline>
    <contour>
      <point x="258.8781609195402" y="-4.541379310344827" type="curve" smooth="yes"/>
      <point x="364.067816091954" y="-4.541379310344827"/>
      <point x="431.1149425287357" y="60.60114942528735"/>
      <point x="431.1149425287357" y="153.69425287356322" type="curve" smooth="yes"/>
      <point x="431.1149425287357" y="245.08620689655172"/>
      <point x="375.24827586206897" y="308.9758620689655"/>
      <point x="283.9471264367816" y="308.9758620689655" type="curve" smooth="yes"/>
      <point x="186.9712643678161" y="308.9758620689655"/>
      <point x="119.31149425287359" y="228.84367816091952"/>
      <point x="112.99540229885058" y="118.55402298850574" type="curve"/>
      <point x="145.44367816091955" y="93.3183908045977" type="line"/>
      <point x="148.8310344827586" y="181.47701149425288"/>
      <point x="190.98045977011495" y="237.2965517241379"/>
      <point x="248.083908045977" y="237.2965517241379" type="curve" smooth="yes"/>
      <point x="305.60804597701144" y="237.2965517241379"/>
      <point x="330.40000000000003" y="193.18965517241378"/>
      <point x="330.40000000000003" y="148.4551724137931" type="curve" smooth="yes"/>
      <point x="330.40000000000003" y="95.41264367816093"/>
      <point x="299.97356321839084" y="52.51264367816092"/>
      <point x="238.9689655172414" y="52.51264367816092" type="curve" smooth="yes"/>
      <point x="167.94022988505748" y="52.51264367816092"/>
      <point x="110.67816091954023" y="117.65402298850574"/>
      <point x="110.67816091954023" y="238.47241379310344" type="curve" smooth="yes"/>
      <point x="110.67816091954023" y="412.50459770114946"/>
      <point x="249.3218390804598" y="505.55172413793105"/>
      <point x="414.0873563218391" y="505.55172413793105" type="curve" smooth="yes"/>
      <point x="606.3195402298851" y="505.55172413793105"/>
      <point x="734.135632183908" y="389.8252873563218"/>
      <point x="734.135632183908" y="189.71609195402297" type="curve" smooth="yes"/>
      <point x="734.135632183908" y="106.67816091954023"/>
      <point x="704.9252873563219" y="52.61379310344827"/>
      <point x="645.9574712643678" y="52.61379310344827" type="curve" smooth="yes"/>
      <point x="588.2275862068966" y="52.61379310344827"/>
      <point x="561.5758620689655" y="106.99885057471265"/>
      <point x="561.5758620689655" y="189.69310344827585" type="curve" smooth="yes"/>
      <point x="561.5758620689655" y="371.97241379310344"/>
      <point x="686.0298850574712" y="500.8551724137931"/>
      <point x="882.8678160919541" y="500.8551724137931" type="curve" smooth="yes"/>
      <point x="1227.8091954022989" y="500.8551724137931" type="line"/>
      <point x="1227.8091954022989" y="556.6850574712644" type="line"/>
      <point x="889.480459770115" y="556.6850574712644" type="line" smooth="yes"/>
      <point x="660.8413793103448" y="556.6850574712644"/>
      <point x="503.9" y="407.1908045977011"/>
      <point x="503.9" y="195.1919540229885" type="curve" smooth="yes"/>
      <point x="503.9" y="72.10000000000001"/>
      <point x="558.171264367816" y="-4.898850574712644"/>
      <point x="666.3011494252873" y="-4.898850574712644" type="curve" smooth="yes"/>
      <point x="771.4735632183907" y="-4.898850574712644"/>
      <point x="841.5333333333334" y="70.69195402298851"/>
      <point x="841.5333333333334" y="192.86206896551727" type="curve" smooth="yes"/>
      <point x="841.5333333333334" y="411.7310344827586"/>
      <point x="657.7057471264367" y="561.6850574712644"/>
      <point x="423.3528735632184" y="561.6850574712644" type="curve" smooth="yes"/>
      <point x="223.2551724137931" y="561.6850574712644"/>
      <point x="52.52528735632184" y="448.9057471264368"/>
      <point x="52.52528735632184" y="240.84022988505745" type="curve" smooth="yes"/>
      <point x="52.52528735632184" y="84.00919540229886"/>
      <point x="144.44252873563218" y="-4.541379310344827"/>
    </contour>
    <contour>
      <point x="967.312643678161" y="0.0" type="line"/>
      <point x="1077.1057471264369" y="0.0" type="line"/>
      <point x="1077.1057471264369" y="529.8827586206896" type="line"/>
      <point x="967.312643678161" y="529.8827586206896" type="line"/>
    </contour>
  </outline>
</glyph>
<glyph name="pa-tamil" format="2">
  <advance width="835.9149425287357"/>
  <unicode hex="0BAA"/>
  <note>
uni0BAA
</note>
  <anchor x="419.2091954022988" y="0.0" name="bottom"/>
  <anchor x="740.6827586206897" y="556.6850574712644" name="imatra"/>
  <anchor x="419.2091954022988" y="0.0" name="nukta"/>
  <anchor x="418.080459770115" y="556.6850574712644" name="top"/>
  <anchor x="418.80459770114936" y="556.6850574712644" name="vedic"/>
  <outline>
    <contour>
      <point x="87.05632183908045" y="0.0" type="line"/>
      <point x="748.9781609195402" y="0.0" type="line"/>
      <point x="748.9781609195402" y="556.6850574712644" type="line"/>
      <point x="638.4862068965518" y="556.6850574712644" type="line"/>
      <point x="638.4862068965518" y="55.93103448275862" type="line"/>
      <point x="196.7574712643678" y="55.93103448275862" type="line"/>
      <point x="196.7574712643678" y="556.6850574712644" type="line"/>
      <point x="87.05632183908045" y="556.6850574712644" type="line"/>
    </contour>
  </outline>
</glyph>
<glyph name="ma-tamil" format="2">
  <advance width="852.0413793103448"/>
  <unicode hex="0BAE"/>
  <note>
uni0BAE
</note>
  <anchor x="425.23448275862063" y="0.0" name="bottom"/>
  <anchor x="751.9068965517242" y="556.6850574712644" name="imatra"/>
  <anchor x="426.0597701149425" y="0.0" name="nukta"/>
  <anchor x="461.20919540229886" y="556.6850574712644" name="top"/>
  <anchor x="441.29195402298853" y="556.6850574712644" name="vedic"/>
  <outline>
    <contour>
      <point x="87.05632183908045" y="0.0" type="line"/>
      <point x="641.028735632184" y="0.0" type="line" smooth="yes"/>
      <point x="756.7758620689655" y="0.0"/>
      <point x="795.5149425287357" y="78.27241379310344"/>
      <point x="795.5149425287357" y="238.41149425287355" type="curve" smooth="yes"/>
      <point x="795.5149425287357" y="446.03563218390804"/>
      <point x="702.6080459770116" y="561.8597701149424"/>
      <point x="575.1057471264369" y="561.8597701149424" type="curve" smooth="yes"/>
      <point x="472.1333333333333" y="561.8597701149424"/>
      <point x="409.7218390804598" y="496.8977011494253"/>
      <point x="409.7218390804598" y="386.37701149425294" type="curve" smooth="yes"/>
      <point x="409.7218390804598" y="55.93103448275862" type="line"/>
      <point x="197.45632183908046" y="55.93103448275862" type="line"/>
      <point x="197.45632183908046" y="556.6850574712644" type="line"/>
      <point x="87.05632183908045" y="556.6850574712644" type="line"/>
    </contour>
    <contour>
      <point x="520.2310344827587" y="55.93103448275862" type="line"/>
      <point x="520.2310344827587" y="389.4275862068966" type="line" smooth="yes"/>
      <point x="520.2310344827587" y="467.2540229885057"/>
      <point x="550.8057471264367" y="499.01609195402295"/>
      <point x="599.3494252873564" y="499.01609195402295" type="curve" smooth="yes"/>
      <point x="661.0931034482759" y="499.01609195402295"/>
      <point x="733.9390804597701" y="415.50574712643675"/>
      <point x="733.9390804597701" y="237.4873563218391" type="curve" smooth="yes"/>
      <point x="733.9390804597701" y="121.27241379310347"/>
      <point x="719.2114942528736" y="55.93103448275862"/>
      <point x="633.6632183908047" y="55.93103448275862" type="curve" smooth="yes"/>
    </contour>
  </outline>
</glyph>
<glyph name="ya-tamil" format="2">
  <advance width="915.1540229885057"/>
  <unicode hex="0BAF"/>
  <note>
uni0BAF
</note>
  <anchor x="478.68850574712644" y="0.0" name="bottom"/>
  <anchor x="819.519540229885" y="556.6850574712644" name="imatra"/>
  <anchor x="479.38390804597697" y="0.0" name="nukta"/>
  <anchor x="481.019540229885" y="556.6850574712644" name="top"/>
  <anchor x="457.3091954022988" y="556.6850574712644" name="vedic"/>
  <outline>
    <contour>
      <point x="229.5689655172414" y="-6.1770114942528735" type="curve" smooth="yes"/>
      <point x="302.516091954023" y="-6.1770114942528735"/>
      <point x="339.1" y="40.99655172413793"/>
      <point x="350.93103448275866" y="65.03793103448275" type="curve"/>
      <point x="350.93103448275866" y="0.0" type="line"/>
      <point x="828.2172413793103" y="0.0" type="line"/>
      <point x="828.2172413793103" y="556.6850574712644" type="line"/>
      <point x="717.5333333333333" y="556.6850574712644" type="line"/>
      <point x="717.5333333333333" y="55.93103448275862" type="line"/>
      <point x="451.9850574712643" y="55.93103448275862" type="line"/>
      <point x="451.9850574712643" y="556.6850574712644" type="line"/>
      <point x="343.07356321839086" y="556.6850574712644" type="line"/>
      <point x="343.07356321839086" y="152.4735632183908" type="line" smooth="yes"/>
      <point x="343.07356321839086" y="95.40689655172413"/>
      <point x="312.4850574712644" y="58.160919540229884"/>
      <point x="264.5586206896552" y="58.160919540229884" type="curve" smooth="yes"/>
      <point x="223.77701149425286" y="58.160919540229884"/>
      <point x="193.14367816091954" y="86.83908045977012"/>
      <point x="193.14367816091954" y="147.22528735632181" type="curve" smooth="yes"/>
      <point x="193.14367816091954" y="556.6850574712644" type="line"/>
      <point x="83.47816091954023" y="556.6850574712644" type="line"/>
      <point x="83.47816091954023" y="160.8229885057471" type="line" smooth="yes"/>
      <point x="83.47816091954023" y="49.83218390804598"/>
      <point x="139.39655172413794" y="-6.1770114942528735"/>
    </contour>
  </outline>
</glyph>
<glyph name="ra-tamil" format="2">
  <advance width="609.5620689655173"/>
  <unicode hex="0BB0"/>
  <note>
uni0BB0
</note>
  <anchor x="303.00574712643675" y="0.0" name="bottom"/>
  <anchor x="517.6954022988507" y="556.6850574712644" name="imatra"/>
  <anchor x="303.00574712643675" y="-206.79770114942528" name="nukta"/>
  <anchor x="325.5712643678161" y="556.6850574712644" name="top"/>
  <anchor x="337.35747126436786" y="556.6850574712644" name="vedic"/>
  <outline>
    <contour>
      <point x="195.81839080459773" y="-235.40689655172415" type="line"/>
      <point x="439.6873563218391" y="23.77126436781609" type="line"/>
      <point x="439.6873563218391" y="500.8551724137931" type="line"/>
      <point x="589.9505747126437" y="500.8551724137931" type="line"/>
      <point x="589.9505747126437" y="556.6850574712644" type="line"/>
      <point x="87.05632183908045" y="556.6850574712644" type="line"/>
      <point x="87.05632183908045" y="0.0" type="line"/>
      <point x="149.07241379310344" y="0.0" type="line"/>
      <point x="149.07241379310344" y="500.8551724137931" type="line"/>
      <point x="328.93793103448274" y="500.8551724137931" type="line"/>
      <point x="328.93793103448274" y="-5.414942528735633" type="line"/>
      <point x="152.67011494252873" y="-194.07816091954024" type="line"/>
    </contour>
  </outline>
</glyph>
<glyph name="rra-tamil" format="2">
  <advance width="824.4333333333333"/>
  <unicode hex="0BB1"/>
  <note>
uni0BB1
</note>
  <anchor x="420.48275862068965" y="0.0" name="bottom"/>
  <anchor x="418.4183908045977" y="-195.64367816091954" name="nukta"/>
  <anchor x="399.2011494252874" y="556.6850574712644" name="top"/>
  <anchor x="428.64827586206894" y="556.6850574712644" name="vedic"/>
  <outline>
    <contour>
      <point x="180.43563218390804" y="-250.1574712643678" type="curve"/>
      <point x="180.43563218390804" y="-177.87241379310345"/>
      <point x="199.84252873563216" y="-133.38620689655173"/>
      <point x="292.2206896551724" y="-133.38620689655173" type="curve" smooth="yes"/>
      <point x="400.7574712643679" y="-133.38620689655173" type="line" smooth="yes"/>
      <point x="621.7080459770115" y="-133.38620689655173"/>
      <point x="772.2390804597701" y="-24.8367816091954"/>
      <point x="772.2390804597701" y="242.58735632183908" type="curve" smooth="yes"/>
      <point x="772.2390804597701" y="419.1896551724138"/>
      <point x="705.903448275862" y="561.6850574712644"/>
      <point x="537.5781609195403" y="561.6850574712644" type="curve" smooth="yes"/>
      <point x="446.57816091954027" y="561.6850574712644"/>
      <point x="397.5471264367816" y="512.567816091954"/>
      <point x="377.9114942528736" y="470.43563218390807" type="curve"/>
      <point x="362.7252873563218" y="509.864367816092"/>
      <point x="323.78850574712646" y="560.7862068965517"/>
      <point x="242.87011494252872" y="560.7862068965517" type="curve" smooth="yes"/>
      <point x="162.17701149425287" y="560.7862068965517"/>
      <point x="101.00574712643679" y="507.97356321839084"/>
      <point x="101.00574712643679" y="406.6678160919541" type="curve" smooth="yes"/>
      <point x="101.00574712643679" y="0.0" type="line"/>
      <point x="162.38965517241377" y="0.0" type="line"/>
      <point x="162.38965517241377" y="404.3241379310345" type="line" smooth="yes"/>
      <point x="162.38965517241377" y="470.9862068965518"/>
      <point x="192.41724137931035" y="503.5770114942529"/>
      <point x="240.63678160919542" y="503.5770114942529" type="curve" smooth="yes"/>
      <point x="293.632183908046" y="503.5770114942529"/>
      <point x="320.11954022988505" y="462.9689655172414"/>
      <point x="320.11954022988505" y="395.92413793103447" type="curve" smooth="yes"/>
      <point x="320.11954022988505" y="0.0" type="line"/>
      <point x="431.0333333333333" y="0.0" type="line"/>
      <point x="431.0333333333333" y="392.39540229885057" type="line" smooth="yes"/>
      <point x="431.0333333333333" y="463.0252873563218"/>
      <point x="473.3724137931035" y="504.4758620689655"/>
      <point x="529.7919540229885" y="504.4758620689655" type="curve" smooth="yes"/>
      <point x="605.0908045977012" y="504.4758620689655"/>
      <point x="658.5275862068966" y="443.26206896551724"/>
      <point x="658.5275862068966" y="250.11609195402298" type="curve" smooth="yes"/>
      <point x="658.5275862068966" y="10.496551724137932"/>
      <point x="556.8563218390805" y="-81.31839080459771"/>
      <point x="393.29310344827593" y="-81.31839080459771" type="curve" smooth="yes"/>
      <point x="251.3885057471264" y="-81.31839080459771" type="line" smooth="yes"/>
      <point x="164.06666666666666" y="-81.31839080459771"/>
      <point x="84.79310344827587" y="-100.56896551724138"/>
      <point x="84.79310344827587" y="-176.26781609195402" type="curve" smooth="yes"/>
      <point x="84.79310344827587" y="-228.1"/>
      <point x="124.24482758620691" y="-250.1574712643678"/>
    </contour>
  </outline>
</glyph>
<glyph name="la-tamil" format="2">
  <advance width="989.109195402299"/>
  <unicode hex="0BB2"/>
  <note>
uni0BB2
</note>
  <anchor x="493.86551724137934" y="0.0" name="bottom"/>
  <anchor x="493.764367816092" y="0.0" name="nukta"/>
  <anchor x="520.403448275862" y="556.6850574712644" name="top"/>
  <anchor x="491.9022988505747" y="556.6850574712644" name="vedic"/>
  <outline>
    <contour>
      <point x="259.2344827586207" y="-4.541379310344827" type="curve" smooth="yes"/>
      <point x="364.5252873563218" y="-4.541379310344827"/>
      <point x="431.38045977011495" y="60.60114942528735"/>
      <point x="431.38045977011495" y="153.69425287356322" type="curve" smooth="yes"/>
      <point x="431.38045977011495" y="245.08620689655172"/>
      <point x="375.5137931034483" y="308.9758620689655"/>
      <point x="284.4045977011494" y="308.9758620689655" type="curve" smooth="yes"/>
      <point x="187.06206896551726" y="308.9758620689655"/>
      <point x="119.13678160919541" y="228.84367816091952"/>
      <point x="112.82068965517242" y="118.55402298850574" type="curve"/>
      <point x="145.26896551724138" y="93.3183908045977" type="line"/>
      <point x="148.65632183908048" y="181.47701149425288"/>
      <point x="191.0712643678161" y="237.2965517241379"/>
      <point x="248.54137931034484" y="237.2965517241379" type="curve" smooth="yes"/>
      <point x="305.96436781609196" y="237.2965517241379"/>
      <point x="330.8574712643678" y="193.18965517241378"/>
      <point x="330.8574712643678" y="148.4551724137931" type="curve" smooth="yes"/>
      <point x="330.8574712643678" y="95.41264367816093"/>
      <point x="300.1655172413793" y="52.51264367816092"/>
      <point x="239.05977011494255" y="52.51264367816092" type="curve" smooth="yes"/>
      <point x="167.69885057471268" y="52.51264367816092"/>
      <point x="110.67816091954023" y="121.4977011494253"/>
      <point x="110.67816091954023" y="244.58735632183908" type="curve" smooth="yes"/>
      <point x="110.67816091954023" y="405.5206896551724"/>
      <point x="200.93103448275863" y="505.24827586206897"/>
      <point x="343.52413793103455" y="505.24827586206897" type="curve" smooth="yes"/>
      <point x="466.432183908046" y="505.24827586206897"/>
      <point x="534.2126436781609" y="429.73908045977015"/>
      <point x="534.3137931034482" y="310.3908045977011" type="curve" smooth="yes"/>
      <point x="534.3137931034482" y="172.98390804597702" type="line" smooth="yes"/>
      <point x="534.3137931034482" y="58.11954022988506"/>
      <point x="606.4229885057472" y="-1.0758620689655176"/>
      <point x="709.1321839080459" y="-1.0758620689655176" type="curve" smooth="yes"/>
      <point x="845.4977011494253" y="-1.0758620689655176"/>
      <point x="932.7758620689656" y="121.99425287356323"/>
      <point x="932.7758620689656" y="284.33333333333337" type="curve" smooth="yes"/>
      <point x="932.7758620689656" y="384.3632183908046"/>
      <point x="906.8275862068965" y="472.56666666666666"/>
      <point x="833.9241379310345" y="561.5103448275862" type="curve"/>
      <point x="790.0758620689655" y="527.9471264367816" type="line"/>
      <point x="851.9620689655173" y="453.8344827586207"/>
      <point x="876.3563218390805" y="374.6206896551724"/>
      <point x="876.3563218390805" y="289.47816091954024" type="curve" smooth="yes"/>
      <point x="876.3563218390805" y="158.65977011494255"/>
      <point x="813.7034482758621" y="59.68965517241379"/>
      <point x="728.5655172413793" y="59.68965517241379" type="curve" smooth="yes"/>
      <point x="671.6252873563219" y="59.68965517241379"/>
      <point x="644.7494252873563" y="93.50000000000001"/>
      <point x="644.7494252873563" y="169.73103448275862" type="curve" smooth="yes"/>
      <point x="644.7494252873563" y="312.19425287356324" type="line" smooth="yes"/>
      <point x="644.7494252873563" y="466.5781609195402"/>
      <point x="525.4977011494252" y="561.6850574712644"/>
      <point x="357.97356321839084" y="561.6850574712644" type="curve" smooth="yes"/>
      <point x="172.4264367816092" y="561.6850574712644"/>
      <point x="52.52528735632184" y="439.7298850574713"/>
      <point x="52.52528735632184" y="246.78045977011493" type="curve" smooth="yes"/>
      <point x="52.52528735632184" y="87.67816091954023"/>
      <point x="143.76091954022985" y="-4.541379310344827"/>
    </contour>
  </outline>
</glyph>
<glyph name="va-tamil" format="2">
  <advance width="1066.151724137931"/>
  <unicode hex="0BB5"/>
  <note>
uni0BB5
</note>
  <anchor x="571.2436781609196" y="0.0" name="bottom"/>
  <anchor x="883.4252873563219" y="556.6850574712644" name="imatra"/>
  <anchor x="570.6367816091954" y="0.0" name="nukta"/>
  <anchor x="536.883908045977" y="556.6850574712644" name="top"/>
  <anchor x="517.3252873563218" y="556.6850574712644" name="vedic"/>
  <outline>
    <contour>
      <point x="259.2344827586207" y="-4.541379310344827" type="curve" smooth="yes"/>
      <point x="364.5252873563218" y="-4.541379310344827"/>
      <point x="431.38045977011495" y="60.60114942528735"/>
      <point x="431.38045977011495" y="153.69425287356322" type="curve" smooth="yes"/>
      <point x="431.38045977011495" y="245.08620689655172"/>
      <point x="375.5137931034483" y="308.9758620689655"/>
      <point x="284.4045977011494" y="308.9758620689655" type="curve" smooth="yes"/>
      <point x="187.06206896551726" y="308.9758620689655"/>
      <point x="119.13678160919541" y="228.84367816091952"/>
      <point x="112.82068965517242" y="118.55402298850574" type="curve"/>
      <point x="145.26896551724138" y="93.3183908045977" type="line"/>
      <point x="148.65632183908048" y="181.47701149425288"/>
      <point x="191.0712643678161" y="237.2965517241379"/>
      <point x="248.54137931034484" y="237.2965517241379" type="curve" smooth="yes"/>
      <point x="305.96436781609196" y="237.2965517241379"/>
      <point x="330.8574712643678" y="193.18965517241378"/>
      <point x="330.8574712643678" y="148.4551724137931" type="curve" smooth="yes"/>
      <point x="330.8574712643678" y="95.41264367816093"/>
      <point x="300.1655172413793" y="52.51264367816092"/>
      <point x="239.05977011494255" y="52.51264367816092" type="curve" smooth="yes"/>
      <point x="167.69885057471268" y="52.51264367816092"/>
      <point x="110.67816091954023" y="121.4977011494253"/>
      <point x="110.67816091954023" y="244.58735632183908" type="curve" smooth="yes"/>
      <point x="110.67816091954023" y="403.42413793103447"/>
      <point x="206.8103448275862" y="505.24827586206897"/>
      <point x="363.29540229885055" y="505.24827586206897" type="curve" smooth="yes"/>
      <point x="501.7310344827586" y="505.24827586206897"/>
      <point x="597.9" y="403.4804597701149"/>
      <point x="597.9" y="258.351724137931" type="curve" smooth="yes"/>
      <point x="597.9" y="156.55632183908045"/>
      <point x="564.5080459770115" y="87.57471264367817"/>
      <point x="523.8183908045977" y="42.47931034482758" type="curve"/>
      <point x="541.3080459770116" y="0.0" type="line"/>
      <point x="979.2149425287356" y="0.0" type="line"/>
      <point x="979.2149425287356" y="556.6850574712644" type="line"/>
      <point x="868.5310344827586" y="556.6850574712644" type="line"/>
      <point x="868.5310344827586" y="55.93103448275862" type="line"/>
      <point x="617.4264367816091" y="55.93103448275862" type="line"/>
      <point x="665.2126436781609" y="105.67241379310344"/>
      <point x="705.203448275862" y="173.88160919540232"/>
      <point x="705.203448275862" y="267.54137931034484" type="curve" smooth="yes"/>
      <point x="705.203448275862" y="443.73793103448276"/>
      <point x="566.5321839080459" y="561.6850574712644"/>
      <point x="379.7885057471264" y="561.6850574712644" type="curve" smooth="yes"/>
      <point x="180.60689655172413" y="561.6850574712644"/>
      <point x="52.52528735632184" y="437.00114942528734"/>
      <point x="52.52528735632184" y="246.78045977011493" type="curve" smooth="yes"/>
      <point x="52.52528735632184" y="87.67816091954023"/>
      <point x="143.76091954022985" y="-4.541379310344827"/>
    </contour>
  </outline>
</glyph>
<glyph name="sa-tamil" format="2">
  <advance width="1311.7850574712645"/>
  <unicode hex="0BB8"/>
  <note>
uni0BB8
</note>
  <anchor x="660.2724137931034" y="0.0" name="bottom"/>
  <anchor x="659.9689655172414" y="0.0" name="nukta"/>
  <anchor x="646.3195402298851" y="556.6850574712644" name="top"/>
  <anchor x="658.2264367816092" y="556.6850574712644" name="vedic"/>
  <outline>
    <contour>
      <point x="579.664367816092" y="0.0" type="line"/>
      <point x="689.6218390804597" y="0.0" type="line"/>
      <point x="689.6218390804597" y="410.31954022988504" type="line" smooth="yes"/>
      <point x="689.6218390804597" y="469.23333333333335"/>
      <point x="717.8632183908046" y="504.9011494252874"/>
      <point x="774.2701149425288" y="504.9011494252874" type="curve" smooth="yes"/>
      <point x="825.0264367816092" y="504.9011494252874"/>
      <point x="852.1551724137931" y="473.3494252873563"/>
      <point x="852.1551724137931" y="422.1183908045977" type="curve" smooth="yes"/>
      <point x="852.1551724137931" y="175.27701149425286" type="line" smooth="yes"/>
      <point x="852.1551724137931" y="60.41264367816092"/>
      <point x="923.8977011494253" y="-1.0758620689655176"/>
      <point x="1026.8724137931033" y="-1.0758620689655176" type="curve" smooth="yes"/>
      <point x="1168.1816091954022" y="-1.0758620689655176"/>
      <point x="1255.451724137931" y="121.81954022988505"/>
      <point x="1255.451724137931" y="284.33333333333337" type="curve" smooth="yes"/>
      <point x="1255.451724137931" y="384.3632183908046"/>
      <point x="1227.5597701149425" y="473.0252873563218"/>
      <point x="1153.73908045977" y="561.5103448275862" type="curve"/>
      <point x="1107.2482758620688" y="526.3965517241379" type="line"/>
      <point x="1170.244827586207" y="450.4494252873563"/>
      <point x="1194.0965517241377" y="374.4459770114942"/>
      <point x="1194.0965517241377" y="289.3034482758621" type="curve" smooth="yes"/>
      <point x="1194.0965517241377" y="158.3103448275862"/>
      <point x="1131.4436781609197" y="59.68965517241379"/>
      <point x="1045.7563218390806" y="59.68965517241379" type="curve" smooth="yes"/>
      <point x="997.355172413793" y="59.68965517241379"/>
      <point x="962.3988505747127" y="93.50000000000001"/>
      <point x="962.3988505747127" y="172.02413793103446" type="curve" smooth="yes"/>
      <point x="962.3988505747127" y="401.04137931034484" type="line" smooth="yes"/>
      <point x="962.3988505747127" y="502.81149425287356"/>
      <point x="890.2977011494253" y="561.583908045977"/>
      <point x="790.8770114942529" y="561.583908045977" type="curve" smooth="yes"/>
      <point x="686.7988505747127" y="561.583908045977"/>
      <point x="626.5770114942528" y="498.5344827586207"/>
      <point x="626.5770114942528" y="414.9758620689655" type="curve" smooth="yes"/>
      <point x="626.5770114942528" y="340.7057471264368" type="line"/>
      <point x="579.664367816092" y="340.7057471264368" type="line"/>
    </contour>
    <contour>
      <point x="262.732183908046" y="-4.541379310344827" type="curve" smooth="yes"/>
      <point x="368.38045977011495" y="-4.541379310344827"/>
      <point x="434.9034482758621" y="60.60114942528735"/>
      <point x="434.9034482758621" y="153.69425287356322" type="curve" smooth="yes"/>
      <point x="434.9034482758621" y="245.08620689655172"/>
      <point x="379.5609195402299" y="308.9758620689655"/>
      <point x="288.08505747126435" y="308.9758620689655" type="curve" smooth="yes"/>
      <point x="186.632183908046" y="308.9758620689655"/>
      <point x="121.76781609195403" y="224.82528735632184"/>
      <point x="116.49999999999999" y="118.37931034482759" type="curve"/>
      <point x="148.7735632183908" y="93.3183908045977" type="line"/>
      <point x="152.4264367816092" y="179.03103448275863"/>
      <point x="191.86436781609194" y="237.2965517241379"/>
      <point x="252.0390804597701" y="237.2965517241379" type="curve" smooth="yes"/>
      <point x="309.46206896551723" y="237.2965517241379"/>
      <point x="333.83103448275864" y="193.18965517241378"/>
      <point x="333.83103448275864" y="148.4551724137931" type="curve" smooth="yes"/>
      <point x="333.83103448275864" y="95.41264367816093"/>
      <point x="303.6528735632184" y="52.51264367816092"/>
      <point x="242.64827586206894" y="52.51264367816092" type="curve" smooth="yes"/>
      <point x="169.64597701149427" y="52.51264367816092"/>
      <point x="114.64137931034483" y="124.42413793103448"/>
      <point x="114.64137931034483" y="253.01724137931035" type="curve" smooth="yes"/>
      <point x="114.64137931034483" y="406.59999999999997"/>
      <point x="211.82988505747127" y="504.44827586206895"/>
      <point x="357.7977011494253" y="504.44827586206895" type="curve" smooth="yes"/>
      <point x="476.40000000000003" y="504.44827586206895"/>
      <point x="579.7655172413793" y="440.9862068965517"/>
      <point x="579.7655172413793" y="291.81724137931036" type="curve"/>
      <point x="642.2287356321839" y="296.44942528735635" type="line"/>
      <point x="638.5954022988506" y="475.683908045977"/>
      <point x="511.8356321839081" y="561.8597701149424"/>
      <point x="361.1379310344828" y="561.8597701149424" type="curve" smooth="yes"/>
      <point x="180.1896551724138" y="561.8597701149424"/>
      <point x="56.02988505747126" y="443.6379310344828"/>
      <point x="56.02988505747126" y="254.1183908045977" type="curve" smooth="yes"/>
      <point x="56.02988505747126" y="90.42988505747127"/>
      <point x="145.51494252873565" y="-4.541379310344827"/>
    </contour>
  </outline>
</glyph>
<glyph name="aaMatra-tamil" format="2">
  <advance width="618.7390804597701"/>
  <unicode hex="0BBE"/>
  <note>
uni0BBE
</note>
  <anchor x="334.0689655172414" y="0.0" name="bottom"/>
  <anchor x="333.0689655172414" y="0.0" name="nukta"/>
  <anchor x="327.0689655172414" y="556.6850574712644" name="top"/>
  <anchor x="327.0689655172414" y="556.6850574712644" name="vedic"/>
  <outline>
    <contour>
      <point x="87.05632183908045" y="0.0" type="line"/>
      <point x="149.07241379310344" y="0.0" type="line"/>
      <point x="149.07241379310344" y="500.8551724137931" type="line"/>
      <point x="339.1632183908046" y="500.8551724137931" type="line"/>
      <point x="339.1632183908046" y="0.0" type="line"/>
      <point x="448.86436781609194" y="0.0" type="line"/>
      <point x="448.86436781609194" y="500.8551724137931" type="line"/>
      <point x="599.1275862068965" y="500.8551724137931" type="line"/>
      <point x="599.1275862068965" y="556.6850574712644" type="line"/>
      <point x="87.05632183908045" y="556.6850574712644" type="line"/>
    </contour>
  </outline>
</glyph>
<glyph name="iMatra-tamil" format="2">
  <advance width="212.42068965517242"/>
  <unicode hex="0BBF"/>
  <note>
uni0BBF
</note>
  <anchor x="-120.03448275862068" y="834.5919540229885" name="top"/>
  <outline>
    <contour>
      <point x="64.86781609195401" y="0.0" type="line"/>
      <point x="126.35287356321841" y="0.0" type="line"/>
      <point x="126.35287356321841" y="566.9505747126437" type="line" smooth="yes"/>
      <point x="126.35287356321841" y="736.2701149425287"/>
      <point x="28.972413793103453" y="834.5919540229885"/>
      <point x="-120.03448275862068" y="834.5919540229885" type="curve" smooth="yes"/>
      <point x="-246.91724137931038" y="834.5919540229885"/>
      <point x="-328.2068965517241" y="756.4999999999999"/>
      <point x="-328.2068965517241" y="653.3344827586208" type="curve" smooth="yes"/>
      <point x="-328.2068965517241" y="562.4310344827587"/>
      <point x="-267.3080459770115" y="503.67816091954023"/>
      <point x="-179.03678160919543" y="503.67816091954023" type="curve" smooth="yes"/>
      <point x="-174.7632183908046" y="503.67816091954023" type="line"/>
      <point x="-174.7632183908046" y="556.6850574712644" type="line"/>
      <point x="-179.03678160919543" y="556.6850574712644" type="line" smooth="yes"/>
      <point x="-226.3264367816092" y="556.6850574712644"/>
      <point x="-260.8827586206897" y="585.9873563218391"/>
      <point x="-260.8827586206897" y="636.1609195402299" type="curve" smooth="yes"/>
      <point x="-260.8827586206897" y="700.616091954023"/>
      <point x="-205.74137931034485" y="737.312643678161"/>
      <point x="-125.5586206896552" y="737.312643678161" type="curve" smooth="yes"/>
      <point x="-7.24712643678161" y="737.312643678161"/>
      <point x="64.86781609195401" y="672.6701149425287"/>
      <point x="64.86781609195401" y="534.596551724138" type="curve" smooth="yes"/>
    </contour>
  </outline>
</glyph>
<glyph name="iiMatra-tamil" format="2">
  <unicode hex="0BC0"/>
  <note>
uni0BC0
</note>
  <anchor x="0.0" y="556.6850574712644" name="_imatra"/>
  <anchor x="9.137931034482758" y="888.2712643678161" name="top"/>
  <outline>
    <contour>
      <point x="-25.78505747126437" y="504.67816091954023" type="curve" smooth="yes"/>
      <point x="0.0" y="504.67816091954023" type="line"/>
      <point x="0.0" y="556.6850574712644" type="line"/>
      <point x="-24.583908045977015" y="556.6850574712644" type="line" smooth="yes"/>
      <point x="-94.33218390804598" y="556.6850574712644"/>
      <point x="-144.22528735632187" y="605.8574712643679"/>
      <point x="-144.22528735632187" y="685.7379310344827" type="curve" smooth="yes"/>
      <point x="-144.22528735632187" y="772.464367816092"/>
      <point x="-94.82528735632185" y="832.312643678161"/>
      <point x="2.711494252873563" y="832.312643678161" type="curve" smooth="yes"/>
      <point x="68.63103448275862" y="832.312643678161"/>
      <point x="111.37586206896552" y="796.1103448275862"/>
      <point x="111.37586206896552" y="735.1402298850576" type="curve" smooth="yes"/>
      <point x="111.37586206896552" y="692.5770114942528"/>
      <point x="84.20114942528735" y="662.9701149425288"/>
      <point x="44.52988505747126" y="662.9701149425288" type="curve" smooth="yes"/>
      <point x="-35.3735632183908" y="662.9701149425288"/>
      <point x="-52.201149425287355" y="762.2896551724137"/>
      <point x="-7.675862068965517" y="855.4873563218391" type="curve"/>
      <point x="-52.709195402298846" y="859.4873563218391" type="line"/>
      <point x="-120.54252873563219" y="734.2137931034483"/>
      <point x="-74.20574712643678" y="602.8551724137931"/>
      <point x="60.10689655172414" y="602.8551724137931" type="curve" smooth="yes"/>
      <point x="142.43333333333334" y="602.8551724137931"/>
      <point x="199.1758620689655" y="657.9344827586207"/>
      <point x="199.1758620689655" y="729.7873563218391" type="curve" smooth="yes"/>
      <point x="199.1758620689655" y="826.4620689655173"/>
      <point x="124.68735632183908" y="888.2712643678161"/>
      <point x="9.137931034482758" y="888.2712643678161" type="curve" smooth="yes"/>
      <point x="-118.69310344827586" y="888.2712643678161"/>
      <point x="-203.41609195402302" y="805.9091954022989"/>
      <point x="-203.41609195402302" y="687.6390804597701" type="curve" smooth="yes"/>
      <point x="-203.41609195402302" y="576.9287356321838"/>
      <point x="-127.81379310344828" y="504.67816091954023"/>
    </contour>
  </outline>
</glyph>
<glyph name="uMatra-tamil" format="2">
  <advance width="511.2206896551723"/>
  <unicode hex="0BC1"/>
  <note>
uni0BC1
</note>
  <anchor x="212.6149425287356" y="556.6850574712644" name="top"/>
  <outline>
    <contour>
      <point x="312.35977011494253" y="216.55632183908045" type="curve" smooth="yes"/>
      <point x="408.5632183908046" y="216.55632183908045"/>
      <point x="490.6609195402298" y="272.3666666666667"/>
      <point x="490.6609195402298" y="383.67011494252876" type="curve" smooth="yes"/>
      <point x="490.6609195402298" y="556.6850574712644" type="line"/>
      <point x="-248.54252873563217" y="556.6850574712644" type="line"/>
      <point x="-202.23218390804595" y="500.8551724137931" type="line"/>
      <point x="380.6655172413793" y="500.8551724137931" type="line"/>
      <point x="380.6655172413793" y="373.7206896551724" type="line" smooth="yes"/>
      <point x="380.6655172413793" y="312.9287356321839"/>
      <point x="344.32068965517243" y="276.7689655172414"/>
      <point x="293.7459770114943" y="276.7689655172414" type="curve" smooth="yes"/>
      <point x="235.80114942528735" y="276.7689655172414"/>
      <point x="206.40344827586208" y="312.0448275862069"/>
      <point x="206.40344827586208" y="386.0850574712644" type="curve" smooth="yes"/>
      <point x="206.40344827586208" y="525.528735632184" type="line"/>
      <point x="145.6448275862069" y="525.528735632184" type="line"/>
      <point x="145.6448275862069" y="392.2551724137931" type="line" smooth="yes"/>
      <point x="145.6448275862069" y="275.2574712643678"/>
      <point x="211.932183908046" y="216.55632183908045"/>
    </contour>
  </outline>
</glyph>
<glyph name="uuMatra-tamil" format="2">
  <advance width="838.6885057471263"/>
  <unicode hex="0BC2"/>
  <note>
uni0BC2
</note>
  <anchor x="441.7310344827587" y="781.0574712643678" name="top"/>
  <outline>
    <contour>
      <point x="369.13563218390806" y="2.1517241379310352" type="curve" smooth="yes"/>
      <point x="627.8770114942529" y="2.1517241379310352"/>
      <point x="788.0022988505747" y="166.20459770114942"/>
      <point x="788.0022988505747" y="407.9747126436782" type="curve" smooth="yes"/>
      <point x="788.0022988505747" y="607.5655172413793"/>
      <point x="659.3402298850575" y="781.0574712643678"/>
      <point x="441.7310344827587" y="781.0574712643678" type="curve" smooth="yes"/>
      <point x="240.72873563218388" y="781.0574712643678"/>
      <point x="154.44597701149428" y="648.5229885057471"/>
      <point x="154.44597701149428" y="526.1229885057471" type="curve" smooth="yes"/>
      <point x="154.44597701149428" y="399.13448275862066" type="line" smooth="yes"/>
      <point x="154.44597701149428" y="278.0091954022989"/>
      <point x="221.93448275862067" y="216.55632183908045"/>
      <point x="326.0310344827587" y="216.55632183908045" type="curve" smooth="yes"/>
      <point x="419.1333333333333" y="216.55632183908045"/>
      <point x="498.82873563218385" y="273.04367816091957"/>
      <point x="498.82873563218385" y="383.67011494252876" type="curve" smooth="yes"/>
      <point x="498.82873563218385" y="556.6850574712644" type="line"/>
      <point x="-248.27471264367819" y="556.6850574712644" type="line"/>
      <point x="-208.12298850574712" y="500.8551724137931" type="line"/>
      <point x="389.29195402298853" y="500.8551724137931" type="line"/>
      <point x="389.29195402298853" y="373.7206896551724" type="line" smooth="yes"/>
      <point x="389.29195402298853" y="312.9287356321839"/>
      <point x="352.58045977011494" y="276.7689655172414"/>
      <point x="302.3724137931035" y="276.7689655172414" type="curve" smooth="yes"/>
      <point x="243.51034482758615" y="276.7689655172414"/>
      <point x="215.02988505747126" y="316.17241379310343"/>
      <point x="215.02988505747126" y="392.96436781609196" type="curve" smooth="yes"/>
      <point x="215.02988505747126" y="526.1229885057471" type="line" smooth="yes"/>
      <point x="215.02988505747126" y="628.6103448275862"/>
      <point x="289.5172413793103" y="722.871264367816"/>
      <point x="422.7689655172414" y="722.871264367816" type="curve" smooth="yes"/>
      <point x="610.5563218390805" y="722.871264367816"/>
      <point x="676.1425287356321" y="574.6620689655173"/>
      <point x="676.1425287356321" y="420.7977011494253" type="curve" smooth="yes"/>
      <point x="676.1425287356321" y="211.59425287356322"/>
      <point x="580.587356321839" y="60.18850574712644"/>
      <point x="367.10344827586204" y="60.18850574712644" type="curve" smooth="yes"/>
      <point x="252.96321839080463" y="60.18850574712644"/>
      <point x="154.29540229885058" y="103.54252873563219"/>
      <point x="80.93908045977011" y="209.33448275862068" type="curve"/>
      <point x="37.926436781609205" y="175.63218390804602" type="line"/>
      <point x="117.02758620689657" y="65.33103448275861"/>
      <point x="226.7574712643678" y="2.1517241379310352"/>
    </contour>
  </outline>
</glyph>
<glyph name="eMatra-tamil" format="2">
  <advance width="801.987356321839"/>
  <unicode hex="0BC6"/>
  <note>
uni0BC6
</note>
  <outline>
    <contour>
      <point x="318.9528735632184" y="-4.541379310344827" type="curve" smooth="yes"/>
      <point x="424.2436781609196" y="-4.541379310344827"/>
      <point x="490.9241379310345" y="60.60114942528735"/>
      <point x="490.9241379310345" y="154.59195402298852" type="curve" smooth="yes"/>
      <point x="490.9241379310345" y="250.132183908046"/>
      <point x="435.05747126436785" y="314.1229885057471"/>
      <point x="341.38965517241377" y="314.1229885057471" type="curve" smooth="yes"/>
      <point x="240.89770114942527" y="314.1229885057471"/>
      <point x="169.41494252873565" y="229.10919540229884"/>
      <point x="165.56666666666666" y="106.55747126436782" type="curve"/>
      <point x="198.73793103448276" y="81.22068965517241" type="line"/>
      <point x="200.0977011494253" y="181.84367816091955"/>
      <point x="244.90689655172415" y="242.44367816091955"/>
      <point x="305.9666666666667" y="242.44367816091955" type="curve" smooth="yes"/>
      <point x="365.4172413793103" y="242.44367816091955"/>
      <point x="390.1172413793103" y="198.23563218390805"/>
      <point x="390.1172413793103" y="149.08735632183908" type="curve" smooth="yes"/>
      <point x="390.1172413793103" y="95.41264367816093"/>
      <point x="359.42528735632186" y="52.51264367816092"/>
      <point x="298.42068965517245" y="52.51264367816092" type="curve" smooth="yes"/>
      <point x="163.50344827586207" y="52.51264367816092"/>
      <point x="115.77931034482759" y="224.3735632183908"/>
      <point x="115.77931034482759" y="380.21954022988507" type="curve" smooth="yes"/>
      <point x="115.77931034482759" y="597.2816091954022"/>
      <point x="227.75402298850574" y="732.8000000000001"/>
      <point x="411.3367816091954" y="732.8000000000001" type="curve" smooth="yes"/>
      <point x="578.3206896551724" y="732.8000000000001"/>
      <point x="654.535632183908" y="646.416091954023"/>
      <point x="654.535632183908" y="443.21724137931034" type="curve" smooth="yes"/>
      <point x="654.535632183908" y="0.0" type="line"/>
      <point x="715.919540229885" y="0.0" type="line"/>
      <point x="715.919540229885" y="460.97241379310344" type="line" smooth="yes"/>
      <point x="715.919540229885" y="707.9885057471264"/>
      <point x="616.0563218390804" y="831.4252873563219"/>
      <point x="414.8965517241379" y="831.4252873563219" type="curve" smooth="yes"/>
      <point x="192.57471264367817" y="831.4252873563219"/>
      <point x="57.16781609195402" y="642.6068965517242"/>
      <point x="57.16781609195402" y="388.8183908045977" type="curve" smooth="yes"/>
      <point x="57.16781609195402" y="200.61954022988508"/>
      <point x="132.50804597701148" y="-4.541379310344827"/>
    </contour>
  </outline>
</glyph>
<glyph name="eeMatra-tamil" format="2">
  <advance width="602.196551724138"/>
  <unicode hex="0BC7"/>
  <note>
uni0BC7
</note>
  <outline>
    <contour>
      <point x="375.59655172413795" y="-5.0" type="curve" smooth="yes"/>
      <point x="479.32298850574705" y="-5.0"/>
      <point x="552.5471264367817" y="55.43333333333334"/>
      <point x="552.5471264367817" y="154.59195402298852" type="curve" smooth="yes"/>
      <point x="552.5471264367817" y="252.88390804597702"/>
      <point x="495.6620689655172" y="315.04022988505744"/>
      <point x="403.08620689655174" y="315.04022988505744" type="curve" smooth="yes"/>
      <point x="303.6126436781609" y="315.04022988505744"/>
      <point x="229.72068965517244" y="229.72413793103445"/>
      <point x="226.07011494252873" y="94.30000000000001" type="curve"/>
      <point x="261.432183908046" y="70.89885057471264" type="line"/>
      <point x="263.8793103448276" y="185.58620689655172"/>
      <point x="309.2816091954023" y="243.3609195402299"/>
      <point x="369.15862068965515" y="243.3609195402299" type="curve" smooth="yes"/>
      <point x="426.5816091954023" y="243.3609195402299"/>
      <point x="451.4747126436782" y="199.1528735632184"/>
      <point x="451.4747126436782" y="149.08735632183908" type="curve" smooth="yes"/>
      <point x="451.4747126436782" y="90.69540229885058"/>
      <point x="414.9103448275862" y="52.51264367816092"/>
      <point x="355.303448275862" y="52.51264367816092" type="curve" smooth="yes"/>
      <point x="245.61724137931034" y="52.51264367816092"/>
      <point x="115.88045977011495" y="192.1344827586207"/>
      <point x="115.88045977011495" y="412.9471264367816" type="curve" smooth="yes"/>
      <point x="115.88045977011495" y="633.6770114942528"/>
      <point x="245.61724137931034" y="774.0034482758621"/>
      <point x="355.303448275862" y="774.0034482758621" type="curve" smooth="yes"/>
      <point x="414.9103448275862" y="774.0034482758621"/>
      <point x="451.4747126436782" y="735.555172413793"/>
      <point x="451.4747126436782" y="677.2367816091954" type="curve" smooth="yes"/>
      <point x="451.4747126436782" y="627.0977011494252"/>
      <point x="426.5816091954023" y="583.1551724137931"/>
      <point x="369.15862068965515" y="583.1551724137931" type="curve" smooth="yes"/>
      <point x="309.2816091954023" y="583.1551724137931"/>
      <point x="263.8793103448276" y="641.0218390804598"/>
      <point x="261.432183908046" y="755.893103448276" type="curve"/>
      <point x="226.07011494252873" y="732.8494252873563" type="line"/>
      <point x="229.72068965517244" y="596.9666666666666"/>
      <point x="303.6126436781609" y="511.6689655172414"/>
      <point x="403.08620689655174" y="511.6689655172414" type="curve" smooth="yes"/>
      <point x="495.6620689655172" y="511.6689655172414"/>
      <point x="552.5471264367817" y="573.7057471264368"/>
      <point x="552.5471264367817" y="671.9241379310345" type="curve" smooth="yes"/>
      <point x="552.5471264367817" y="770.8172413793103"/>
      <point x="479.32298850574705" y="831.2505747126437"/>
      <point x="375.59655172413795" y="831.2505747126437" type="curve" smooth="yes"/>
      <point x="215.22643678160918" y="831.2505747126437"/>
      <point x="57.26896551724138" y="666.8666666666668"/>
      <point x="57.26896551724138" y="413.5793103448276" type="curve" smooth="yes"/>
      <point x="57.26896551724138" y="160.016091954023"/>
      <point x="215.22643678160918" y="-5.0"/>
    </contour>
  </outline>
</glyph>
<glyph name="aiMatra-tamil" format="2">
  <advance width="1218.8206896551726"/>
  <unicode hex="0BC8"/>
  <note>
uni0BC8
</note>
  <outline>
    <contour>
      <point x="986.8954022988504" y="-9.024137931034483" type="line"/>
      <point x="1104.5666666666666" y="44.45517241379311"/>
      <point x="1166.9287356321838" y="139.00919540229884"/>
      <point x="1166.9287356321838" y="262.9666666666667" type="curve" smooth="yes"/>
      <point x="1166.9287356321838" y="446.8689655172414"/>
      <point x="1031.9758620689654" y="561.6850574712644"/>
      <point x="841.0137931034483" y="561.6850574712644" type="curve" smooth="yes"/>
      <point x="629.7804597701148" y="561.6850574712644"/>
      <point x="501.6068965517241" y="398.10229885057475"/>
      <point x="501.6068965517241" y="199.4287356321839" type="curve" smooth="yes"/>
      <point x="501.6068965517241" y="75.00459770114942"/>
      <point x="559.2218390804597" y="-5.073563218390804"/>
      <point x="665.7793103448276" y="-5.073563218390804" type="curve" smooth="yes"/>
      <point x="770.619540229885" y="-5.073563218390804"/>
      <point x="839.2402298850575" y="70.51724137931035"/>
      <point x="839.2402298850575" y="192.6873563218391" type="curve" smooth="yes"/>
      <point x="839.2402298850575" y="409.75057471264364"/>
      <point x="658.9287356321839" y="561.5103448275862"/>
      <point x="422.4793103448276" y="561.5103448275862" type="curve" smooth="yes"/>
      <point x="222.3816091954023" y="561.5103448275862"/>
      <point x="52.52528735632184" y="449.08045977011494"/>
      <point x="52.52528735632184" y="240.14137931034483" type="curve" smooth="yes"/>
      <point x="52.52528735632184" y="82.26206896551724"/>
      <point x="144.61724137931034" y="-4.716091954022988"/>
      <point x="258.8781609195402" y="-4.716091954022988" type="curve" smooth="yes"/>
      <point x="364.067816091954" y="-4.716091954022988"/>
      <point x="431.1149425287357" y="60.251724137931035"/>
      <point x="431.1149425287357" y="153.51954022988505" type="curve" smooth="yes"/>
      <point x="431.1149425287357" y="244.7367816091954"/>
      <point x="375.24827586206897" y="308.6264367816092"/>
      <point x="283.9471264367816" y="308.6264367816092" type="curve" smooth="yes"/>
      <point x="185.92298850574716" y="308.6264367816092"/>
      <point x="117.04022988505747" y="226.2229885057471"/>
      <point x="112.99540229885058" y="118.20459770114942" type="curve"/>
      <point x="145.44367816091955" y="92.96896551724139" type="line"/>
      <point x="149.09655172413792" y="181.30229885057472"/>
      <point x="190.98045977011495" y="237.12183908045978"/>
      <point x="248.083908045977" y="237.12183908045978" type="curve" smooth="yes"/>
      <point x="305.60804597701144" y="237.12183908045978"/>
      <point x="330.40000000000003" y="192.84022988505745"/>
      <point x="330.40000000000003" y="148.10574712643677" type="curve" smooth="yes"/>
      <point x="330.40000000000003" y="95.06321839080461"/>
      <point x="299.97356321839084" y="52.33793103448276"/>
      <point x="238.9689655172414" y="52.33793103448276" type="curve" smooth="yes"/>
      <point x="167.94022988505748" y="52.33793103448276"/>
      <point x="110.67816091954023" y="116.0816091954023"/>
      <point x="110.67816091954023" y="238.29770114942528" type="curve" smooth="yes"/>
      <point x="110.67816091954023" y="410.4080459770115"/>
      <point x="243.20689655172413" y="505.3770114942529"/>
      <point x="410.5931034482758" y="505.3770114942529" type="curve" smooth="yes"/>
      <point x="607.367816091954" y="505.3770114942529"/>
      <point x="731.8425287356322" y="392.1701149425287"/>
      <point x="731.8425287356322" y="191.28850574712644" type="curve" smooth="yes"/>
      <point x="731.8425287356322" y="106.8528735632184"/>
      <point x="703.1804597701149" y="53.13793103448276"/>
      <point x="644.8206896551725" y="53.13793103448276" type="curve" smooth="yes"/>
      <point x="588.4045977011493" y="53.13793103448276"/>
      <point x="559.2827586206897" y="109.31379310344828"/>
      <point x="559.2827586206897" y="195.6770114942529" type="curve" smooth="yes"/>
      <point x="559.2827586206897" y="362.4436781609196"/>
      <point x="653.4459770114943" y="505.55172413793105"/>
      <point x="831.3816091954023" y="505.55172413793105" type="curve" smooth="yes"/>
      <point x="972.5413793103448" y="505.55172413793105"/>
      <point x="1060.9057471264368" y="410.13448275862066"/>
      <point x="1060.9057471264368" y="253.09885057471263" type="curve" smooth="yes"/>
      <point x="1060.9057471264368" y="164.26436781609195"/>
      <point x="1029.9183908045977" y="86.25747126436781"/>
      <point x="961.7942528735633" y="29.842528735632186" type="curve"/>
    </contour>
  </outline>
</glyph>
<glyph name="halant-tamil" format="2">
  <unicode hex="0BCD"/>
  <note>
uni0BCD
</note>
  <anchor x="0.0" y="556.6850574712644" name="_top"/>
  <outline>
    <contour>
      <point x="0.0" y="633.4551724137931" type="curve" smooth="yes"/>
      <point x="36.808045977011496" y="633.4551724137931"/>
      <point x="66.35747126436782" y="663.2609195402299"/>
      <point x="66.35747126436782" y="697.967816091954" type="curve" smooth="yes"/>
      <point x="66.35747126436782" y="732.3988505747126"/>
      <point x="36.808045977011496" y="762.4701149425289"/>
      <point x="0.0" y="762.4701149425289" type="curve" smooth="yes"/>
      <point x="-36.808045977011496" y="762.4701149425289"/>
      <point x="-66.25632183908047" y="732.3988505747126"/>
      <point x="-66.25632183908047" y="697.967816091954" type="curve" smooth="yes"/>
      <point x="-66.25632183908047" y="663.2609195402299"/>
      <point x="-36.808045977011496" y="633.4551724137931"/>
    </contour>
  </outline>
</glyph>
